<?xml version="1.0" encoding="utf-8"?>
<!-- Generator: Adobe Illustrator 15.1.0, SVG Export Plug-In . SVG Version: 6.00 Build 0)  -->
<!DOCTYPE svg PUBLIC "-//W3C//DTD SVG 1.1//EN" "http://www.w3.org/Graphics/SVG/1.1/DTD/svg11.dtd">
<svg version="1.1" id="Calque_1" xmlns="http://www.w3.org/2000/svg" xmlns:xlink="http://www.w3.org/1999/xlink" x="0px" y="0px"
	 width="512px" height="512px" viewBox="0 0 512 512" enable-background="new 0 0 512 512" xml:space="preserve">
<g>
	<path d="M321.212,157.026c0-37.104-29.811-67.271-66.479-67.271c-36.646,0-66.469,30.167-66.469,67.271
		c0,37.127,29.823,67.328,66.469,67.328C291.401,224.354,321.212,194.153,321.212,157.026 M206.507,157.026
		c0-26.911,21.648-48.822,48.227-48.822c26.577,0,48.248,21.911,48.248,48.822c0,26.91-21.671,48.822-48.248,48.822
		C228.155,205.849,206.507,183.937,206.507,157.026 M254.48,459.854l6.948-8.256c6.077-7.246,148.896-177.928,148.438-289.423
		C409.478,72.752,339.879,0,254.733,0C169.22,0,99.61,72.774,99.61,162.221c0,111.449,141.891,282.131,147.922,289.354
		L254.48,459.854z M254.733,18.46c75.147,0,136.536,64.53,136.88,143.783c0.39,91.2-108.216,232.782-137.087,268.785
		c-28.745-36.026-136.64-177.608-136.64-268.808C117.887,82.968,179.287,18.46,254.733,18.46 M420.507,338.383h-54.83v18.277h36.554
		l36.53,137.063H73.238l36.565-137.063h27.403v-18.277H91.516L45.813,512h420.375L420.507,338.383z"/>
</g>
</svg>
