<?xml version="1.0" encoding="utf-8"?>
<!-- Generator: Adobe Illustrator 15.1.0, SVG Export Plug-In . SVG Version: 6.00 Build 0)  -->
<!DOCTYPE svg PUBLIC "-//W3C//DTD SVG 1.1//EN" "http://www.w3.org/Graphics/SVG/1.1/DTD/svg11.dtd">
<svg version="1.1" id="Calque_1" xmlns="http://www.w3.org/2000/svg" xmlns:xlink="http://www.w3.org/1999/xlink" x="0px" y="0px"
	 width="512px" height="512px" viewBox="0 0 512 512" enable-background="new 0 0 512 512" xml:space="preserve">
<g>
	<path d="M409.057,203.083c-23.963-80.728-76.817-108.99-113.68-118.759v-13.93c0-19.487-17.677-35.379-39.377-35.379
		c-21.7,0-39.377,15.892-39.377,35.379v13.905c-36.875,9.794-89.691,38.057-113.68,118.784C67.175,323.551,78.301,424.105,0,432.781
		v44.205h512v-44.205C433.699,424.105,444.788,323.551,409.057,203.083 M236.312,70.393c0-9.756,8.801-17.689,19.688-17.689
		c10.862,0,19.688,7.933,19.688,17.689v9.995c-7.644-1.006-13.604-1.207-16.847-1.207c-1.861,0-2.842,0.075-2.842,0.075
		s-0.98-0.075-2.841-0.075c-3.269,0-9.203,0.176-16.847,1.207V70.393z M492.312,459.309H19.701v-12.346
		c55.332-15.893,66.986-75.686,80.275-144.006c5.62-28.891,12.007-61.591,22.015-95.323
		C153.309,102.176,236.764,96.795,253.184,96.795c0.93,0,1.483,0.05,1.534,0.05L256,96.946l1.207-0.075
		c0.176,0,0.729-0.025,1.635-0.025c16.419,0,99.875,5.331,131.181,110.789c10.032,33.732,16.42,66.483,22.026,95.349
		c13.327,68.318,24.944,128.088,80.288,143.98v12.346H492.312z"/>
</g>
</svg>
