<?xml version="1.0" encoding="utf-8"?>
<!-- Generator: Adobe Illustrator 21.1.0, SVG Export Plug-In . SVG Version: 6.00 Build 0)  -->
<svg version="1.1" id="Calque_1" xmlns="http://www.w3.org/2000/svg" xmlns:xlink="http://www.w3.org/1999/xlink" x="0px" y="0px"
	 viewBox="0 0 40 40" style="enable-background:new 0 0 40 40;" xml:space="preserve">
<style type="text/css">
	.st0{fill:#70717C;}
	.st1{filter:url(#Adobe_OpacityMaskFilter);}
	.st2{fill:#FFFFFF;}
	.st3{mask:url(#mask-2);fill:#70717C;}
	.st4{filter:url(#Adobe_OpacityMaskFilter_1_);}
	.st5{mask:url(#mask-4);fill:#70717C;}
</style>
<title>Picto-Agriculture</title>
<desc>Created with Sketch.</desc>
<g id="Page-1" transform="translate(1.000000, 7.000000)">
	<path id="Fill-1" class="st0" d="M17.8,12.1l-0.6,12.1c0,0.9,0.8,1.7,1.8,1.7c1,0,1.8-0.7,1.8-1.6l-1.7-12.1H17.8z M19,27
		c-1.7,0-3-1.3-3-2.8l0.6-12.7c0-0.3,0.3-0.5,0.6-0.5h2.4c0.3,0,0.6,0.2,0.6,0.5L22,24.1l0,0.1C22,25.7,20.7,27,19,27z"/>
	<path id="Fill-3" class="st0" d="M23.2,12.1l2.2,12c0.1,0.5,0.5,1.8,1.7,1.8c0.5,0,1.1-0.3,1.5-0.7c0.1-0.2,0.3-0.5,0.2-0.8
		L25,12.1H23.2z M27.1,27c-1.5,0-2.5-1-2.8-2.7L22,11.7c0-0.2,0-0.3,0.1-0.5c0.1-0.1,0.3-0.2,0.4-0.2h2.8c0.2,0,0.5,0.2,0.5,0.4
		l4,12.6l0,0c0.2,0.6,0,1.2-0.4,1.8C28.9,26.5,28,27,27.1,27L27.1,27z"/>
	<path id="Fill-5" class="st0" d="M27.5,8.2L33,23.9c0.5,1.6,1.1,1.9,1.9,1.9c0.6,0,1.3-0.3,1.6-0.8c0.2-0.2,0.3-0.5,0.2-0.8
		L29.3,8.2H27.5z M34.9,27c-1.9,0-2.6-1.5-3-2.7L26,7.8c-0.1-0.2,0-0.4,0.1-0.5C26.2,7.1,26.4,7,26.6,7h3.1c0.2,0,0.5,0.1,0.6,0.3
		l7.7,16.5l0,0.1c0.2,0.6,0,1.3-0.4,1.8C36.9,26.5,35.9,27,34.9,27L34.9,27z"/>
	<g id="Group-9" transform="translate(7.000000, 11.000000)">
		<g id="Clip-8">
		</g>
		<defs>
			<filter id="Adobe_OpacityMaskFilter" filterUnits="userSpaceOnUse" x="0" y="0" width="8.4" height="16">
				<feColorMatrix  type="matrix" values="1 0 0 0 0  0 1 0 0 0  0 0 1 0 0  0 0 0 1 0"/>
			</filter>
		</defs>
		<mask maskUnits="userSpaceOnUse" x="0" y="0" width="8.4" height="16" id="mask-2">
			<g class="st1">
				<polygon id="path-1" class="st2" points="0,16 8.4,16 8.4,0.3 0,0.3 				"/>
			</g>
		</mask>
		<path id="Fill-7" class="st3" d="M1.2,13.4c-0.1,0.3,0.1,0.6,0.2,0.8c0.4,0.4,1,0.7,1.6,0.7c1.3,0,1.7-1.2,1.8-1.8l2.2-12H5.2
			L1.2,13.4z M3,16c-0.9,0-1.9-0.4-2.5-1.1c-0.5-0.5-0.6-1.2-0.5-1.8l0,0L4.2,0.4C4.3,0.2,4.5,0,4.8,0h3C8,0,8.1,0.1,8.3,0.2
			c0.1,0.1,0.2,0.3,0.1,0.5L6,13.3C5.7,15,4.6,16,3,16L3,16z"/>
	</g>
	<g id="Group-12" transform="translate(0.000000, 7.000000)">
		<g id="Clip-11">
		</g>
		<defs>
			<filter id="Adobe_OpacityMaskFilter_1_" filterUnits="userSpaceOnUse" x="-0.3" y="0" width="11.6" height="20">
				<feColorMatrix  type="matrix" values="1 0 0 0 0  0 1 0 0 0  0 0 1 0 0  0 0 0 1 0"/>
			</filter>
		</defs>
		<mask maskUnits="userSpaceOnUse" x="-0.3" y="0" width="11.6" height="20" id="mask-4">
			<g class="st4">
				<polygon id="path-3" class="st2" points="-0.3,20 11.3,20 11.3,0 -0.3,0 				"/>
			</g>
		</mask>
		<path id="Fill-10" class="st5" d="M0.9,17.3C0.8,17.6,1,17.9,1.1,18c0.3,0.5,1,0.8,1.5,0.8c0.8,0,1.3-0.3,1.7-1.9L9.9,1.2H8.2
			L0.9,17.3z M2.6,20c-0.9,0-1.9-0.5-2.4-1.2c-0.4-0.6-0.6-1.2-0.4-1.9l0-0.1L7.3,0.3C7.4,0.1,7.6,0,7.9,0h2.9
			c0.2,0,0.4,0.1,0.5,0.3s0.1,0.4,0.1,0.5L5.4,17.3C5.1,18.5,4.4,20,2.6,20L2.6,20z"/>
	</g>
	<path id="Fill-13" class="st0" d="M17,4h3V1h-3V4z M20.4,5h-3.7C16.3,5,16,4.7,16,4.4V0.6C16,0.3,16.3,0,16.6,0h3.7
		C20.7,0,21,0.3,21,0.6v3.7C21,4.7,20.7,5,20.4,5L20.4,5z"/>
	<path class="st0" d="M15,4v5h7V4H15z M21,8h-5V5h5V8z"/>
	<path id="Fill-16" class="st0" d="M13.6,9h1.6V6h-1.6V9z M15.4,10h-2.1c-0.3,0-0.6-0.3-0.6-0.6V5.6C12.8,5.3,13,5,13.3,5h2.1
		C15.7,5,16,5.3,16,5.6v3.8C16,9.7,15.7,10,15.4,10L15.4,10z"/>
	<path id="Fill-17" class="st0" d="M21.8,9h1.7V6h-1.7V9z M23.7,10h-2.1C21.3,10,21,9.7,21,9.4V5.6C21,5.3,21.3,5,21.6,5h2.1
		c0.3,0,0.6,0.3,0.6,0.6v3.8C24.3,9.7,24.1,10,23.7,10L23.7,10z"/>
	<path id="Fill-18" class="st0" d="M37.4,4c-0.1,0-0.1,0-0.2,0C36.6,3.8,30.1,3.1,20.8,3c-0.3,0-0.6-0.2-0.6-0.5
		c0-0.3,0.3-0.5,0.6-0.5c8.9,0.1,16,0.7,16.8,1c0.3,0.1,0.5,0.4,0.3,0.7C37.9,3.9,37.6,4,37.4,4"/>
	<path id="Fill-19" class="st0" d="M0.6,4C0.4,4,0.1,3.9,0,3.6C-0.1,3.3,0.1,3,0.4,2.9C1.2,2.7,7.6,2.1,16.4,2h0
		C16.7,2,17,2.2,17,2.5c0,0.3-0.3,0.5-0.6,0.6C7.4,3.2,1.4,3.8,0.8,4C0.8,4,0.7,4,0.6,4"/>
	<path id="Fill-20" class="st0" d="M5.5,8C5.2,8,5,7.8,5,7.5v-4C5,3.2,5.2,3,5.5,3S6,3.2,6,3.5v4C6,7.8,5.8,8,5.5,8"/>
	<path id="Fill-21" class="st0" d="M32.5,8C32.2,8,32,7.8,32,7.5v-4C32,3.2,32.2,3,32.5,3S33,3.2,33,3.5v4C33,7.8,32.8,8,32.5,8"/>
</g>
</svg>
