<?xml version="1.0" encoding="utf-8"?>
<!-- Generator: Adobe Illustrator 15.1.0, SVG Export Plug-In . SVG Version: 6.00 Build 0)  -->
<!DOCTYPE svg PUBLIC "-//W3C//DTD SVG 1.1//EN" "http://www.w3.org/Graphics/SVG/1.1/DTD/svg11.dtd">
<svg version="1.1" id="Calque_1" xmlns="http://www.w3.org/2000/svg" xmlns:xlink="http://www.w3.org/1999/xlink" x="0px" y="0px"
	 width="512px" height="512px" viewBox="0 0 512 512" enable-background="new 0 0 512 512" xml:space="preserve">
<g>
	<path fill="#71717B" d="M502.509,313.97h-15.032l-33.42-33.42c0.578-1.342,0.884-2.879,0.884-4.515v-33.124h9.65
		c5.235,0,9.488-11.508,9.488-16.75s-4.253-16.75-9.488-16.75h-9.65V108.908h28.609c5.251,0,9.487-3.133,9.487-8.375
		s-4.236-8.375-9.487-8.375h-29.024c-0.236-0.549-0.519-1.073-0.85-1.563c-1.251-2.292-3.389-3.868-6.221-4.142L236.77,7.45
		c-0.998-3.707-3.818-6.365-7.969-6.365c-1.922,0-3.558,0.574-4.862,1.554l-2.531-0.949c-2.462-0.924-5.21-0.793-7.573,0.385
		L43.164,87.414c-2.063,1.029-3.604,2.738-4.464,4.744H9.483c-5.242,0-9.479,3.132-9.479,8.375s4.237,8.375,9.479,8.375h43.438
		v15.642c-19.063,1.99-33.959,18.15-33.959,37.709c0,20.905,17.004,37.925,37.926,37.925s37.917-17.02,37.917-37.925
		c0-9.723-3.683-18.604-9.725-25.325c0.838-0.975,1.342-2.022,1.342-3.114v-24.913h134.003v290.698
		c-0.772-0.196-1.563-0.306-2.356-0.306c-0.716,0-1.429,0.09-2.13,0.251c-1.678,0.384-3.272,1.218-4.576,2.521l-85.322,85.339
		c-1.864,1.869-2.789,4.314-2.776,6.756h-28.45c-5.243,0-9.479,3.124-9.479,8.375s4.236,8.376,9.479,8.376h246.521
		c5.234,0,9.472-3.125,9.472-8.376s-4.237-8.375-9.472-8.375h-28.457c0.013-2.441-0.909-4.887-2.771-6.756l-72.931-72.938V108.908
		h201.013V209.41h-30.491c-5.234,0-9.471,11.508-9.471,16.75s4.236,16.75,9.471,16.75h30.491v23.879
		c-0.672-0.148-1.356-0.23-2.041-0.229c-2.425-0.002-4.853,0.927-6.71,2.784l-44.625,44.625h-15.032
		c-5.251,0-9.487,4.236-9.487,9.471v66.363c0,5.251,4.236,9.504,9.487,9.504h132.728c5.251,0,9.487-4.253,9.487-9.504V323.44
		C511.996,318.206,507.76,313.97,502.509,313.97z M56.889,181.226c-10.453,0-18.967-8.514-18.967-18.967
		c0-10.445,8.514-18.959,18.967-18.959c10.452,0,18.959,8.514,18.959,18.959C75.848,172.711,67.341,181.226,56.889,181.226z
		 M218.074,422.196l2.352,2.352v69.57c0,0.017,0.002,0.032,0.002,0.049h-74.331L218.074,422.196z M290.052,494.167h-52.877
		c0-0.017,0.002-0.032,0.002-0.049v-52.821L290.052,494.167z M237.177,86.416V27.858l156.16,58.557H237.177z M218.627,20.902
		l1.799,0.675v64.838H87.567L218.627,20.902z M436.145,289.433l24.537,24.537h-49.073L436.145,289.433z M493.037,380.333H379.252
		v-47.405h113.785V380.333z"/>
</g>
</svg>
