<?xml version="1.0" encoding="utf-8"?>
<!-- Generator: Adobe Illustrator 15.1.0, SVG Export Plug-In . SVG Version: 6.00 Build 0)  -->
<!DOCTYPE svg PUBLIC "-//W3C//DTD SVG 1.1//EN" "http://www.w3.org/Graphics/SVG/1.1/DTD/svg11.dtd">
<svg version="1.1" id="Calque_1" xmlns="http://www.w3.org/2000/svg" xmlns:xlink="http://www.w3.org/1999/xlink" x="0px" y="0px"
	 width="512px" height="512px" viewBox="0 0 512 512" enable-background="new 0 0 512 512" xml:space="preserve">
<g>
	<path d="M372.245,448.05V192.34h-0.363h-22.923h-46.573h-23.287h-0.016v23.208h0.016V448.05H372.245z M348.959,215.548v209.263
		h-46.573V215.548H348.959z"/>
	<path d="M499.935,448.05V192.34h-0.301h-22.891h-46.416h-23.176h-0.332v23.208h0.332V448.05H499.935z M476.743,215.548v209.263
		h-46.416V215.548H476.743z"/>
	<rect x="11.468" y="471.337" width="500.355" height="23.303"/>
	<path d="M500.504,168.706c5.296,0,9.912-3.675,11.177-8.893c1.233-5.209-1.186-10.616-5.896-13.082L261.298,18.67
		c-3.336-1.747-7.256-1.747-10.576,0L6.22,146.731c-4.711,2.466-7.153,7.873-5.889,13.082c1.265,5.217,5.873,8.893,11.185,8.893
		H500.504z M256.018,42.107l197.217,103.319H58.769L256.018,42.107z"/>
	<path d="M23.333,192.34v23.208V448.05h92.807V215.548V192.34H92.932H46.548H23.333z M92.932,215.548v209.263H46.548V215.548H92.932
		z"/>
	<path d="M174.325,192.34H151.03v23.208V448.05h93.162V192.34h-0.363h-22.916H174.325z M174.325,424.811V215.548h46.589v209.263
		H174.325z"/>
</g>
</svg>
