<?xml version="1.0" encoding="utf-8"?>
<!-- Generator: Adobe Illustrator 15.1.0, SVG Export Plug-In . SVG Version: 6.00 Build 0)  -->
<!DOCTYPE svg PUBLIC "-//W3C//DTD SVG 1.1//EN" "http://www.w3.org/Graphics/SVG/1.1/DTD/svg11.dtd">
<svg version="1.1" id="Calque_1" xmlns="http://www.w3.org/2000/svg" xmlns:xlink="http://www.w3.org/1999/xlink" x="0px" y="0px"
	 width="512px" height="512px" viewBox="0 0 512 512" enable-background="new 0 0 512 512" xml:space="preserve">
<g>
	<path fill="#010101" d="M509.525,289.714c-3.787-7.19-11.279-11.482-20.041-11.482c-25.854,0-73.213-8.299-114.32-22.483
		c2.914-11.817,4.424-24.016,4.424-36.337c0-35.561-12.381-69.767-34.975-97.013l0.104-0.083l-4.133-4.591l-3.701-4.113
		l-0.086,0.068c-23.684-24.528-54.117-40.05-87.451-44.788l0.367-0.235c-2.991-0.423-6.01-0.764-9.054-1.01l-8.759-0.244h-0.006
		l-1.803-0.052l-0.035,0.023c-0.847-0.015-1.693-0.039-2.543-0.039c-0.99,0-2.033,0.014-3.178,0.041l-0.014-0.009l-1.818,0.058
		h-0.005l-6.721,0.217c-3.614,0.292-7.193,0.703-10.732,1.242l0.134,0.087c-5.437,0.791-10.793,1.876-16.058,3.234
		C123.965,89.457,75.935,148.813,75.935,219.395c0,31.667,9.677,61.068,26.223,85.427c-6.924-4.357-12.607-8.688-16.543-12.624
		c-13.96-13.96-41.532-28.906-60.323-28.906c-12.197,0-18.396,6.068-21.003,9.688c-3.352,4.653-6.465,12.854-2.254,25.505
		c11.888,35.651,94.187,95.752,133.259,115.286l1.801,0.902c38.68,19.34,59.986,29.993,101.655,29.993
		c20.559,0,41.981-6.639,64.719-13.687c23.234-7.211,47.262-14.668,70.404-14.668c50.488,0,80.338-8.703,81.553-9.065l5.326-1.552
		l3.084-4.566c10.236-14.947,24.598-37.12,34.873-57.854C511.441,317.584,514.979,300.065,509.525,289.714z M330.938,132.957
		c1.383-0.979,2.754-1.982,4.111-3.002c0.135-0.101,0.271-0.195,0.404-0.295c20.961,25.181,32.443,56.84,32.443,89.751
		c0,10.951-1.301,21.794-3.797,32.32c-1.418-0.544-2.826-1.095-4.221-1.653c-21.4-8.557-36.334-13.681-52.023-15.858
		c0.016-0.196,0.033-0.392,0.049-0.587c0.047-0.583,0.092-1.165,0.133-1.747c0.057-0.833,0.102-1.667,0.148-2.501
		c0.029-0.549,0.064-1.095,0.09-1.645c0.043-0.926,0.07-1.855,0.098-2.784c0.016-0.458,0.035-0.915,0.045-1.373
		c0.033-1.39,0.049-2.78,0.049-4.172c0-1.518-0.02-3.03-0.057-4.542c-0.012-0.5-0.037-0.998-0.053-1.498
		c-0.033-1.011-0.068-2.021-0.117-3.029c-0.029-0.588-0.07-1.173-0.104-1.761c-0.055-0.918-0.109-1.836-0.178-2.752
		c-0.047-0.621-0.102-1.238-0.154-1.859c-0.074-0.879-0.15-1.759-0.238-2.635c-0.064-0.634-0.135-1.266-0.203-1.898
		c-0.096-0.862-0.195-1.724-0.301-2.582c-0.08-0.636-0.164-1.271-0.252-1.906c-0.115-0.854-0.236-1.707-0.365-2.558
		c-0.096-0.633-0.193-1.266-0.297-1.896c-0.139-0.854-0.283-1.707-0.436-2.56c-0.109-0.62-0.219-1.241-0.336-1.86
		c-0.162-0.868-0.336-1.731-0.512-2.595c-0.123-0.601-0.242-1.2-0.369-1.798c-0.191-0.896-0.396-1.789-0.604-2.684
		c-0.129-0.56-0.254-1.12-0.389-1.679c-0.232-0.973-0.482-1.939-0.732-2.908c-0.123-0.476-0.24-0.953-0.367-1.427
		c-0.336-1.255-0.689-2.505-1.053-3.753c-0.055-0.186-0.104-0.37-0.158-0.555c-0.424-1.438-0.869-2.872-1.33-4.302
		c-0.123-0.378-0.254-0.754-0.379-1.132c-0.344-1.039-0.689-2.077-1.053-3.111c-0.184-0.526-0.381-1.049-0.57-1.574
		c-0.318-0.882-0.639-1.766-0.973-2.644c-0.217-0.576-0.445-1.147-0.67-1.721c-0.217-0.558-0.428-1.118-0.652-1.674l0.104-0.037
		l-0.045-0.101c0.092-0.038,0.182-0.08,0.273-0.118c1.537-0.635,3.066-1.289,4.582-1.966c0.309-0.138,0.617-0.279,0.924-0.419
		c1.41-0.638,2.811-1.291,4.203-1.965c0.189-0.093,0.385-0.183,0.576-0.275c1.508-0.737,3-1.5,4.486-2.278
		c0.336-0.178,0.672-0.354,1.008-0.533c1.492-0.793,2.975-1.603,4.443-2.439c0.119-0.067,0.238-0.139,0.359-0.209
		c1.387-0.794,2.764-1.611,4.133-2.444c0.297-0.183,0.598-0.363,0.896-0.547c1.422-0.878,2.832-1.774,4.232-2.691
		c0.262-0.173,0.521-0.348,0.781-0.521c1.297-0.861,2.584-1.737,3.857-2.632C330.566,133.215,330.752,133.089,330.938,132.957z
		 M289.18,232.985c-15.721,0-34.665,2.283-64.123,6.497c-31.166,4.449-50.661,11.636-62.824,19.152
		c-0.231-0.962-0.458-1.923-0.672-2.887c-0.1-0.454-0.191-0.91-0.288-1.365c-0.171-0.803-0.341-1.606-0.5-2.411
		c-0.101-0.509-0.193-1.021-0.289-1.531c-0.142-0.756-0.282-1.513-0.412-2.271c-0.093-0.533-0.179-1.067-0.267-1.601
		c-0.119-0.74-0.237-1.48-0.348-2.221c-0.082-0.547-0.16-1.096-0.236-1.644c-0.101-0.731-0.198-1.466-0.291-2.199
		c-0.069-0.554-0.136-1.107-0.199-1.661c-0.085-0.737-0.165-1.473-0.238-2.21c-0.057-0.554-0.114-1.105-0.164-1.659
		c-0.069-0.75-0.131-1.501-0.188-2.252c-0.043-0.54-0.088-1.08-0.125-1.622c-0.054-0.783-0.097-1.568-0.141-2.354
		c-0.028-0.511-0.059-1.021-0.083-1.532c-0.039-0.867-0.066-1.737-0.092-2.607c-0.013-0.43-0.033-0.858-0.042-1.289
		c-0.03-1.3-0.046-2.603-0.046-3.907c0-1.426,0.019-2.85,0.054-4.27c0.011-0.47,0.035-0.937,0.05-1.405
		c0.032-0.951,0.063-1.901,0.111-2.848c0.027-0.561,0.066-1.117,0.099-1.675c0.051-0.855,0.101-1.709,0.166-2.562
		c0.044-0.593,0.098-1.184,0.148-1.776c0.07-0.815,0.14-1.631,0.222-2.445c0.06-0.605,0.128-1.211,0.196-1.815
		c0.088-0.796,0.179-1.591,0.278-2.385c0.077-0.614,0.16-1.225,0.244-1.837c0.108-0.784,0.22-1.569,0.338-2.351
		c0.093-0.611,0.188-1.222,0.287-1.83c0.127-0.782,0.261-1.563,0.401-2.341c0.106-0.606,0.215-1.213,0.33-1.817
		c0.147-0.782,0.304-1.563,0.464-2.343c0.121-0.595,0.241-1.188,0.369-1.782c0.172-0.795,0.354-1.589,0.538-2.382
		c0.132-0.571,0.262-1.146,0.399-1.715c0.202-0.828,0.414-1.653,0.627-2.479c0.138-0.53,0.27-1.063,0.412-1.593
		c0.246-0.911,0.505-1.817,0.767-2.726c0.127-0.439,0.246-0.88,0.376-1.318c0.798-2.688,1.666-5.358,2.602-8.011
		c0.148-0.42,0.308-0.836,0.458-1.253c0.328-0.906,0.656-1.812,1-2.712c0.191-0.501,0.394-1.001,0.59-1.501
		c0.253-0.645,0.508-1.288,0.77-1.929c0.416,0.141,0.834,0.271,1.251,0.409c0.541,0.179,1.081,0.359,1.622,0.532
		c0.701,0.225,1.404,0.44,2.108,0.657c0.521,0.16,1.042,0.323,1.565,0.478c0.753,0.224,1.508,0.438,2.264,0.65
		c0.475,0.134,0.949,0.273,1.426,0.403c0.906,0.249,1.815,0.483,2.724,0.717c0.329,0.086,0.657,0.176,0.986,0.258
		c1.237,0.311,2.478,0.606,3.723,0.89c0.321,0.074,0.644,0.14,0.966,0.211c0.927,0.205,1.856,0.409,2.787,0.601
		c0.466,0.096,0.932,0.183,1.397,0.273c0.792,0.156,1.582,0.313,2.375,0.458c0.515,0.093,1.03,0.179,1.545,0.27
		c0.748,0.129,1.495,0.259,2.244,0.379c0.538,0.086,1.078,0.166,1.616,0.249c0.731,0.108,1.461,0.218,2.194,0.318
		c0.548,0.077,1.099,0.149,1.649,0.22c0.728,0.094,1.455,0.185,2.184,0.27c0.552,0.063,1.103,0.126,1.656,0.186
		c0.734,0.078,1.468,0.151,2.202,0.221c0.549,0.052,1.099,0.104,1.648,0.15c0.747,0.064,1.493,0.12,2.241,0.176
		c0.539,0.039,1.077,0.079,1.615,0.114c0.779,0.049,1.559,0.09,2.339,0.129c0.508,0.026,1.014,0.057,1.523,0.077
		c0.864,0.037,1.727,0.063,2.591,0.087c0.427,0.012,0.854,0.029,1.282,0.039c1.291,0.026,2.585,0.042,3.88,0.042
		c1.283,0,2.564-0.015,3.846-0.042c0.417-0.009,0.833-0.025,1.251-0.037c0.863-0.024,1.724-0.049,2.585-0.086
		c0.497-0.02,0.993-0.048,1.488-0.074c0.783-0.039,1.562-0.079,2.341-0.128c0.527-0.033,1.054-0.073,1.58-0.111
		c0.748-0.055,1.493-0.108,2.238-0.172c0.542-0.047,1.083-0.097,1.624-0.147c0.73-0.069,1.459-0.14,2.189-0.217
		c0.544-0.059,1.089-0.119,1.632-0.183c0.726-0.084,1.452-0.172,2.176-0.265c0.541-0.068,1.081-0.139,1.619-0.212
		c0.733-0.102,1.464-0.207,2.195-0.318c0.526-0.077,1.052-0.156,1.578-0.239c0.753-0.119,1.504-0.248,2.256-0.377
		c0.498-0.086,1-0.169,1.498-0.26c0.807-0.146,1.611-0.302,2.416-0.46c0.439-0.085,0.881-0.166,1.318-0.255
		c0.988-0.2,1.977-0.414,2.961-0.632c0.252-0.056,0.506-0.105,0.756-0.163c1.24-0.278,2.475-0.571,3.709-0.878
		c0.309-0.076,0.617-0.159,0.924-0.237c0.92-0.234,1.842-0.471,2.758-0.719c0.443-0.12,0.883-0.247,1.326-0.37
		c0.781-0.219,1.563-0.438,2.342-0.667c0.482-0.142,0.963-0.29,1.445-0.437c0.736-0.223,1.473-0.447,2.205-0.68
		c0.5-0.159,0.996-0.323,1.494-0.485c0.432-0.141,0.863-0.274,1.291-0.418c0.25,0.615,0.494,1.232,0.736,1.849
		c0.207,0.527,0.418,1.054,0.619,1.582c0.33,0.869,0.646,1.742,0.961,2.615c0.16,0.446,0.33,0.888,0.486,1.334
		c0.457,1.302,0.9,2.607,1.326,3.918c0.008,0.032,0.02,0.065,0.029,0.098c0.428,1.315,0.832,2.635,1.227,3.96
		c0.131,0.45,0.254,0.902,0.383,1.353c0.256,0.892,0.512,1.783,0.752,2.678c0.145,0.538,0.279,1.08,0.416,1.62
		c0.211,0.813,0.42,1.624,0.619,2.44c0.137,0.574,0.266,1.151,0.4,1.728c0.18,0.785,0.359,1.569,0.527,2.357
		c0.131,0.595,0.25,1.194,0.373,1.792c0.156,0.772,0.311,1.545,0.457,2.319c0.113,0.608,0.223,1.218,0.332,1.828
		c0.135,0.77,0.266,1.54,0.393,2.313c0.102,0.613,0.197,1.229,0.289,1.845c0.117,0.773,0.229,1.549,0.332,2.325
		c0.086,0.614,0.168,1.229,0.246,1.846c0.096,0.786,0.188,1.573,0.275,2.361c0.066,0.607,0.135,1.215,0.195,1.824
		c0.08,0.809,0.152,1.618,0.219,2.43c0.051,0.591,0.105,1.182,0.148,1.774c0.064,0.849,0.115,1.699,0.164,2.549
		c0.033,0.558,0.072,1.115,0.1,1.673c0.047,0.945,0.078,1.894,0.111,2.842c0.014,0.466,0.037,0.93,0.047,1.396
		c0.037,1.416,0.055,2.835,0.055,4.257c0,1.3-0.016,2.598-0.047,3.894c-0.008,0.431-0.027,0.859-0.041,1.29
		c-0.025,0.864-0.053,1.729-0.092,2.593c-0.023,0.511-0.055,1.021-0.084,1.531c-0.041,0.781-0.086,1.563-0.137,2.342
		c-0.037,0.539-0.082,1.078-0.123,1.617c-0.014,0.157-0.027,0.314-0.041,0.472C293.922,233.042,291.586,232.985,289.18,232.985z
		 M327.572,120.95c-0.051,0.038-0.102,0.077-0.152,0.116c-1.236,0.918-2.484,1.814-3.742,2.697
		c-0.303,0.214-0.607,0.424-0.912,0.636c-1.266,0.875-2.537,1.738-3.824,2.578c-0.033,0.023-0.068,0.044-0.102,0.065
		c-1.303,0.85-2.621,1.674-3.947,2.485c-0.311,0.188-0.619,0.379-0.93,0.566c-1.318,0.795-2.646,1.576-3.986,2.335
		c-0.186,0.105-0.375,0.207-0.563,0.313c-1.223,0.686-2.453,1.354-3.693,2.009c-0.285,0.15-0.568,0.304-0.855,0.452
		c-1.359,0.709-2.729,1.4-4.109,2.07c-0.275,0.134-0.553,0.265-0.828,0.396c-1.256,0.602-2.516,1.188-3.787,1.76
		c-0.221,0.099-0.438,0.2-0.66,0.298c-1.404,0.624-2.82,1.226-4.244,1.812c-0.145,0.059-0.291,0.117-0.436,0.176
		c-0.053-0.108-0.109-0.216-0.164-0.325c-0.193-0.405-0.4-0.805-0.6-1.207c-0.645-1.311-1.303-2.611-1.98-3.905
		c-0.297-0.566-0.602-1.129-0.906-1.693c-0.615-1.148-1.244-2.287-1.883-3.419c-0.318-0.56-0.633-1.119-0.955-1.675
		c-0.719-1.238-1.455-2.466-2.203-3.687c-0.246-0.402-0.484-0.81-0.734-1.211c-1.004-1.608-2.031-3.201-3.084-4.776
		c-0.211-0.316-0.432-0.627-0.646-0.942c-0.85-1.252-1.709-2.496-2.59-3.727c-0.367-0.514-0.742-1.021-1.115-1.532
		c-0.764-1.045-1.539-2.081-2.326-3.108c-0.395-0.519-0.791-1.036-1.193-1.551c-0.85-1.085-1.713-2.157-2.586-3.224
		c-0.334-0.405-0.66-0.815-0.996-1.218c-1.211-1.448-2.441-2.881-3.695-4.291c-0.209-0.235-0.426-0.464-0.637-0.697
		c-1.055-1.173-2.123-2.331-3.209-3.477c-0.434-0.458-0.873-0.907-1.311-1.36c-0.896-0.926-1.802-1.843-2.719-2.749
		c-0.477-0.472-0.954-0.942-1.435-1.408c-0.961-0.928-1.933-1.844-2.914-2.752c-0.421-0.389-0.836-0.782-1.262-1.169
		c-1.399-1.269-2.813-2.521-4.252-3.748c-0.166-0.14-0.334-0.273-0.5-0.413c-1.086-0.918-2.177-1.831-3.287-2.724
		C274.359,82.952,304.393,97.334,327.572,120.95z M215.948,92.312c0.578-0.498,1.161-0.989,1.746-1.478
		c0.829-0.694,1.664-1.381,2.507-2.06c0.599-0.482,1.202-0.963,1.809-1.437c0.857-0.671,1.723-1.331,2.593-1.987
		c0.606-0.455,1.211-0.911,1.825-1.359c0.252-0.186,0.512-0.361,0.765-0.546c0.257,0.185,0.519,0.364,0.774,0.552
		c0.613,0.448,1.222,0.907,1.829,1.363c0.872,0.656,1.739,1.318,2.598,1.989c0.608,0.478,1.214,0.96,1.816,1.444
		c0.844,0.681,1.681,1.368,2.511,2.064c0.586,0.489,1.17,0.98,1.75,1.479c0.841,0.726,1.672,1.461,2.499,2.201
		c0.542,0.487,1.089,0.97,1.625,1.463c0.881,0.811,1.748,1.637,2.61,2.466c0.459,0.439,0.924,0.873,1.377,1.318
		c1.125,1.104,2.23,2.226,3.322,3.359c0.176,0.182,0.357,0.358,0.533,0.541c1.265,1.326,2.505,2.674,3.726,4.037
		c0.354,0.396,0.696,0.805,1.045,1.203c0.856,0.978,1.708,1.957,2.543,2.953c0.436,0.521,0.857,1.05,1.287,1.575
		c0.73,0.894,1.455,1.792,2.168,2.7c0.447,0.572,0.885,1.151,1.328,1.729c0.672,0.885,1.34,1.774,1.998,2.674
		c0.436,0.597,0.867,1.197,1.297,1.801c0.643,0.905,1.275,1.815,1.898,2.732c0.412,0.605,0.826,1.21,1.229,1.82
		c0.631,0.951,1.244,1.91,1.854,2.874c0.375,0.589,0.75,1.174,1.117,1.77c0.648,1.053,1.277,2.119,1.904,3.188
		c0.301,0.514,0.611,1.021,0.906,1.538c0.826,1.444,1.629,2.903,2.412,4.373c0.08,0.15,0.166,0.298,0.246,0.448
		c0.813,1.54,1.598,3.1,2.365,4.667c-0.176,0.058-0.348,0.117-0.523,0.175c-0.48,0.155-0.961,0.306-1.443,0.457
		c-0.643,0.202-1.289,0.403-1.936,0.598c-0.492,0.147-0.984,0.293-1.477,0.436c-0.643,0.188-1.285,0.37-1.932,0.549
		c-0.492,0.137-0.984,0.273-1.477,0.405c-0.66,0.176-1.318,0.346-1.98,0.515c-0.479,0.121-0.955,0.245-1.438,0.362
		c-0.695,0.172-1.391,0.334-2.09,0.496c-0.447,0.103-0.891,0.209-1.34,0.309c-0.801,0.18-1.609,0.349-2.414,0.516
		c-0.344,0.07-0.686,0.146-1.029,0.217c-1.145,0.229-2.291,0.448-3.441,0.653c-0.269,0.049-0.542,0.091-0.811,0.138
		c-0.886,0.154-1.774,0.306-2.664,0.445c-0.431,0.068-0.864,0.128-1.296,0.193c-0.731,0.108-1.463,0.217-2.197,0.317
		c-0.476,0.064-0.955,0.123-1.433,0.184c-0.692,0.089-1.386,0.173-2.08,0.254c-0.494,0.056-0.989,0.108-1.484,0.161
		c-0.685,0.072-1.371,0.14-2.057,0.204c-0.496,0.046-0.991,0.09-1.49,0.131c-0.693,0.059-1.388,0.112-2.084,0.161
		c-0.487,0.035-0.975,0.07-1.463,0.101c-0.719,0.045-1.44,0.082-2.162,0.119c-0.463,0.023-0.927,0.048-1.391,0.068
		c-0.792,0.032-1.586,0.056-2.381,0.078c-0.391,0.011-0.782,0.026-1.175,0.034c-1.185,0.024-2.373,0.039-3.561,0.039
		c-1.202,0-2.403-0.015-3.601-0.04c-0.391-0.008-0.778-0.023-1.167-0.035c-0.81-0.021-1.616-0.047-2.424-0.08
		c-0.465-0.02-0.929-0.046-1.394-0.068c-0.731-0.038-1.463-0.076-2.192-0.122c-0.491-0.031-0.981-0.067-1.47-0.103
		c-0.705-0.052-1.41-0.104-2.115-0.165c-0.498-0.042-0.997-0.087-1.494-0.133c-0.697-0.065-1.393-0.137-2.09-0.211
		c-0.493-0.052-0.987-0.104-1.48-0.163c-0.711-0.08-1.421-0.17-2.129-0.261c-0.473-0.061-0.946-0.12-1.417-0.184
		c-0.751-0.104-1.501-0.216-2.25-0.328c-0.426-0.065-0.854-0.126-1.279-0.193c-0.895-0.142-1.785-0.296-2.676-0.452
		c-0.277-0.049-0.558-0.093-0.834-0.144c-1.168-0.21-2.334-0.435-3.496-0.67c-0.285-0.059-0.57-0.123-0.854-0.183
		c-0.876-0.183-1.751-0.368-2.625-0.565c-0.423-0.096-0.845-0.198-1.267-0.296c-0.733-0.172-1.467-0.344-2.198-0.526
		c-0.463-0.114-0.925-0.234-1.388-0.354c-0.691-0.177-1.382-0.357-2.071-0.544c-0.473-0.129-0.946-0.261-1.417-0.393
		c-0.682-0.191-1.363-0.387-2.042-0.587c-0.467-0.138-0.936-0.277-1.403-0.42c-0.688-0.208-1.373-0.423-2.059-0.642
		c-0.451-0.144-0.903-0.286-1.354-0.434c-0.204-0.067-0.408-0.139-0.613-0.206c0.762-1.552,1.542-3.095,2.351-4.62
		c0.15-0.283,0.311-0.56,0.462-0.842c0.716-1.331,1.443-2.654,2.193-3.964c0.324-0.567,0.665-1.126,0.997-1.69
		c0.596-1.013,1.196-2.027,1.812-3.028c0.384-0.62,0.779-1.233,1.169-1.849c0.592-0.932,1.189-1.86,1.798-2.779
		c0.417-0.63,0.841-1.252,1.268-1.875c0.61-0.896,1.229-1.785,1.858-2.667c0.438-0.616,0.879-1.229,1.326-1.839
		c0.646-0.882,1.304-1.755,1.966-2.625c0.447-0.587,0.894-1.174,1.349-1.756c0.704-0.897,1.422-1.782,2.143-2.665
		c0.435-0.531,0.864-1.066,1.304-1.592c0.828-0.989,1.675-1.961,2.526-2.93c0.352-0.402,0.697-0.813,1.054-1.211
		c1.216-1.36,2.455-2.703,3.716-4.023c0.182-0.19,0.372-0.373,0.554-0.563c1.083-1.123,2.179-2.235,3.293-3.329
		c0.453-0.444,0.918-0.877,1.376-1.315c0.861-0.826,1.725-1.649,2.604-2.457c0.535-0.492,1.08-0.974,1.621-1.46
		C214.279,93.768,215.108,93.032,215.948,92.312z M212.669,79.807c-0.979,0.79-1.94,1.6-2.901,2.407
		c-0.267,0.227-0.541,0.443-0.805,0.669c-1.429,1.218-2.833,2.46-4.222,3.719c-0.415,0.376-0.82,0.762-1.23,1.143
		c-0.984,0.909-1.96,1.826-2.923,2.758c-0.485,0.47-0.967,0.944-1.448,1.42c-0.901,0.892-1.791,1.792-2.673,2.702
		c-0.451,0.465-0.905,0.929-1.351,1.399c-1.033,1.088-2.049,2.191-3.053,3.305c-0.259,0.286-0.524,0.567-0.781,0.855
		c-1.247,1.4-2.469,2.821-3.671,4.259c-0.33,0.396-0.651,0.799-0.978,1.198c-0.876,1.064-1.743,2.14-2.594,3.226
		c-0.403,0.514-0.801,1.034-1.198,1.553c-0.781,1.02-1.55,2.047-2.311,3.084c-0.375,0.512-0.752,1.023-1.122,1.54
		c-0.868,1.213-1.719,2.438-2.558,3.672c-0.222,0.328-0.453,0.65-0.675,0.98c-1.05,1.57-2.075,3.157-3.077,4.76
		c-0.241,0.387-0.473,0.779-0.71,1.167c-0.755,1.23-1.5,2.467-2.226,3.715c-0.317,0.546-0.627,1.094-0.938,1.643
		c-0.648,1.143-1.283,2.292-1.906,3.448c-0.296,0.549-0.59,1.096-0.881,1.646c-0.692,1.318-1.366,2.648-2.027,3.984
		c-0.184,0.37-0.373,0.736-0.555,1.107c-0.052,0.11-0.109,0.217-0.163,0.326c-0.132-0.055-0.265-0.108-0.398-0.163
		c-1.41-0.585-2.81-1.185-4.201-1.807c-0.223-0.102-0.447-0.206-0.672-0.308c-1.25-0.565-2.493-1.146-3.727-1.743
		c-0.266-0.128-0.532-0.254-0.795-0.383c-1.366-0.668-2.72-1.354-4.065-2.06c-0.279-0.145-0.553-0.294-0.831-0.44
		c-1.233-0.655-2.459-1.324-3.677-2.01c-0.171-0.098-0.346-0.19-0.518-0.289c-1.329-0.755-2.646-1.532-3.954-2.324
		c-0.296-0.18-0.591-0.36-0.885-0.541c-1.315-0.807-2.623-1.626-3.916-2.47c-0.009-0.005-0.019-0.011-0.028-0.017
		c-1.294-0.847-2.575-1.717-3.849-2.599c-0.295-0.205-0.591-0.411-0.888-0.618c-1.243-0.874-2.478-1.761-3.699-2.668
		c-0.046-0.034-0.091-0.069-0.136-0.104C150.446,97.53,180.216,83.181,212.669,79.807z M119.574,129.66
		c0.13,0.099,0.264,0.189,0.395,0.287c1.341,1.006,2.69,1.996,4.056,2.963c0.182,0.129,0.368,0.255,0.55,0.384
		c1.271,0.893,2.552,1.767,3.844,2.625c0.237,0.157,0.473,0.316,0.709,0.473c1.395,0.918,2.803,1.813,4.221,2.689
		c0.277,0.171,0.553,0.338,0.832,0.507c1.386,0.848,2.782,1.68,4.189,2.488c0.084,0.049,0.167,0.099,0.251,0.146
		c1.468,0.839,2.952,1.651,4.441,2.448c0.31,0.166,0.618,0.33,0.927,0.493c1.484,0.782,2.977,1.548,4.483,2.288
		c0.157,0.077,0.317,0.15,0.474,0.229c1.404,0.684,2.819,1.348,4.242,1.997c0.291,0.132,0.579,0.267,0.871,0.397
		c1.511,0.68,3.03,1.336,4.562,1.974c0.079,0.032,0.156,0.068,0.234,0.103l-0.044,0.098l0.101,0.039
		c-0.233,0.573-0.45,1.149-0.676,1.726c-0.221,0.563-0.446,1.125-0.66,1.69c-0.34,0.892-0.666,1.788-0.991,2.684
		c-0.187,0.517-0.381,1.031-0.563,1.549c-0.367,1.044-0.718,2.093-1.066,3.144c-0.125,0.374-0.257,0.745-0.378,1.12
		c-0.462,1.429-0.908,2.86-1.333,4.298c-0.083,0.278-0.156,0.56-0.237,0.838c-0.337,1.158-0.668,2.317-0.981,3.481
		c-0.138,0.513-0.263,1.027-0.396,1.54c-0.243,0.934-0.484,1.868-0.711,2.806c-0.142,0.585-0.274,1.174-0.408,1.761
		c-0.203,0.87-0.403,1.74-0.59,2.614c-0.133,0.619-0.257,1.241-0.384,1.862c-0.172,0.845-0.343,1.691-0.503,2.541
		c-0.121,0.639-0.234,1.278-0.348,1.919c-0.148,0.838-0.293,1.676-0.429,2.516c-0.105,0.647-0.206,1.296-0.305,1.943
		c-0.126,0.84-0.247,1.682-0.362,2.522c-0.09,0.65-0.176,1.303-0.258,1.956c-0.107,0.847-0.203,1.694-0.297,2.544
		c-0.072,0.648-0.146,1.295-0.209,1.943c-0.086,0.87-0.163,1.74-0.237,2.61c-0.054,0.632-0.11,1.262-0.158,1.894
		c-0.068,0.914-0.123,1.828-0.176,2.743c-0.036,0.594-0.077,1.185-0.106,1.778c-0.051,1.01-0.084,2.023-0.118,3.037
		c-0.017,0.502-0.04,1.004-0.053,1.508c-0.037,1.515-0.058,3.033-0.058,4.556c0,1.396,0.019,2.793,0.049,4.187
		c0.011,0.461,0.032,0.921,0.045,1.382c0.029,0.932,0.057,1.863,0.101,2.793c0.024,0.547,0.059,1.093,0.089,1.639
		c0.046,0.841,0.094,1.683,0.15,2.522c0.04,0.582,0.087,1.161,0.134,1.742c0.063,0.803,0.128,1.606,0.202,2.408
		c0.055,0.595,0.114,1.187,0.176,1.78c0.08,0.787,0.164,1.574,0.254,2.36c0.068,0.597,0.142,1.193,0.217,1.791
		c0.098,0.78,0.202,1.56,0.31,2.34c0.083,0.594,0.167,1.188,0.256,1.779c0.116,0.783,0.24,1.564,0.368,2.345
		c0.095,0.585,0.19,1.168,0.292,1.752c0.138,0.794,0.284,1.585,0.434,2.378c0.105,0.565,0.208,1.13,0.32,1.693
		c0.164,0.827,0.338,1.652,0.514,2.477c0.111,0.524,0.217,1.047,0.333,1.569c0.205,0.922,0.422,1.841,0.641,2.759
		c0.101,0.423,0.195,0.845,0.299,1.266c0.329,1.337,0.672,2.671,1.033,3.999c0.001,0.003,0.001,0.007,0.002,0.009
		c-8.566,8.354-9.802,16.085-9.802,19.809v2.291c-0.276,0.149-0.556,0.289-0.831,0.44c-0.325,0.178-0.647,0.359-0.972,0.537
		c-1.503,0.835-2.998,1.687-4.477,2.564c-0.03,0.018-0.06,0.034-0.09,0.054c-1.5,0.891-2.983,1.814-4.458,2.75
		c-0.315,0.201-0.631,0.401-0.946,0.604c-1.44,0.929-2.869,1.874-4.284,2.843c-0.222,0.153-0.441,0.31-0.663,0.461
		c-1.304,0.904-2.597,1.825-3.878,2.763c-0.228,0.167-0.458,0.329-0.684,0.497c-1.389,1.028-2.763,2.078-4.124,3.146
		c-0.12,0.094-0.242,0.182-0.361,0.274c-19.023-24.523-29.436-54.84-29.436-86.002C87.131,186.501,98.614,154.842,119.574,129.66z
		 M124.123,314.354c0.089-0.069,0.179-0.142,0.268-0.212c1.244-0.972,2.499-1.924,3.766-2.858c0.268-0.197,0.539-0.393,0.808-0.589
		c1.179-0.857,2.367-1.701,3.564-2.528c0.164-0.112,0.325-0.228,0.488-0.341c1.311-0.896,2.635-1.769,3.969-2.626
		c0.303-0.195,0.606-0.389,0.912-0.583c1.354-0.856,2.714-1.701,4.09-2.52c0.068-0.04,0.136-0.078,0.204-0.118
		c1.331-0.789,2.674-1.554,4.025-2.304c0.3-0.167,0.601-0.335,0.901-0.499c0.534-0.293,1.078-0.568,1.615-0.856
		c4.838,7.878,14.796,20.504,31.437,26.517c0.228,0.313,0.45,0.633,0.681,0.945c0.423,0.576,0.85,1.15,1.281,1.721
		c0.833,1.103,1.683,2.192,2.541,3.275c0.394,0.498,0.781,0.998,1.181,1.491c0.824,1.017,1.673,2.012,2.518,3.012
		c-20.281-1.968-41.812-8.636-60.334-16.844C126.708,317.105,125.401,315.745,124.123,314.354z M263.129,320.189
		c-0.734,0.978-1.486,1.939-2.242,2.899c-0.377,0.475-0.748,0.953-1.125,1.427c-11.988,5.126-31.175,10.673-55.139,11.302
		c-0.429-0.446-0.867-0.886-1.292-1.336c-0.263-0.277-0.535-0.547-0.793-0.825c-1.329-1.424-2.629-2.871-3.905-4.339
		c-0.315-0.364-0.617-0.739-0.93-1.104c-0.012-0.014-0.023-0.028-0.036-0.042c0.816,0.031,1.634,0.061,2.472,0.061
		c22.435,0,49.165-5.142,63.111-8.207C263.209,320.08,263.17,320.135,263.129,320.189z M454.168,394.552l-0.742,1.098l-1.303,0.38
		c-0.289,0.086-29.447,8.588-78.25,8.588c-24.916,0-49.803,7.725-73.922,15.211c-21.811,6.76-42.412,13.145-61.202,13.145
		c-38.91,0-59.339-10.215-96.477-28.784l-1.752-0.875C98.297,382.2,22.854,323.962,13.125,294.787
		c-2.125-6.387-1.907-11.426,0.647-14.974c2.312-3.204,6.188-4.831,11.519-4.831c15.208,0,40.027,13.454,52.057,25.482
		c8.604,8.604,24.879,18.948,44.368,27.752c0.004,0.004,0.007,0.008,0.011,0.012c0.273,0.124,0.554,0.242,0.829,0.365
		c0.967,0.434,1.939,0.863,2.921,1.287c0.47,0.203,0.943,0.403,1.416,0.604c0.948,0.403,1.899,0.802,2.859,1.196
		c0.508,0.209,1.02,0.415,1.531,0.622c0.938,0.378,1.879,0.752,2.827,1.121c0.537,0.209,1.076,0.415,1.617,0.622
		c0.938,0.357,1.879,0.71,2.826,1.058c0.554,0.203,1.109,0.405,1.666,0.605c0.946,0.34,1.895,0.674,2.848,1.004
		c0.563,0.194,1.125,0.387,1.69,0.578c0.958,0.323,1.918,0.64,2.882,0.951c0.565,0.183,1.131,0.365,1.699,0.543
		c0.973,0.308,1.949,0.605,2.927,0.899c0.562,0.169,1.123,0.338,1.686,0.502c0.995,0.291,1.99,0.571,2.988,0.848
		c0.358,0.1,0.714,0.207,1.073,0.304c-0.009-0.006-0.019-0.012-0.028-0.017c14.072,3.824,28.413,6.208,41.827,6.246
		c0.001,0.001,0.002,0.002,0.003,0.003c0.107,0,0.217,0.003,0.324,0.003h0l0,0c0,0,0,0,0,0c0.002,0,0.005,0,0.008,0
		c1.388,0,2.761-0.017,4.122-0.047c0.207-0.005,0.409-0.015,0.616-0.021c1.172-0.03,2.337-0.067,3.488-0.119
		c0.112-0.005,0.221-0.013,0.332-0.018c1.247-0.059,2.481-0.128,3.704-0.21c0.035-0.002,0.069-0.005,0.104-0.008
		c1.282-0.087,2.55-0.187,3.805-0.299c0.01,0,0.021-0.001,0.031-0.002h0c9.846-0.879,18.818-2.496,26.759-4.503
		c0,0,0,0.001-0.001,0.001c0.043-0.011,0.083-0.022,0.126-0.033c1.079-0.273,2.136-0.554,3.175-0.841
		c0.204-0.056,0.402-0.112,0.604-0.17c0.904-0.252,1.793-0.51,2.667-0.771c0.206-0.062,0.411-0.123,0.615-0.185
		c0.915-0.279,1.813-0.562,2.693-0.848c0.118-0.039,0.239-0.076,0.356-0.115c3.078-1.01,5.938-2.062,8.571-3.127
		c0.086-0.035,0.17-0.07,0.256-0.104c0.785-0.32,1.551-0.642,2.295-0.963c0.094-0.041,0.188-0.081,0.281-0.122
		c0.773-0.336,1.525-0.673,2.252-1.009c0.02-0.009,0.041-0.019,0.061-0.027l0.002-0.001c6.725-3.114,11.426-6.153,13.74-8.351
		l3.855-3.661l-3.281-4.186c-0.375-0.479-0.828-0.979-1.332-1.49l0,0l0,0c-2.732-2.773-7.129-5.905-10.734-8.04l-2.016-1.192
		l-2.281,0.528c-9.011,2.087-40.317,8.897-64.873,8.897c-4.659,0-8.878-0.623-12.71-1.663c-2.332-0.634-4.516-1.427-6.558-2.339
		c-0.026-0.012-0.052-0.023-0.078-0.035c-1.469-0.66-2.862-1.383-4.185-2.152c-0.078-0.045-0.157-0.09-0.234-0.136
		c-0.403-0.237-0.8-0.479-1.19-0.726c-0.114-0.071-0.226-0.145-0.339-0.219c-0.646-0.415-1.271-0.841-1.88-1.275
		c-0.166-0.119-0.334-0.235-0.497-0.354c-0.278-0.205-0.549-0.411-0.819-0.619c-0.232-0.179-0.461-0.357-0.688-0.538
		c-0.229-0.183-0.459-0.365-0.683-0.549c-0.416-0.345-0.824-0.69-1.219-1.04c-0.156-0.137-0.305-0.276-0.458-0.415
		c-0.293-0.267-0.583-0.533-0.866-0.802c-0.153-0.145-0.306-0.29-0.456-0.437c-0.322-0.313-0.636-0.627-0.942-0.939
		c-0.082-0.085-0.169-0.169-0.25-0.253l0,0c-3.027-3.142-5.302-6.285-6.908-8.843c-0.253-0.402-0.488-0.79-0.708-1.161
		c-0.045-0.075-0.084-0.145-0.127-0.219c-0.169-0.289-0.333-0.571-0.481-0.837c-0.051-0.091-0.096-0.174-0.145-0.262
		c-0.13-0.236-0.257-0.468-0.371-0.682c-0.045-0.086-0.087-0.166-0.129-0.247c-0.106-0.202-0.207-0.396-0.296-0.575
		c-0.035-0.07-0.07-0.139-0.103-0.205c-0.086-0.175-0.167-0.338-0.237-0.485c-0.022-0.047-0.046-0.097-0.067-0.141
		c-0.075-0.157-0.14-0.299-0.193-0.417c-0.006-0.015-0.016-0.033-0.022-0.047c-0.121-0.269-0.185-0.424-0.191-0.438l-0.664-1.827
		l0,0l0-0.001l-1.248-0.814c0.002-0.013,0.006-0.026,0.009-0.038c0.029-0.137,0.063-0.282,0.102-0.435
		c0.01-0.038,0.02-0.077,0.03-0.116c0.042-0.16,0.091-0.33,0.146-0.507c0.009-0.028,0.017-0.056,0.026-0.084
		c0.063-0.197,0.133-0.404,0.212-0.62c0.006-0.016,0.011-0.03,0.017-0.047c0.085-0.229,0.181-0.468,0.287-0.715
		c0.326-0.76,0.759-1.61,1.332-2.533c0.201-0.321,0.418-0.653,0.655-0.993c0.006-0.008,0.012-0.016,0.017-0.023
		c0.238-0.342,0.495-0.691,0.773-1.048c0.004-0.006,0.008-0.011,0.012-0.017c0.281-0.36,0.583-0.729,0.907-1.104
		c0.002-0.002,0.003-0.004,0.005-0.006c1.633-1.886,3.835-3.939,6.8-6.062c9.763-6.981,27.813-14.68,61.185-19.443
		c28.925-4.137,47.45-6.379,62.469-6.379c1.936,0,3.824,0.041,5.682,0.119c0.969,0.041,1.93,0.094,2.883,0.156
		c0.076,0.005,0.152,0.011,0.23,0.016c0.928,0.063,1.848,0.135,2.766,0.219c0.008,0.001,0.018,0.001,0.027,0.002
		c0.928,0.085,1.85,0.182,2.768,0.288c0.098,0.011,0.195,0.023,0.293,0.034c0.9,0.107,1.801,0.223,2.697,0.351l0,0
		c14.572,2.077,28.693,6.947,49.01,15.071c1.777,0.712,3.582,1.407,5.396,2.097l0,0c0.008,0.003,0.014,0.005,0.02,0.008
		c1.719,0.651,3.455,1.293,5.203,1.923c0.158,0.059,0.318,0.116,0.477,0.173c1.707,0.614,3.426,1.219,5.156,1.813
		c0.047,0.017,0.094,0.033,0.143,0.05c0,0,0,0,0-0.001c42.227,14.471,90.855,22.928,117.555,22.928c4.41,0,7.941,1.911,9.695,5.24
		l0.002,0.001C504.027,304.36,494.752,335.291,454.168,394.552z"/>
</g>
</svg>
