<?xml version="1.0" encoding="utf-8"?>
<!-- Generator: Adobe Illustrator 15.1.0, SVG Export Plug-In . SVG Version: 6.00 Build 0)  -->
<!DOCTYPE svg PUBLIC "-//W3C//DTD SVG 1.1//EN" "http://www.w3.org/Graphics/SVG/1.1/DTD/svg11.dtd">
<svg version="1.1" id="Calque_1" xmlns="http://www.w3.org/2000/svg" xmlns:xlink="http://www.w3.org/1999/xlink" x="0px" y="0px"
	 width="512px" height="512px" viewBox="0 0 512 512" enable-background="new 0 0 512 512" xml:space="preserve">
<g>
	<path fill="#010101" d="M499.234,135.354H309.73v-27.688c0-4.966-2.917-9.519-7.43-11.595c-4.514-2.079-9.865-1.333-13.642,1.899
		l-73.322,62.846v-53.15c0-4.966-2.917-9.519-7.435-11.599c-4.518-2.074-9.875-1.328-13.635,1.903l-74.343,63.722v-54.026
		c0-4.966-2.916-9.519-7.435-11.599c-4.518-2.074-9.875-1.328-13.635,1.903L4.455,178.883C1.623,181.316,0,184.848,0,188.574
		v215.754c0,7.039,5.726,12.766,12.766,12.766h94.393c0.171,0,0.341-0.005,0.51-0.015c0.169,0.01,0.34,0.015,0.51,0.015h391.056
		c7.039,0,12.766-5.727,12.766-12.766V148.12C512,141.081,506.273,135.354,499.234,135.354 M296.494,107.121
		c0.213-0.183,0.515-0.224,0.77-0.107c0.254,0.118,0.42,0.374,0.42,0.652v25.233h-0.071v272.149h-82.275V176.683L296.494,107.121z
		 M202.109,107.114c0.207-0.178,0.508-0.217,0.761-0.1c0.255,0.118,0.419,0.374,0.419,0.652v66.246v13.097v218.039l-83.366,0.001
		V177.558L202.109,107.114z M107.215,405.038l-94.449,0.009c-0.403,0-0.719-0.316-0.719-0.719V188.574
		c0-0.211,0.095-0.413,0.253-0.549l94.397-80.911c0.207-0.178,0.508-0.217,0.761-0.1c0.255,0.118,0.419,0.374,0.419,0.652v67.121
		v13.096V405.02l-0.209-0.015L107.215,405.038z M452.756,405.047H343.441V323.42c0-0.396,0.322-0.72,0.719-0.72h107.877
		c0.397,0,0.719,0.323,0.719,0.72V405.047z M499.953,404.328c0,0.402-0.315,0.719-0.719,0.719h-34.432V323.42
		c0-7.039-5.726-12.767-12.766-12.767H344.16c-7.039,0-12.766,5.728-12.766,12.767v81.627l-21.734,0.001V147.401h189.574
		c0.403,0,0.719,0.316,0.719,0.719V404.328z"/>
	<path fill="#010101" d="M381.409,178.495h-38.945c-6.39,0-11.587,5.199-11.587,11.586v77.89c0,6.39,5.197,11.587,11.587,11.587
		h38.945c6.388,0,11.587-5.197,11.587-11.587v-77.89C392.996,183.694,387.797,178.495,381.409,178.495 M380.949,267.512h-38.025
		v-76.97h38.025V267.512z"/>
	<path fill="#010101" d="M464.842,178.495h-38.943c-6.391,0-11.588,5.199-11.588,11.586v77.89c0,6.39,5.197,11.587,11.588,11.587
		h38.943c6.39,0,11.588-5.197,11.588-11.587v-77.89C476.43,183.694,471.231,178.495,464.842,178.495 M464.383,267.512h-38.025
		v-76.97h38.025V267.512z"/>
</g>
</svg>
