<?xml version="1.0" encoding="utf-8"?>
<!-- Generator: Adobe Illustrator 15.1.0, SVG Export Plug-In . SVG Version: 6.00 Build 0)  -->
<!DOCTYPE svg PUBLIC "-//W3C//DTD SVG 1.1//EN" "http://www.w3.org/Graphics/SVG/1.1/DTD/svg11.dtd">
<svg version="1.1" id="Calque_1" xmlns="http://www.w3.org/2000/svg" xmlns:xlink="http://www.w3.org/1999/xlink" x="0px" y="0px"
	 width="512px" height="512px" viewBox="0 0 512 512" enable-background="new 0 0 512 512" xml:space="preserve">
<g>
	<path d="M198.84,122.438c-4.153,0-7.719-3.159-8.117-7.37c-0.181-2.036-1.529-20.147,9.306-32.048
		c5.682-6.247,13.755-9.545,23.315-9.545c10.248,0.848,25.989-0.182,31.25-5.001c1-0.949,1.406-1.826,1.406-3.16
		c0-4.515,3.652-8.167,8.16-8.167s8.161,3.652,8.161,8.167c0,5.922-2.305,11.176-6.696,15.198
		c-12.611,11.545-39.919,9.53-42.992,9.262c-4.247,0.029-7.929,1.392-10.509,4.196c-5.102,5.581-5.428,16.031-5.131,19.598
		c0.384,4.479-2.928,8.443-7.407,8.842C199.333,122.424,199.093,122.438,198.84,122.438"/>
	<path d="M76.388,65.292c-4.153,0-7.719-3.16-8.117-7.37c-0.181-2.037-1.529-20.148,9.306-32.049
		c5.682-6.247,13.755-9.544,23.315-9.544c10.226,0.848,25.989-0.182,31.244-5.001c1.007-0.949,1.413-1.826,1.413-3.16
		c0-4.515,3.653-8.168,8.161-8.168c4.515,0,8.168,3.653,8.168,8.168c0,5.921-2.319,11.176-6.711,15.198
		c-12.603,11.545-39.911,9.53-42.984,9.262c-4.247,0.029-7.929,1.392-10.509,4.211c-5.109,5.566-5.436,16.017-5.138,19.582
		c0.391,4.479-2.921,8.443-7.407,8.842C76.88,65.277,76.641,65.292,76.388,65.292"/>
	<path d="M313.139,122.438c-4.16,0-7.726-3.159-8.132-7.37c-0.174-2.036-1.521-20.147,9.32-32.048
		c5.682-6.247,13.756-9.545,23.308-9.545c10.248,0.848,25.989-0.182,31.251-5.001c1-0.949,1.405-1.826,1.405-3.16
		c0-4.515,3.653-8.167,8.161-8.167c4.522,0,8.16,3.652,8.16,8.167c0,5.922-2.305,11.176-6.696,15.198
		c-12.61,11.545-39.934,9.53-42.991,9.262c-4.262,0.029-7.929,1.392-10.509,4.196c-5.103,5.581-5.436,16.031-5.132,19.598
		c0.377,4.479-2.928,8.443-7.406,8.842C313.617,122.424,313.385,122.438,313.139,122.438"/>
	<path d="M427.416,122.438c-4.146,0-7.712-3.159-8.117-7.37c-0.175-2.036-1.522-20.147,9.306-32.048
		c5.696-6.247,13.77-9.545,23.321-9.545c10.233,0.848,25.989-0.182,31.251-5.001c1-0.949,1.406-1.826,1.406-3.16
		c0-4.515,3.652-8.167,8.16-8.167c4.509,0,8.161,3.652,8.161,8.167c0,5.922-2.305,11.176-6.711,15.198
		c-12.597,11.545-39.919,9.53-42.978,9.262c-4.247,0.029-7.929,1.392-10.509,4.196c-5.102,5.581-5.436,16.031-5.131,19.598
		c0.377,4.479-2.928,8.443-7.407,8.842C427.908,122.424,427.677,122.438,427.416,122.438"/>
	<path d="M484.163,180.352c-2.914-1.333-2.914-0.854-5.335,1.203l-7.609,9.458v-35.418c0-9.276-10.494-14.661-19.771-14.661h-39.861
		c-9.262,0-14.581,5.385-14.581,14.661v98.398l-14.843,13.973v-80.207c0-3.188-3.711-6.081-6.61-7.407
		c-2.898-1.333-7.972-0.854-10.393,1.203l-12.683,9.458v-35.418c0-9.276-6.059-14.661-15.321-14.661h-39.846
		c-9.263,0-19.047,5.385-19.047,14.661v98.398l-14.843,13.973v-80.207c0-3.203-1.521-6.124-4.449-7.436
		c-2.928-1.319-9.146-0.798-11.553,1.341l-13.683,9.689v-35.759c0-9.276-1.609-14.661-10.871-14.661h-39.846
		c-9.276,0-23.496,5.385-23.496,14.661V256.66l-21.75,22.293L131.866,89.44c-0.174-4.377-2.094-7.878-6.486-7.878H35.584
		c-4.377,0-7.986,3.501-8.153,7.878L11.11,497.636c-0.094,2.218,0.725,7.32,2.269,8.93c1.529,1.594,3.652,5.435,5.877,5.435h122.452
		H256h114.306h114.277c4.522,0,1.479-9.493,1.479-14.016V187.759C486.062,184.57,487.032,181.678,484.163,180.352 M27.757,497.158
		L43.434,96.405h74.112l15.676,400.753H27.757z M174.365,155.109l44.528,0.485v49.413l-44.528,40.462V155.109z M248.579,497.158
		h-99.021l-7.226-199.087l106.247-97.782V497.158z M297.311,155.109l40.324,0.485v49.413l-40.73,34.91L297.311,155.109z
		 M367.32,497.158H263.421V289.477l103.899-83.962V497.158z M413.819,155.109l42.557,0.485v49.413l-41.847,34.91L413.819,155.109z
		 M471.219,497.158h-89.056V289.477l89.056-76.004V497.158z"/>
</g>
</svg>
