<?xml version="1.0" encoding="utf-8"?>
<!-- Generator: Adobe Illustrator 15.1.0, SVG Export Plug-In . SVG Version: 6.00 Build 0)  -->
<!DOCTYPE svg PUBLIC "-//W3C//DTD SVG 1.1//EN" "http://www.w3.org/Graphics/SVG/1.1/DTD/svg11.dtd">
<svg version="1.1" id="Calque_1" xmlns="http://www.w3.org/2000/svg" xmlns:xlink="http://www.w3.org/1999/xlink" x="0px" y="0px"
	 width="512px" height="512px" viewBox="0 0 512 512" enable-background="new 0 0 512 512" xml:space="preserve">
<g>
	<path fill="#010101" d="M93.506,243.392H55.788c-10.752,0-19.499,8.746-19.499,19.496v123.93c0,10.752,8.747,19.499,19.499,19.499
		h37.718c10.75,0,19.497-8.747,19.497-19.499v-123.93C113.003,252.138,104.256,243.392,93.506,243.392z M100.949,386.817
		c0,4.104-3.339,7.444-7.443,7.444H55.788c-4.104,0-7.444-3.34-7.444-7.444v-123.93c0-4.104,3.339-7.441,7.444-7.441h37.718
		c4.104,0,7.443,3.338,7.443,7.441V386.817z"/>
	<path fill="#010101" d="M200.372,200.09c-27.2,0-49.328,22.128-49.328,49.328c0,27.201,22.128,49.329,49.328,49.329
		s49.329-22.128,49.329-49.329C249.701,222.218,227.572,200.09,200.372,200.09z M200.372,286.692
		c-20.553,0-37.273-16.722-37.273-37.274s16.721-37.274,37.273-37.274c20.553,0,37.274,16.722,37.274,37.274
		S220.925,286.692,200.372,286.692z"/>
	<path fill="#010101" d="M512,356.034V105.418c0-43.451-35.345-78.801-78.787-78.801h-40.421c-33.346,0-61.897,20.837-73.379,50.168
		l-3.999-4.034c-1.132-1.141-2.672-1.784-4.279-1.784H89.612c-1.608,0-3.15,0.644-4.282,1.784L5.598,153.199
		c-5.29,4.928-7.014,12.447-4.384,19.213c1.31,3.356,3.542,6.123,6.34,8.067v298.837c0,3.329,2.698,6.027,6.027,6.027h122.133
		c3.328,0,6.027-2.698,6.027-6.027v-100.58c0-30.774,32.172-51.447,62.222-51.447c30.35,0,55.042,24.691,55.042,55.04v96.987
		c0,3.329,2.698,6.027,6.027,6.027h78.345c0.298,0.024,0.601,0.039,0.908,0.039H481.72c4.468,0,8.085-2.623,8.085-5.84
		c0-3.229-3.617-5.84-8.085-5.84h-35.645v-39.966C483.419,427.578,512,395.087,512,356.034z M394.732,434.805h38.48
		c0.271,0,0.538-0.018,0.808-0.021v38.919h-39.288V434.805z M392.792,38.671h40.421c36.797,0,66.732,29.944,66.732,66.747v250.616
		c0,36.787-29.936,66.716-66.732,66.716h-40.021h-0.399c-1.05,0-2.092-0.031-3.129-0.079c-0.646-0.032-1.288-0.082-1.93-0.132
		c-0.341-0.026-0.684-0.047-1.021-0.078c-0.846-0.079-1.687-0.174-2.522-0.284c-0.098-0.013-0.196-0.024-0.294-0.037
		c-0.925-0.125-1.846-0.268-2.759-0.43l0,0c-12.346-2.185-23.526-7.765-32.541-15.75l0,0c-2.934-2.6-5.636-5.453-8.074-8.525
		c-0.013-0.016-0.025-0.033-0.038-0.049c-0.807-1.018-1.586-2.059-2.333-3.124l0,0c-7.606-10.835-12.09-24.014-12.09-38.228V255.446
		v-12.055v-59.789v-0.001v-12.054v-0.001v-66.129c0-1.566,0.073-3.116,0.181-4.657c0.084-1.209,0.201-2.41,0.348-3.602
		c0.008-0.062,0.016-0.123,0.023-0.184c0.146-1.146,0.32-2.28,0.522-3.407c0.017-0.091,0.032-0.181,0.049-0.271
		c0.204-1.112,0.437-2.214,0.695-3.306c0.02-0.083,0.038-0.166,0.058-0.248c0.279-1.154,0.585-2.299,0.924-3.429l0,0
		C337.096,58.793,362.632,38.671,392.792,38.671z M323.939,394.262h-16.702c-4.104,0-7.441-3.34-7.441-7.443v-123.93
		c0-4.104,3.338-7.442,7.441-7.442h6.769v100.588C314.006,369.899,317.621,382.932,323.939,394.262z M13.852,161.983
		c0.073-0.065,0.145-0.134,0.214-0.204l78.059-78.758h216.498l6.909,6.971c-0.995,4.99-1.525,10.146-1.525,15.426v66.129H17.578
		c-2.321,0-4.288-1.347-5.131-3.508C11.604,165.868,12.142,163.548,13.852,161.983z M203.963,315.235
		c-35.871,0-74.276,25.517-74.276,63.501v94.553H19.609V183.603h294.397v59.789h-6.769c-10.75,0-19.496,8.746-19.496,19.497v123.93
		c0,10.751,8.746,19.498,19.496,19.498h24.961c12.109,14.563,29.358,24.704,48.938,27.621v39.352H271.06v-90.96
		C271.06,345.333,240.96,315.235,203.963,315.235z"/>
	<path fill="#010101" d="M395.769,357.608c3.903,0,7.063-3.166,7.063-7.077c0-5.836,4.752-10.579,10.594-10.579
		c3.903,0,7.062-3.168,7.062-7.077c0-3.897-3.158-7.063-7.062-7.063c-13.629,0-24.72,11.098-24.72,24.719
		C388.705,354.442,391.864,357.608,395.769,357.608z"/>
	<path fill="#010101" d="M413.425,402.466c28.637,0,51.935-23.297,51.935-51.936c0-28.637-23.298-51.934-51.935-51.934
		s-51.935,23.297-51.935,51.934C361.49,379.169,384.788,402.466,413.425,402.466z M413.425,310.651
		c21.99,0,39.881,17.89,39.881,39.879c0,21.991-17.891,39.881-39.881,39.881s-39.88-17.89-39.88-39.881
		C373.545,328.541,391.435,310.651,413.425,310.651z"/>
	<path fill="#010101" d="M395.769,238.145c3.903,0,7.063-3.173,7.063-7.062c0-5.851,4.752-10.595,10.594-10.595
		c3.903,0,7.062-3.167,7.062-7.076c0-3.898-3.158-7.063-7.062-7.063c-13.629,0-24.72,11.09-24.72,24.734
		C388.705,234.972,391.864,238.145,395.769,238.145z"/>
	<path fill="#010101" d="M413.425,283.002c28.637,0,51.935-23.291,51.935-51.919c0-28.646-23.298-51.95-51.935-51.95
		s-51.935,23.305-51.935,51.95C361.49,259.711,384.788,283.002,413.425,283.002z M413.425,191.188
		c21.99,0,39.881,17.896,39.881,39.896c0,21.982-17.891,39.864-39.881,39.864s-39.88-17.882-39.88-39.864
		C373.545,209.084,391.435,191.188,413.425,191.188z"/>
	<path fill="#010101" d="M395.769,118.666c3.903,0,7.063-3.172,7.063-7.076c0-5.841,4.752-10.579,10.594-10.579
		c3.903,0,7.062-3.168,7.062-7.077c0-3.898-3.158-7.049-7.062-7.049c-13.629,0-24.72,11.077-24.72,24.705
		C388.705,115.494,391.864,118.666,395.769,118.666z"/>
	<path fill="#010101" d="M413.425,163.538c28.637,0,51.935-23.304,51.935-51.947c0-28.63-23.298-51.922-51.935-51.922
		s-51.935,23.292-51.935,51.922C361.49,140.234,384.788,163.538,413.425,163.538z M413.425,71.724
		c21.99,0,39.881,17.885,39.881,39.867c0,21.996-17.891,39.893-39.881,39.893s-39.88-17.896-39.88-39.893
		C373.545,89.608,391.435,71.724,413.425,71.724z"/>
</g>
</svg>
