<?xml version="1.0" encoding="utf-8"?>
<!-- Generator: Adobe Illustrator 15.1.0, SVG Export Plug-In . SVG Version: 6.00 Build 0)  -->
<!DOCTYPE svg PUBLIC "-//W3C//DTD SVG 1.1//EN" "http://www.w3.org/Graphics/SVG/1.1/DTD/svg11.dtd">
<svg version="1.1" id="Calque_1" xmlns="http://www.w3.org/2000/svg" xmlns:xlink="http://www.w3.org/1999/xlink" x="0px" y="0px"
	 width="512px" height="512px" viewBox="0 0 512 512" enable-background="new 0 0 512 512" xml:space="preserve">
<g>
	<path d="M251.106,389.447c8.605,0,15.611-7.002,15.611-15.609c0-8.608-7.006-15.61-15.611-15.61s-15.609,7.002-15.609,15.61
		C235.497,382.445,242.501,389.447,251.106,389.447z M251.106,366.033c4.307,0,7.805,3.502,7.805,7.805s-3.498,7.805-7.805,7.805
		c-4.306,0-7.805-3.502-7.805-7.805S246.8,366.033,251.106,366.033z"/>
	<circle cx="36.824" cy="212.524" r="12.039"/>
	<circle cx="75.346" cy="212.524" r="12.039"/>
	<circle cx="113.87" cy="212.524" r="12.039"/>
	<circle cx="36.824" cy="294.385" r="12.039"/>
	<circle cx="75.346" cy="294.385" r="12.039"/>
	<circle cx="113.87" cy="294.385" r="12.039"/>
	<circle cx="36.824" cy="376.245" r="12.038"/>
	<circle cx="75.346" cy="376.245" r="12.038"/>
	<circle cx="113.87" cy="376.245" r="12.038"/>
	<path d="M293.621,133.651l-69.925,69.916c-2.301,2.297-2.301,6.023,0,8.338c1.15,1.148,2.655,1.726,4.163,1.726
		c1.506,0,3.012-0.578,4.162-1.726l69.926-69.939c2.301-2.3,2.301-6.026,0-8.315C299.646,131.345,295.92,131.345,293.621,133.651z"
		/>
	<path d="M483.268,105.423H224.179c-16.233,0-29.442,13.203-29.442,29.442v36.728H14.337c-7.514,0-13.628,6.116-13.628,13.632
		v49.784c0,7.515,6.114,13.63,13.628,13.63h180.399v4.815H14.337c-7.514,0-13.628,6.115-13.628,13.629v49.787
		c0,7.515,6.114,13.63,13.628,13.63h181.293c0.42,1.667,0.988,3.273,1.68,4.814H14.338c-7.515,0-13.629,6.115-13.629,13.631v49.784
		c0,7.515,6.114,13.631,13.629,13.631h261.664c7.515,0,13.628-6.116,13.628-13.631v-45.993h193.638
		c16.233,0,29.442-13.21,29.442-29.434V134.865C512.71,118.626,499.501,105.423,483.268,105.423z M14.337,239.008
		c-2.201,0-3.998-1.794-3.998-4v-49.784c0-2.206,1.796-4.001,3.998-4.001h180.399v57.785H14.337z M10.34,316.87v-49.787
		c0-2.205,1.796-3.998,3.998-3.998h180.399v57.783H14.337C12.136,320.868,10.34,319.075,10.34,316.87z M279.998,398.729
		c0,2.206-1.796,4-3.996,4H14.338c-2.201,0-3.998-1.794-3.998-4v-49.784c0-2.205,1.796-3.999,3.998-3.999h189.915
		c5.248,4.832,12.247,7.79,19.925,7.79h55.819V398.729z M500.935,323.303c0,9.727-7.926,17.665-17.667,17.665H287h-62.821
		c-0.628,0-1.249-0.035-1.859-0.1c-0.089-0.01-0.175-0.03-0.264-0.041c-0.53-0.065-1.057-0.143-1.571-0.255
		c-0.022-0.005-0.044-0.012-0.066-0.017c-3.556-0.789-6.704-2.664-9.112-5.241h-0.039c-1.315-1.412-2.403-3.033-3.203-4.814h0.02
		c-0.992-2.205-1.569-4.632-1.569-7.196v-2.436h-0.001v-57.783h0.001v-9.631h-0.001v-4.815h0.001v-9.631h-0.001v-57.785h0.001
		v-9.631h-0.001v-36.728c0-9.741,7.925-17.666,17.666-17.666h259.089c9.741,0,17.667,7.925,17.667,17.666V323.303z"/>
	<path d="M227.859,166.512c1.506,0,3.012-0.566,4.162-1.728l22.081-22.068c2.3-2.302,2.3-6.03,0-8.337
		c-2.299-2.298-6.025-2.298-8.326,0l-22.08,22.08c-2.301,2.31-2.301,6.03,0,8.325C224.846,165.946,226.352,166.512,227.859,166.512z
		"/>
	<path d="M406.719,399.843h-29.442v-29.441c0-3.249-2.633-5.88-5.888-5.88s-5.89,2.631-5.89,5.88v29.441h-23.554v-29.441
		c0-3.249-2.638-5.88-5.887-5.88c-3.254,0-5.89,2.631-5.89,5.88v29.441h-23.553c-3.255,0-5.889,2.628-5.889,5.89
		c0,3.26,2.634,5.888,5.889,5.888h100.103c3.256,0,5.889-2.628,5.889-5.888C412.607,402.471,409.975,399.843,406.719,399.843z"/>
</g>
</svg>
