<?xml version="1.0" encoding="utf-8"?>
<!-- Generator: Adobe Illustrator 15.1.0, SVG Export Plug-In . SVG Version: 6.00 Build 0)  -->
<!DOCTYPE svg PUBLIC "-//W3C//DTD SVG 1.1//EN" "http://www.w3.org/Graphics/SVG/1.1/DTD/svg11.dtd">
<svg version="1.1" id="Calque_1" xmlns="http://www.w3.org/2000/svg" xmlns:xlink="http://www.w3.org/1999/xlink" x="0px" y="0px"
	 width="512px" height="512px" viewBox="0 0 512 512" enable-background="new 0 0 512 512" xml:space="preserve">
<g>
	<path fill="#010101" d="M279.643,328.215c22.17-11.793,45.912-25.656,66.181-40.27c2.825-2.035,3.467-5.983,1.443-8.816
		c-2.024-2.837-5.96-3.49-8.773-1.448c-20.614,14.861-44.958,28.953-67.45,40.813c-0.769,0.231-1.464,0.603-2.063,1.085
		c-16.247,8.513-31.429,15.827-43.403,21.374c21.182-23.595,57.708-61.835,94.306-88.724c2.808-2.055,3.419-6.01,1.37-8.83
		c-2.049-2.813-5.99-3.436-8.798-1.363c-13.943,10.245-27.861,22.083-40.953,34.147c-2.454-12.877-6.489-36.09-7.322-53.481
		c-3.196-66.433,13.848-107.783,14.021-108.2c0.792-1.885,0.597-4.042-0.537-5.747c-1.133-1.705-3.041-2.73-5.085-2.73H80.885
		c-1.784,0-3.482,0.775-4.638,2.134c-1.163,1.36-1.669,3.16-1.395,4.913c0.101,0.656,10.152,65.135,10.152,109.929
		c0,36.959-2.391,46.641-6.016,61.295c-1.971,7.982-4.378,17.738-6.879,33.931H6.105c-3.375,0-6.105,2.73-6.105,6.104v116.142
		c0,3.373,2.73,6.104,6.105,6.104h145.744h0h145.147c1.896,0,3.679-0.884,4.835-2.385c1.157-1.49,1.55-3.445,1.066-5.282
		C302.771,438.422,290.113,390.146,279.643,328.215z M12.208,330.437h65.166h68.371v103.932H12.208V330.437z M157.954,434.367
		V324.332c0-1.477-0.523-2.83-1.394-3.885c-1.119-1.356-2.813-2.221-4.71-2.221H84.466c2.296-14.485,4.448-23.2,6.373-30.998
		c3.702-14.975,6.373-25.789,6.373-64.228c0-37.391-6.605-86.596-9.24-104.767h175.939c-5.086,15.774-14.445,52.723-11.93,105.064
		c1.101,22.84,7.229,54.042,9.021,62.766c-35.845,34.431-63.223,67.682-63.615,68.158c-1.833,2.241-1.913,5.443-0.198,7.775
		c1.209,1.647,3.11,2.561,5.059,2.561c0.803,0,1.617-0.153,2.395-0.482c0.49-0.2,28.85-12.043,63.63-29.919
		c7.962,46.296,17.003,84.518,20.884,100.21H157.954z"/>
	<path fill="#010101" d="M332.742,236.008c3.48,0,6.295-2.826,6.295-6.317c0-45.515,9.161-97.713,15.609-128.821
		c6.324,31.41,15.425,84.113,15.831,128.876c0.025,3.474,2.839,6.262,6.287,6.262h0.057c3.479-0.031,6.268-2.888,6.231-6.373
		c-0.63-70.004-21.966-158.506-22.182-159.394c-0.685-2.813-3.189-4.801-6.077-4.818h-0.031c-2.867,0-5.387,1.956-6.09,4.75
		c-0.222,0.87-22.218,88.014-22.218,159.517C326.455,233.182,329.275,236.008,332.742,236.008z"/>
	<path fill="#010101" d="M510.565,354.223c-0.566-0.689-57.608-69.973-115.075-112.187c-2.801-2.073-6.737-1.45-8.785,1.363
		c-2.049,2.82-1.444,6.775,1.363,8.83c36.582,26.876,73.12,65.129,94.308,88.724c-28.963-13.414-76.687-37.149-112.91-63.272
		c-2.826-2.042-6.762-1.389-8.78,1.448c-2.029,2.833-1.375,6.781,1.438,8.816c56.621,40.82,140.341,75.787,141.18,76.131
		c0.784,0.329,1.598,0.482,2.405,0.482c1.95,0,3.839-0.913,5.061-2.561C512.484,359.666,512.398,356.464,510.565,354.223z"/>
	<path fill="#010101" d="M354.763,229.69c-12.136,0-22.021,9.921-22.021,22.113s9.885,22.114,22.021,22.114
		c12.137,0,22.021-9.922,22.021-22.114S366.899,229.69,354.763,229.69z M354.763,261.28c-5.2,0-9.433-4.251-9.433-9.477
		s4.232-9.477,9.433-9.477c5.202,0,9.435,4.251,9.435,9.477S359.965,261.28,354.763,261.28z"/>
	<path fill="#010101" d="M365.309,311.824h-21.09c-3.368,0-6.133,2.666-6.281,6.045l-5.183,120.043
		c-0.074,1.723,0.55,3.4,1.739,4.64c1.186,1.246,2.827,1.951,4.543,1.951h31.453c1.715,0,3.356-0.705,4.541-1.951
		c1.186-1.239,1.814-2.917,1.739-4.64l-5.183-120.043C371.44,314.49,368.677,311.824,365.309,311.824z M345.606,431.866
		l4.634-107.407h9.046l4.633,107.407H345.606z"/>
</g>
</svg>
