<?xml version="1.0" encoding="utf-8"?>
<!-- Generator: Adobe Illustrator 15.1.0, SVG Export Plug-In . SVG Version: 6.00 Build 0)  -->
<!DOCTYPE svg PUBLIC "-//W3C//DTD SVG 1.1//EN" "http://www.w3.org/Graphics/SVG/1.1/DTD/svg11.dtd">
<svg version="1.1" id="Calque_1" xmlns="http://www.w3.org/2000/svg" xmlns:xlink="http://www.w3.org/1999/xlink" x="0px" y="0px"
	 width="512px" height="512px" viewBox="0 0 512 512" enable-background="new 0 0 512 512" xml:space="preserve">
<g>
	<path fill="#71717B" d="M477.871,102.399c-14.137,0-26.279,8.64-31.465,20.91c-16.562-8.146-26.934-4.515-41.819,6.327
		c-12.845,9.358-24.062,10.004-37.655,2.098v-6.382c0-9.558-7.771-17.352-17.328-17.352h-42.41V73.878h42.41
		c9.558,0,17.328-7.794,17.328-17.352v-8.321c5.951,2.361,11.807,3.678,17.614,3.678c10.164,0,20.12-3.606,30.077-10.842
		c11.791-8.576,15.892-10.539,29.629-1.883c2.441,16.426,16.515,29.119,33.619,29.119c18.812,0,34.129-15.326,34.129-34.137
		c0-18.82-15.317-34.145-34.129-34.145c-14.137,0-26.279,8.64-31.465,20.91c-16.562-8.137-26.934-4.491-41.819,6.327
		c-12.845,9.358-24.062,10.004-37.655,2.098v-6.382c0-9.558-7.771-17.352-17.328-17.352H162.412
		c-8.624,0-15.469,6.446-16.801,14.695c-16.555-6.741-32.438-4.531-48.227,6.941c-11.767,8.56-15.884,10.531-29.629,1.891
		C65.307,12.689,51.233-0.004,34.129-0.004C15.31-0.004,0,15.321,0,34.141c0,18.812,15.31,34.137,34.129,34.137
		c14.137,0,26.287-8.64,31.465-20.91c6.103,3,11.44,4.556,16.378,4.556c8.465,0,16.052-4.037,25.441-10.882
		c12.876-9.358,24.062-9.988,37.663-2.098v17.583c0,9.558,7.771,17.352,17.336,17.352h42.395V108h-42.395
		c-8.624,0-15.469,6.446-16.801,14.695c-16.555-6.749-32.438-4.54-48.227,6.941c-11.767,8.56-15.884,10.531-29.629,1.891
		c-2.449-16.435-16.522-29.127-33.627-29.127C15.31,102.399,0,117.725,0,136.544c0,18.804,15.31,34.129,34.129,34.129
		c14.137,0,26.287-8.64,31.465-20.902c6.103,3,11.44,4.547,16.378,4.547c8.465,0,16.052-4.037,25.441-10.882
		c12.876-9.342,24.062-9.988,37.663-2.09v17.583c0,9.557,7.771,17.344,17.336,17.344h39.395l-65.115,325.535
		c-0.917,4.611,2.074,9.095,6.702,10.036c0.574,0.111,1.124,0.159,1.683,0.159c3.989,0,7.547-2.792,8.361-6.86l5.871-29.358
		L256,411.324l96.683,64.461l5.872,29.358c0.813,4.068,4.388,6.86,8.377,6.86c0.542,0,1.101-0.048,1.675-0.159
		c4.627-0.941,7.611-5.425,6.701-10.036l-65.114-325.535h39.41c9.558,0,17.328-7.787,17.328-17.344v-8.321
		c5.951,2.361,11.807,3.678,17.614,3.678c10.164,0,20.12-3.614,30.077-10.85c11.791-8.568,15.892-10.531,29.629-1.875
		c2.441,16.418,16.515,29.111,33.619,29.111c18.812,0,34.129-15.325,34.129-34.129C512,117.725,496.683,102.399,477.871,102.399z
		 M477.871,17.069c9.413,0,17.072,7.667,17.072,17.072c0,9.398-7.659,17.057-17.072,17.057c-9.414,0-17.073-7.659-17.073-17.057
		C460.798,24.735,468.457,17.069,477.871,17.069z M34.129,51.198c-9.405,0-17.072-7.659-17.072-17.057
		c0-9.406,7.667-17.072,17.072-17.072c9.414,0,17.081,7.667,17.081,17.072C51.21,43.539,43.543,51.198,34.129,51.198z
		 M34.129,153.601c-9.405,0-17.072-7.659-17.072-17.057c0-9.414,7.667-17.073,17.072-17.073c9.414,0,17.081,7.659,17.081,17.073
		C51.21,145.942,43.543,153.601,34.129,153.601z M162.133,56.527l0.279-33.858l187.446,0.279v33.579c0,0.16-0.111,0.279-0.255,0.279
		L162.133,56.527z M221.863,73.878h68.258V108h-68.258V73.878z M324.059,332.646l-53.851-40.367l39.81-29.854L324.059,332.646z
		 M318.043,349.464l-62.035,41.357l-62.043-41.373L256,302.938L318.043,349.464z M187.934,332.663l14.049-70.245l39.809,29.861
		L187.934,332.663z M164.04,452.123l18.021-90.102l58.565,39.043L164.04,452.123z M271.373,401.064l58.557-39.043l18.015,90.102
		L271.373,401.064z M306.315,243.886L256,281.621l-50.308-37.735l13.521-67.612h73.571L306.315,243.886z M349.858,158.93
		c0,0.144-0.255,0.271-0.255,0.271l-43.128-0.063c-1.452-3.806-5.313-6.207-9.478-5.369c-2.968,0.59-5.122,2.72-6.144,5.345
		l-69.749-0.096c-1.037-2.577-3.168-4.659-6.104-5.25c-4.076-0.822-7.914,1.508-9.414,5.226l-43.455-0.064l0.279-33.858
		l187.446,0.279V158.93z M477.871,153.601c-9.414,0-17.073-7.659-17.073-17.057c0-9.414,7.659-17.073,17.073-17.073
		c9.413,0,17.072,7.659,17.072,17.073C494.943,145.942,487.284,153.601,477.871,153.601z"/>
</g>
</svg>
