<?xml version="1.0" encoding="utf-8"?>
<!-- Generator: Adobe Illustrator 15.1.0, SVG Export Plug-In . SVG Version: 6.00 Build 0)  -->
<!DOCTYPE svg PUBLIC "-//W3C//DTD SVG 1.1//EN" "http://www.w3.org/Graphics/SVG/1.1/DTD/svg11.dtd">
<svg version="1.1" id="Calque_1" xmlns="http://www.w3.org/2000/svg" xmlns:xlink="http://www.w3.org/1999/xlink" x="0px" y="0px"
	 width="512px" height="512px" viewBox="0 0 512 512" enable-background="new 0 0 512 512" xml:space="preserve">
<g>
	<path d="M395.313,107.727l-44.926,44.92l8.985,8.991l-17.97,17.969l-17.984-17.976l8.985-8.984l-44.927-44.92l-67.551,67.553
		c-14.116-35.497-43.776-62.418-79.961-71.148V88.145c13.878,1.815,22.687,7.433,22.687,11.409c0,3.487,2.838,6.316,6.354,6.316
		c3.502,0,6.344-2.829,6.344-6.316c0-13.479-17.564-23.764-41.327-24.603c-0.143-0.009-0.264-0.082-0.409-0.082
		c-0.113,0-0.203,0.058-0.314,0.063c-0.8-0.021-1.589-0.063-2.404-0.063H98.225c-0.816,0-1.603,0.042-2.408,0.063
		c-0.111-0.006-0.204-0.063-0.316-0.063c-0.143,0-0.264,0.073-0.406,0.083c-23.767,0.84-41.331,11.116-41.331,24.577
		c0,3.487,2.843,6.317,6.354,6.317c3.506,0,6.352-2.83,6.352-6.317c0-3.971,8.808-9.575,22.686-11.386v15.987
		C38.32,116.394,0.232,164.499,0.232,221.939v115.668c-0.012,0.169-0.099,0.313-0.099,0.488c0,0.423,0.09,0.83,0.099,1.251v0.841
		c0,0.191,0.093,0.354,0.112,0.542c2.196,38.224,51.476,67.82,114.164,67.82c62.249,0,111.261-29.181,114.102-67.012
		c0.102-0.447,0.273-0.872,0.273-1.351v-57.416l121.499,121.504L458.21,296.433l-17.972-17.975l17.982-17.977l8.986,8.984
		l44.926-44.92L395.313,107.727z M314.435,152.646L206.6,260.486l-11.485-11.485c0-0.001,0-0.001,0-0.002l-8.064-8.062l-7.406-7.405
		l6.196-6.196l0,0l14.458-14.457c0-0.001,0-0.001,0-0.001l13.589-13.59l0,0l3.709-3.71l69.88-69.881L314.435,152.646z
		 M210.059,185.146l-8.035,8.035c0.562-7.95,0.977-15.963,1.203-23.992C205.898,174.269,208.176,179.607,210.059,185.146z
		 M101.855,87.503h25.404v14.308c-4.177-0.491-8.401-0.793-12.702-0.793c-4.297,0-8.525,0.302-12.702,0.793V87.503z
		 M114.558,113.651c30.561,0,57.945,14.515,76.591,37.339c-0.183,0.598-0.372,1.2-0.372,1.859c0,19.196-0.911,37.308-2.538,54.117
		l-26.565,26.565l19.718,19.717c-9.363,45.251-24.41,74.012-38.936,77.669c-8.733,1.072-18.02,1.71-27.898,1.71
		c-9.875,0-19.159-0.638-27.892-1.71c-23.471-5.911-48.327-77.353-48.327-178.068c0-0.659-0.186-1.262-0.369-1.86
		C56.617,128.165,84.001,113.651,114.558,113.651z M12.935,221.939c0-19.153,4.738-37.13,12.959-52.756
		c1.787,63.47,13.922,126.765,35.379,156.882c-30.113-8.121-48.339-22.572-48.339-36.407V221.939z M216.181,338.096
		c0,31.882-45.608,57.813-101.673,57.813c-55.403,0-100.519-25.337-101.573-56.703v-23.761
		c18.823,17.847,56.791,29.811,101.623,29.811c44.839,0,82.806-11.963,101.623-29.809V338.096z M216.181,289.658
		c0,13.854-18.273,28.33-48.472,36.444c10.278-14.35,18.425-36.283,24.333-62.202l14.558,14.558l8.986-8.985l0.595,0.594V289.658z
		 M426.762,309.917l-40.433-40.451c-2.483-2.488-6.504-2.488-8.986,0c-2.481,2.489-2.481,6.508,0,8.992l40.435,40.445l-17.971,17.97
		l-40.439-40.44c-2.482-2.486-6.511-2.486-8.985,0c-2.482,2.489-2.482,6.511,0,8.986l40.439,40.439h0.006l-17.977,17.972
		l-40.446-40.435c-2.481-2.483-6.502-2.483-8.985,0c-2.481,2.489-2.481,6.504,0,8.985l40.447,40.434l-13.484,13.489L224.571,260.487
		l0,0l4.162-4.164l85.701-85.7l17.97,17.981l-49.418,49.419l35.94,35.941l49.43-49.419l71.882,71.887L426.762,309.917z
		 M431.255,269.466l-58.404-58.384c-2.481-2.495-6.503-2.495-8.984,0l-44.939,44.911l-17.97-17.97l44.938-44.926l22.461-22.475
		l80.867,80.879L431.255,269.466z M368.356,152.646l26.957-26.949l98.849,98.849l-26.955,26.956L368.356,152.646z"/>
	<path d="M51.273,401.991c-3.067-1.72-6.928-0.646-8.659,2.389L29.36,427.705c-1.724,3.047-0.647,6.896,2.401,8.607
		c0.987,0.559,2.066,0.817,3.125,0.817c2.212,0,4.369-1.146,5.532-3.208l13.263-23.324C55.4,407.556,54.324,403.704,51.273,401.991z
		"/>
	<path d="M192.856,404.38c-1.739-3.034-5.617-4.083-8.663-2.396c-3.047,1.719-4.127,5.572-2.399,8.614l13.251,23.324
		c1.172,2.06,3.323,3.208,5.535,3.208c1.062,0,2.135-0.259,3.122-0.806c3.053-1.726,4.132-5.572,2.408-8.62L192.856,404.38z"/>
	<path d="M68.832,258.066c1.277,0,2.568-0.379,3.685-1.172l97.816-69.493c2.851-2.029,3.519-5.975,1.474-8.805
		c-2.032-2.843-6.001-3.5-8.854-1.478l-97.819,69.486c-2.855,2.036-3.52,5.977-1.475,8.812
		C64.897,257.142,66.852,258.066,68.832,258.066z"/>
	<path d="M60.573,346.511c-8.756,0-15.88,7.073-15.88,15.785c0,8.713,7.125,15.8,15.88,15.8c8.752,0,15.879-7.087,15.879-15.8
		C76.452,353.584,69.325,346.511,60.573,346.511z M60.573,365.461c-1.754,0-3.178-1.428-3.178-3.165s1.424-3.151,3.178-3.151
		c1.75,0,3.171,1.414,3.171,3.151S62.323,365.461,60.573,365.461z"/>
	<path d="M82.806,213.842c1.278,0,2.569-0.372,3.686-1.167l44.459-31.584c2.855-2.03,3.52-5.982,1.479-8.817
		c-2.042-2.837-6.008-3.494-8.862-1.472l-44.46,31.585c-2.854,2.036-3.512,5.981-1.477,8.812
		C78.872,212.929,80.826,213.842,82.806,213.842z"/>
	<path d="M168.543,378.096c8.762,0,15.879-7.088,15.879-15.801c0-8.71-7.117-15.785-15.879-15.785
		c-8.755,0-15.87,7.075-15.87,15.785C152.673,371.008,159.788,378.096,168.543,378.096z M168.543,359.145
		c1.75,0,3.177,1.414,3.177,3.15c0,1.739-1.427,3.165-3.177,3.165c-1.743,0-3.171-1.426-3.171-3.165
		C165.372,360.559,166.8,359.145,168.543,359.145z"/>
</g>
</svg>
