<?xml version="1.0" encoding="utf-8"?>
<!-- Generator: Adobe Illustrator 15.1.0, SVG Export Plug-In . SVG Version: 6.00 Build 0)  -->
<!DOCTYPE svg PUBLIC "-//W3C//DTD SVG 1.1//EN" "http://www.w3.org/Graphics/SVG/1.1/DTD/svg11.dtd">
<svg version="1.1" id="Calque_1" xmlns="http://www.w3.org/2000/svg" xmlns:xlink="http://www.w3.org/1999/xlink" x="0px" y="0px"
	 width="512px" height="512px" viewBox="0 0 512 512" enable-background="new 0 0 512 512" xml:space="preserve">
<g>
	<path fill="#010101" d="M486.4,494.934h-17.067V102.4H435.2V51.2h-68.267V8.533c0-4.721-3.817-8.533-8.533-8.533
		c-4.717,0-8.534,3.813-8.534,8.533V51.2H281.6v51.2h-34.133v93.867h-204.8v298.667H25.6c-4.721,0-8.533,3.816-8.533,8.533
		S20.879,512,25.6,512h17.066h204.8h17.066h204.8H486.4c4.716,0,8.533-3.816,8.533-8.533S491.116,494.934,486.4,494.934z
		 M298.667,68.267h119.467V102.4H298.667V68.267z M59.733,494.934v-281.6h187.733v281.6H59.733z M264.533,494.934V196.267v-76.8
		H281.6H435.2h17.075v375.467H264.533z"/>
	<path fill="#010101" d="M76.8,341.333h68.267v-102.4H76.8V341.333z M93.867,256H128v68.267H93.867V256z"/>
	<path fill="#010101" d="M162.133,341.333H230.4v-102.4h-68.267V341.333z M179.2,256h34.133v68.267H179.2V256z"/>
	<path fill="#010101" d="M76.8,469.333h68.267V366.934H76.8V469.333z M93.867,384H128v68.267H93.867V384z"/>
	<path fill="#010101" d="M162.133,469.333H230.4V366.934h-68.267V469.333z M179.2,384h34.133v68.267H179.2V384z"/>
	<path fill="#010101" d="M281.6,238.933h68.267v-102.4H281.6V238.933z M298.667,153.6H332.8v68.267h-34.133V153.6z"/>
	<path fill="#010101" d="M366.934,238.933H435.2v-102.4h-68.267V238.933z M384,153.6h34.134v68.267H384V153.6z"/>
	<path fill="#010101" d="M281.6,358.4h68.267V256H281.6V358.4z M298.667,273.066H332.8v68.267h-34.133V273.066z"/>
	<path fill="#010101" d="M366.934,358.4H435.2V256h-68.267V358.4z M384,273.066h34.134v68.267H384V273.066z"/>
	<path fill="#010101" d="M281.6,477.866h68.267V375.467H281.6V477.866z M298.667,392.533H332.8V460.8h-34.133V392.533z"/>
	<path fill="#010101" d="M366.934,477.866H435.2V375.467h-68.267V477.866z M384,392.533h34.134V460.8H384V392.533z"/>
</g>
</svg>
