<?xml version="1.0" encoding="utf-8"?>
<!-- Generator: Adobe Illustrator 15.1.0, SVG Export Plug-In . SVG Version: 6.00 Build 0)  -->
<!DOCTYPE svg PUBLIC "-//W3C//DTD SVG 1.1//EN" "http://www.w3.org/Graphics/SVG/1.1/DTD/svg11.dtd">
<svg version="1.1" id="Calque_1" xmlns="http://www.w3.org/2000/svg" xmlns:xlink="http://www.w3.org/1999/xlink" x="0px" y="0px"
	 width="512px" height="512px" viewBox="0 0 512 512" enable-background="new 0 0 512 512" xml:space="preserve">
<g>
	<path d="M470.68,131.165H322.893c-0.717,0-1.402,0.128-2.042,0.354V6.173c0-3.408-2.765-6.173-6.173-6.173H41.319
		c-3.408,0-6.173,2.765-6.173,6.173v499.653c0,3.408,2.765,6.174,6.173,6.174h273.358c1.584,0,3.023-0.603,4.116-1.583
		c1.091,0.971,2.523,1.566,4.099,1.566H470.68c3.408,0,6.174-2.765,6.174-6.173V137.338
		C476.854,133.93,474.088,131.165,470.68,131.165z M308.504,499.653H47.493V12.347h261.011V499.653z M464.507,499.637H322.893
		c-0.717,0-1.402,0.129-2.042,0.354V143.158c0.64,0.225,1.325,0.354,2.042,0.354h141.614V499.637z"/>
</g>
</svg>
