<?xml version="1.0" encoding="utf-8"?>
<!-- Generator: Adobe Illustrator 15.1.0, SVG Export Plug-In . SVG Version: 6.00 Build 0)  -->
<!DOCTYPE svg PUBLIC "-//W3C//DTD SVG 1.1//EN" "http://www.w3.org/Graphics/SVG/1.1/DTD/svg11.dtd">
<svg version="1.1" id="Calque_1" xmlns="http://www.w3.org/2000/svg" xmlns:xlink="http://www.w3.org/1999/xlink" x="0px" y="0px"
	 width="512px" height="512px" viewBox="0 0 512 512" enable-background="new 0 0 512 512" xml:space="preserve">
<path d="M256,0C114.86,0,0,114.875,0,256c0,141.218,114.86,256,256,256c141.171,0,256-114.782,256-256C512,114.875,397.171,0,256,0
	 M256,19.726c130.33,0,236.305,106.022,236.305,236.274c0,49.703-15.516,95.771-41.781,133.855
	c-0.356-0.124-0.652-0.372-1.056-0.497c-47.436-14.6-115.187-44.888-122.89-68.03c2.422-6.368,7.859-21.9,9.459-35.973
	c5.653-5.404,16.448-17.582,17.846-32.99c0.854-9.102-1.879-17.924-7.859-25.752c-1.429-8.512-2.36-21.403-0.03-26.871
	c0.372-0.994,9.163-25.224-4.971-52.561c-13.389-25.845-42.076-45.26-85.333-57.624c-5.545-4.101-23.298-16.122-41.937-16.122
	c-15.547,0-35.817,7.921-43.956,45.602l-0.187,1.429c-1.693,26.001-5.793,57.469-9.288,62.874l-1.025,1.398l-0.512,1.74
	c-0.435,1.553-10.873,39.576,20.937,98.287c5.592,15.066,9.024,32.151,7.595,37.433l-2.252,2.019
	c-8.465,9.568-36.733,36.812-55.248,37.495l-1.724,0.186c-0.637,0.125-34.575,8.077-61.709,34.481
	C37.184,357.083,19.679,308.623,19.679,256C19.679,125.748,125.701,19.726,256,19.726 M256,492.306
	c-70.656,0-134.011-31.313-177.346-80.643c20.906-21.714,47.808-29.294,52.902-30.505c28.082-1.771,59.892-34.792,67.192-42.807
	c15.641-9.724,6.415-42.03-0.684-61.041l-0.559-1.212c-25.395-46.472-21-77.567-19.85-83.376
	c7.223-13.513,10.5-52.623,11.634-70.329c6.555-29.449,20.021-29.449,24.463-29.449c12.317,0,26.591,9.35,31.018,12.985l1.631,1.335
	l2.019,0.528c38.535,10.717,63.697,26.871,74.756,47.87c10.376,19.633,4.458,36.625,4.396,36.904
	c-5.499,12.954-1.492,35.662-0.606,40.104l0.481,2.516l1.74,1.988c3.758,4.287,5.404,8.698,5.001,13.389
	c-0.823,9.94-10.407,19.725-13.964,22.583l-3.4,2.733l-0.265,4.318c-0.792,15.346-9.443,36.563-9.536,36.78l-1.025,2.516l0.45,2.672
	c6.679,40.88,101.797,74.461,131.79,84.122C394.856,458.787,329.28,492.306,256,492.306"/>
</svg>
