<?xml version="1.0" encoding="utf-8"?>
<!-- Generator: Adobe Illustrator 15.1.0, SVG Export Plug-In . SVG Version: 6.00 Build 0)  -->
<!DOCTYPE svg PUBLIC "-//W3C//DTD SVG 1.1//EN" "http://www.w3.org/Graphics/SVG/1.1/DTD/svg11.dtd">
<svg version="1.1" id="Calque_1" xmlns="http://www.w3.org/2000/svg" xmlns:xlink="http://www.w3.org/1999/xlink" x="0px" y="0px"
	 width="512px" height="512px" viewBox="0 0 512 512" enable-background="new 0 0 512 512" xml:space="preserve">
<g>
	<path d="M510.863,232.305l0.433-0.284c-4.007-5.821-99.573-142.796-253.049-142.796h-4.521
		C100.264,89.225,4.711,225.726,0.69,231.546l1.001,0.704L0,233.103c0.988,1.909,24.812,47.757,67.641,94.268
		c57.489,62.403,121.868,95.405,186.085,95.405h4.521c64.271,0,128.649-33.029,186.099-95.513
		c42.855-46.538,66.652-92.468,67.654-94.376L510.863,232.305z M129.706,145.197c34.789-19.627,76.603-34.437,124.021-34.437h4.521
		c45.699,0,86.173,13.727,120.176,32.325c8.745,17.963,14.051,37.875,14.051,59.141c0,75.628-61.834,137.164-137.827,137.164
		c-76.007,0-137.828-61.536-137.828-137.164C116.819,181.786,121.584,162.578,129.706,145.197 M258.247,401.252h-4.521
		c-120.189,0-205.076-127.838-228.169-166.769c11.668-14.605,37.537-43.966,74.572-70.443c-3.073,12.237-4.94,24.988-4.94,38.187
		c0,87.485,71.553,158.688,159.458,158.688s159.458-71.202,159.458-158.688c0-14.037-2.111-27.561-5.604-40.487
		c38.687,27.032,65.624,57.719,77.726,72.866C462.836,274.037,378.099,401.252,258.247,401.252 M194.748,238.044
		c27.587,0,49.976-22.295,49.976-49.746c0-27.438-22.389-49.733-49.976-49.733c-27.56,0-50.017,22.295-50.017,49.733
		C144.731,215.749,167.188,238.044,194.748,238.044 M194.748,160.061c15.634,0,28.358,12.684,28.358,28.237
		c0,15.58-12.724,28.25-28.358,28.25c-15.635,0-28.359-12.67-28.359-28.25C166.389,172.744,179.113,160.061,194.748,160.061"/>
</g>
</svg>
