<?xml version="1.0" encoding="utf-8"?>
<!-- Generator: Adobe Illustrator 15.1.0, SVG Export Plug-In . SVG Version: 6.00 Build 0)  -->
<!DOCTYPE svg PUBLIC "-//W3C//DTD SVG 1.1//EN" "http://www.w3.org/Graphics/SVG/1.1/DTD/svg11.dtd">
<svg version="1.1" id="Calque_1" xmlns="http://www.w3.org/2000/svg" xmlns:xlink="http://www.w3.org/1999/xlink" x="0px" y="0px"
	 width="512px" height="512px" viewBox="0 0 512 512" enable-background="new 0 0 512 512" xml:space="preserve">
<g>
	<path d="M492.623,512h-98.059V345.682c0-39.682-0.608-90.696-50.956-90.696c-51.015,0-58.782,43.247-58.782,87.826V512h-97.985
		V170.015h93.985v46.753h1.391c13.072-26.898,45.044-55.246,92.754-55.246c99.333,0,117.652,70.826,117.652,162.913V512z
		 M76.304,123.29c-31.521,0-56.927-27.624-56.927-61.638C19.377,27.638,44.782,0,76.304,0c31.349,0,56.813,27.638,56.813,61.652
		C133.116,95.667,107.652,123.29,76.304,123.29 M125.333,512H27.159V170.015h98.174V512z"/>
</g>
</svg>
