<?xml version="1.0" encoding="utf-8"?>
<!-- Generator: Adobe Illustrator 15.1.0, SVG Export Plug-In . SVG Version: 6.00 Build 0)  -->
<!DOCTYPE svg PUBLIC "-//W3C//DTD SVG 1.1//EN" "http://www.w3.org/Graphics/SVG/1.1/DTD/svg11.dtd">
<svg version="1.1" id="Calque_1" xmlns="http://www.w3.org/2000/svg" xmlns:xlink="http://www.w3.org/1999/xlink" x="0px" y="0px"
	 width="512px" height="512px" viewBox="0 0 512 512" enable-background="new 0 0 512 512" xml:space="preserve">
<g>
	<path fill="#010101" d="M347.86,311.716l22.858,72.288h18.018l22.26-71.413l0.269,0.036l0.563-2.857l-0.394-0.098V9.134
		c0-5.054-4.089-9.134-9.143-9.134h-45.716c-5.054,0-9.144,4.081-9.144,9.134V310.85h3.125L347.86,311.716z M365.718,18.269h27.43
		v9.152h-27.43V18.269z M365.718,45.707h27.43v262.705l-13.482,43.252l-13.947-44.118V45.707z M448.007,73.136v18.287
		c15.125,0,27.43,12.299,27.43,27.429v347.441c0,15.126-12.305,27.43-27.43,27.43H63.993c-15.121,0-27.429-12.304-27.429-27.43
		V118.852c0-15.13,12.308-27.429,27.429-27.429h246.866V73.136H63.993c-25.206,0-45.716,20.51-45.716,45.716v347.441
		c0,25.206,20.51,45.707,45.716,45.707h384.014c25.206,0,45.716-20.501,45.716-45.707V118.852
		C493.723,93.646,473.213,73.136,448.007,73.136 M91.423,191.989H228.57c5.045,0,9.144-4.098,9.144-9.134
		c0-5.054-4.099-9.152-9.144-9.152H91.423c-5.058,0-9.143,4.099-9.143,9.152C82.28,187.891,86.365,191.989,91.423,191.989
		 M91.423,265.134h201.149c5.055,0,9.144-4.076,9.144-9.143c0-5.059-4.089-9.144-9.144-9.144H91.423
		c-5.058,0-9.143,4.085-9.143,9.144C82.28,261.058,86.365,265.134,91.423,265.134 M301.716,319.993H91.423
		c-5.058,0-9.143,4.099-9.143,9.144c0,5.054,4.085,9.151,9.143,9.151h210.293c5.054,0,9.144-4.098,9.144-9.151
		C310.859,324.092,306.77,319.993,301.716,319.993 M301.716,393.147H91.423c-5.058,0-9.143,4.09-9.143,9.144
		c0,5.045,4.085,9.143,9.143,9.143h210.293c5.054,0,9.144-4.098,9.144-9.143C310.859,397.237,306.77,393.147,301.716,393.147"/>
</g>
</svg>
