<?xml version="1.0" encoding="utf-8"?>
<!-- Generator: Adobe Illustrator 15.1.0, SVG Export Plug-In . SVG Version: 6.00 Build 0)  -->
<!DOCTYPE svg PUBLIC "-//W3C//DTD SVG 1.1//EN" "http://www.w3.org/Graphics/SVG/1.1/DTD/svg11.dtd">
<svg version="1.1" id="Calque_1" xmlns="http://www.w3.org/2000/svg" xmlns:xlink="http://www.w3.org/1999/xlink" x="0px" y="0px"
	 width="512px" height="512px" viewBox="0 0 512 512" enable-background="new 0 0 512 512" xml:space="preserve">
<g>
	<path d="M359.568,512h-0.021c-27.719,0-56.064-6.951-84.236-20.659c-6.648-3.217-13.406-7.318-21.221-12.866
		c-23.952-16.925-83.771-60.382-121.831-98.484c-40.013-40.002-82.542-98.872-98.97-122.327
		c-5.354-7.621-9.304-14.184-12.424-20.596C-42.582,107.238,58.957,20.206,67.193,13.438C76.26,4.534,86.611,0,97.966,0
		c35.437,0,66.782,45.896,68.11,47.86c1.986,2.764,52.545,73.81,18.663,109.602l-0.669,0.638
		c-12.705,10.987-46.49,46.489-37.358,66.631c4.911,6.454,41.492,54.271,64.019,76.788c27.989,27.999,70.754,59.583,76.496,63.771
		c2.268,1.036,4.729,1.533,7.492,1.533c21.004,0,49.652-28.194,58.934-39.053l0.67-0.713c8.246-7.814,19.02-11.765,32.037-11.765
		c34.994,0,76.141,29.359,77.867,30.654c1.555,1.036,44.211,30.158,47.449,63.857c1.254,12.952-3.193,24.653-13.168,34.843
		C493.283,451.188,442.574,512,359.568,512 M97.966,18.501c-6.52,0-12.424,2.742-18.037,8.354l-0.864,0.756
		c-4.134,3.249-100.643,80.469-41.6,201.339c2.698,5.527,6.185,11.27,10.967,18.102c16.158,23.057,57.909,80.912,96.908,119.856
		c37.056,37.088,95.851,79.832,119.413,96.477c6.994,4.922,12.91,8.527,18.652,11.333c25.625,12.479,51.25,18.782,76.141,18.782
		c76.594,0.021,124.238-60.079,124.713-60.662l0.756-0.863c6.26-6.282,8.959-12.953,8.246-20.401
		c-2.008-20.832-29.273-43.499-39.635-50.472c-0.584-0.454-38.275-27.331-67.268-27.331c-8.031,0-14.27,2.116-18.977,6.412
		c-5.439,6.261-40.326,45.14-72.664,45.14c-5.938,0-11.463-1.273-16.473-3.842l-1.23-0.756
		c-1.986-1.425-48.421-35.167-79.367-66.124c-24.988-24.955-64.569-77.23-66.231-79.443l-0.864-1.36
		c-18.22-35.814,33.267-82.573,41.049-89.33c18.879-20.714-8.505-69.082-20.692-86.039C143.269,47.148,119.209,18.501,97.966,18.501
		"/>
</g>
</svg>
