<?xml version="1.0" encoding="utf-8"?>
<!-- Generator: Adobe Illustrator 15.1.0, SVG Export Plug-In . SVG Version: 6.00 Build 0)  -->
<!DOCTYPE svg PUBLIC "-//W3C//DTD SVG 1.1//EN" "http://www.w3.org/Graphics/SVG/1.1/DTD/svg11.dtd">
<svg version="1.1" id="Calque_1" xmlns="http://www.w3.org/2000/svg" xmlns:xlink="http://www.w3.org/1999/xlink" x="0px" y="0px"
	 width="512px" height="512px" viewBox="0 0 512 512" enable-background="new 0 0 512 512" xml:space="preserve">
<g>
	<path fill="#010101" d="M474.768,65.165H325.819V46.556C325.819,20.892,304.938,0,279.273,0h-55.856
		c-25.664,0-46.546,20.892-46.546,46.556v18.609H37.232c-5.15,0-9.31,4.164-9.31,9.3c0,5.15,4.159,9.31,9.31,9.31h39.351
		l25.814,381.688c0,25.664,20.882,46.537,46.546,46.537h214.113c25.664,0,46.546-20.873,46.528-45.909l25.837-382.316h39.346
		c5.146,0,9.31-4.159,9.31-9.31C484.077,69.329,479.913,65.165,474.768,65.165 M195.489,46.556
		c0-15.414,12.532-27.928,27.928-27.928h55.856c15.4,0,27.928,12.514,27.928,27.928v18.609H195.489V46.556z M390.984,465.463
		c0,15.392-12.527,27.928-27.928,27.928H148.943c-15.396,0-27.928-12.536-27.946-28.555L95.247,83.774h321.511L390.984,465.463z
		 M202.258,448.399c0.269,0,0.532,0,0.8-0.046c5.119-0.427,8.919-4.937,8.491-10.063l-24.604-287.032
		c-0.437-5.118-4.868-8.937-10.073-8.482c-5.127,0.437-8.918,4.955-8.481,10.073l24.596,287.032
		C193.403,444.735,197.472,448.399,202.258,448.399 M319.02,448.354c0.264,0.046,0.536,0.046,0.8,0.046
		c4.782,0,8.854-3.664,9.264-8.519l24.601-287.032c0.445-5.118-3.354-9.637-8.482-10.073c-5.072-0.464-9.636,3.364-10.063,8.482
		L310.537,438.29C310.092,443.417,313.892,447.927,319.02,448.354 M260.654,446.836c5.146,0,9.31-4.146,9.31-9.301V148.939
		c0-5.137-4.164-9.301-9.31-9.301s-9.309,4.164-9.309,9.301v288.596C251.346,442.69,255.509,446.836,260.654,446.836"/>
</g>
</svg>
