<?xml version="1.0" standalone="no"?>
<!DOCTYPE svg PUBLIC "-//W3C//DTD SVG 20010904//EN"
 "http://www.w3.org/TR/2001/REC-SVG-20010904/DTD/svg10.dtd">
<svg version="1.0" xmlns="http://www.w3.org/2000/svg"
 width="16.000000pt" height="16.000000pt" viewBox="0 0 16.000000 16.000000"
 preserveAspectRatio="xMidYMid meet">
<metadata>
Created by potrace 1.11, written by Peter Selinger 2001-2013
</metadata>
<g transform="translate(0.000000,16.000000) scale(0.002299,-0.002299)"
fill="#000000" stroke="none">
<path d="M6578 6465 c-3 -3 -96 -13 -188 -20 -71 -6 -176 -17 -200 -20 -14 -3
-59 -7 -100 -10 -86 -7 -145 -12 -210 -20 -25 -3 -74 -7 -110 -10 -36 -2 -87
-7 -115 -10 -109 -13 -132 -15 -186 -19 -31 -2 -78 -7 -105 -10 -27 -3 -78 -8
-114 -11 -36 -3 -83 -8 -105 -11 -22 -3 -69 -7 -104 -9 -35 -3 -80 -7 -100 -9
-20 -3 -63 -8 -96 -11 -33 -2 -84 -7 -112 -10 -29 -3 -77 -7 -105 -10 -149
-14 -176 -17 -208 -20 -19 -2 -69 -6 -110 -10 -41 -4 -93 -9 -115 -11 -22 -2
-60 -6 -85 -8 -80 -8 -184 -17 -225 -22 -22 -2 -69 -7 -105 -10 -36 -3 -78 -8
-95 -10 -16 -1 -61 -6 -100 -9 -38 -4 -86 -8 -105 -10 -19 -2 -64 -6 -100 -9
-95 -9 -146 -14 -225 -22 -38 -4 -80 -7 -92 -8 -13 0 -23 -2 -23 -5 0 -4 -24
-7 -53 -7 -62 -2 -204 -12 -232 -18 -11 -2 -58 -7 -105 -11 -47 -4 -98 -9
-115 -11 -16 -2 -59 -6 -95 -9 -36 -3 -81 -7 -100 -10 -19 -3 -64 -7 -100 -9
-36 -3 -81 -7 -100 -10 -19 -3 -66 -8 -105 -11 -38 -3 -92 -8 -120 -11 -27 -2
-70 -6 -95 -9 -25 -2 -70 -6 -100 -9 -30 -4 -82 -9 -115 -12 -33 -3 -76 -7
-95 -8 -19 -2 -69 -6 -110 -10 -41 -3 -91 -8 -110 -10 -19 -3 -66 -7 -105 -11
-38 -3 -86 -8 -105 -10 -19 -2 -64 -7 -100 -10 -73 -6 -92 -11 -135 -30 -62
-28 -115 -109 -115 -176 0 -28 28 -129 51 -184 7 -18 387 -1146 393 -1170 2
-5 5 -17 9 -25 3 -8 20 -60 37 -115 18 -55 36 -109 41 -120 8 -20 22 -66 24
-75 0 -3 3 -9 6 -15 4 -5 14 -37 24 -70 9 -33 21 -69 26 -80 4 -11 27 -76 49
-145 23 -69 45 -134 49 -145 5 -11 14 -38 20 -60 7 -22 16 -49 21 -60 4 -11
18 -53 31 -92 l23 -73 51 48 50 47 -50 -53 -50 -52 160 -477 c88 -263 160
-480 161 -483 0 -3 4 -12 7 -20 4 -8 25 -71 47 -140 23 -69 45 -134 50 -145 5
-11 23 -65 40 -120 17 -55 35 -109 40 -120 5 -11 12 -31 16 -45 20 -75 45
-116 79 -129 34 -12 81 -6 101 13 6 6 69 65 139 131 142 133 154 145 350 330
75 72 156 148 179 170 24 22 107 101 186 175 78 74 161 153 185 175 23 22 109
104 191 181 82 78 167 158 189 179 22 20 102 96 179 168 76 73 160 152 186
177 26 25 108 102 181 171 74 70 152 143 174 164 22 20 100 94 173 164 140
132 150 141 388 366 81 77 184 174 228 217 45 42 111 105 148 140 227 215 311
293 330 307 12 8 40 33 63 55 23 23 104 100 180 171 76 72 149 140 161 153 13
12 26 22 29 22 3 0 23 17 44 38 44 42 164 158 466 447 286 275 335 325 335
341 0 8 4 14 8 14 15 0 35 106 29 154 -19 152 -131 245 -296 244 -44 -1 -82
-2 -83 -3z m-4698 -2859 c0 -2 -8 -10 -17 -17 -16 -13 -17 -12 -4 4 13 16 21
21 21 13z m-50 -46 c0 -5 -5 -10 -11 -10 -5 0 -7 5 -4 10 3 6 8 10 11 10 2 0
4 -4 4 -10z m-99 -93 c-10 -9 -11 -8 -5 6 3 10 9 15 12 12 3 -3 0 -11 -7 -18z"/>
<path d="M4834 1213 c-14 -12 -93 -86 -176 -165 -200 -190 -222 -211 -388
-368 -78 -74 -158 -150 -176 -168 l-34 -32 719 0 720 0 78 75 78 75 -50 0
c-27 1 -241 1 -475 1 l-425 0 77 72 77 72 251 0 252 0 27 25 c14 14 50 46 79
72 29 25 49 49 45 51 -5 3 -113 5 -241 4 -128 0 -235 2 -237 5 -3 3 26 37 64
76 l69 70 164 1 c208 2 167 2 501 0 325 -1 289 -9 397 90 l65 61 -718 2 -718
3 -25 -22z"/>
<path d="M323 1198 c-59 -51 -128 -118 -123 -119 3 0 43 0 90 1 102 1 109 1
232 -1 70 -1 96 -4 91 -13 -4 -6 -43 -45 -86 -86 -105 -99 -147 -139 -323
-307 -82 -77 -162 -153 -177 -167 l-28 -26 280 0 281 0 34 33 c100 95 459 441
518 499 l69 67 197 0 c108 1 205 2 215 3 9 1 52 34 95 74 l77 73 -702 1 -702
0 -38 -32z"/>
<path d="M1867 1199 c-39 -38 -258 -244 -307 -289 -52 -48 -270 -253 -368
-347 l-87 -83 285 0 c260 0 287 2 301 18 9 9 82 80 163 157 82 77 174 165 206
195 32 30 119 114 195 185 75 72 152 145 170 163 l34 32 -280 0 -279 0 -33
-31z"/>
<path d="M2508 1117 c-104 -100 -179 -171 -487 -463 -47 -45 -108 -103 -135
-128 l-49 -46 277 0 278 0 28 28 c15 15 83 79 150 142 68 63 142 133 165 155
148 139 178 166 181 162 3 -3 17 -71 48 -237 3 -14 8 -38 11 -55 l6 -30 111 3
c61 1 118 7 127 11 9 5 120 52 246 105 127 53 239 101 250 106 11 5 54 23 95
40 l75 30 -61 -57 c-34 -32 -108 -101 -164 -153 -57 -52 -121 -111 -141 -130
-21 -19 -59 -54 -84 -77 l-47 -43 248 0 249 0 85 81 c47 45 128 122 181 173
53 50 163 155 245 232 82 78 178 169 214 203 l65 61 -328 0 -328 0 -82 -31
c-45 -18 -101 -40 -124 -50 -23 -11 -46 -19 -50 -19 -4 -1 -26 -9 -48 -20 -22
-11 -44 -19 -48 -20 -5 0 -23 -6 -40 -14 -60 -27 -337 -136 -345 -136 -7 0
-25 71 -38 149 -3 18 -12 53 -25 104 l-10 37 -292 0 -292 0 -117 -113z"/>
</g>
</svg>
