<?xml version="1.0" encoding="utf-8"?>
<!-- Generator: Adobe Illustrator 15.1.0, SVG Export Plug-In . SVG Version: 6.00 Build 0)  -->
<!DOCTYPE svg PUBLIC "-//W3C//DTD SVG 1.1//EN" "http://www.w3.org/Graphics/SVG/1.1/DTD/svg11.dtd">
<svg version="1.1" id="Calque_1" xmlns="http://www.w3.org/2000/svg" xmlns:xlink="http://www.w3.org/1999/xlink" x="0px" y="0px"
	 width="512px" height="512px" viewBox="0 0 512 512" enable-background="new 0 0 512 512" xml:space="preserve">
<g>
	<path fill="#010101" d="M256,0C114.846,0,0,114.846,0,256c0,141.173,114.846,256,256,256c141.173,0,256-114.827,256-256
		C512,114.846,397.173,0,256,0 M256,19.692c130.308,0,236.308,106.014,236.308,236.308c0,49.635-15.423,95.73-41.683,133.798
		c-0.404-0.135-0.75-0.355-1.163-0.48c-47.424-14.597-115.192-44.865-122.885-68c2.403-6.385,7.865-21.923,9.442-35.962
		c5.673-5.403,16.48-17.596,17.865-33c0.827-9.116-1.904-17.966-7.885-25.736c-1.423-8.548-2.327-21.457-0.02-26.909
		c0.385-1.005,9.154-25.216-4.961-52.529c-13.385-25.899-42.077-45.293-85.347-57.654c-5.543-4.115-23.264-16.096-41.923-16.096
		c-15.558,0-35.832,7.918-43.961,45.577l-0.188,1.409c-1.673,26.024-5.813,57.519-9.274,62.899l-1.034,1.418l-0.505,1.692
		c-0.461,1.587-10.899,39.572,20.923,98.284c5.611,15.134,9.039,32.192,7.591,37.461l-2.264,2.01
		c-8.438,9.548-36.716,36.855-55.207,37.5l-1.774,0.212c-0.63,0.115-34.774,8.01-61.952,34.558
		C36.961,357.163,19.692,308.558,19.692,256C19.692,125.707,125.716,19.692,256,19.692 M256,492.298
		c-70.697,0-134.202-31.25-177.548-80.625c20.947-21.808,47.98-29.327,53.082-30.558c28.101-1.74,59.885-34.74,67.221-42.76
		c15.644-9.769,6.438-42.076-0.697-61.048l-0.553-1.221c-25.395-46.486-21.005-77.587-19.87-83.366
		c7.207-13.519,10.514-52.649,11.678-70.322c6.558-29.452,19.995-29.471,24.438-29.471c12.308,0,26.596,9.366,31.034,12.966
		l1.615,1.322l2.01,0.548c38.534,10.735,63.687,26.841,74.784,47.904c10.327,19.61,4.442,36.625,4.365,36.904
		c-5.5,12.957-1.462,35.663-0.577,40.072l0.481,2.553l1.73,1.957c3.75,4.293,5.385,8.697,4.98,13.414
		c-0.846,9.895-10.385,19.673-13.961,22.577l-3.385,2.73l-0.25,4.308c-0.827,15.355-9.442,36.577-9.539,36.779l-1.019,2.528
		l0.442,2.673c6.653,40.827,101.75,74.452,131.769,84.106C394.855,458.779,329.27,492.298,256,492.298"/>
</g>
</svg>
