<?xml version="1.0" encoding="utf-8"?>
<!-- Generator: Adobe Illustrator 15.1.0, SVG Export Plug-In . SVG Version: 6.00 Build 0)  -->
<!DOCTYPE svg PUBLIC "-//W3C//DTD SVG 1.1//EN" "http://www.w3.org/Graphics/SVG/1.1/DTD/svg11.dtd">
<svg version="1.1" id="Calque_1" xmlns="http://www.w3.org/2000/svg" xmlns:xlink="http://www.w3.org/1999/xlink" x="0px" y="0px"
	 width="512px" height="512px" viewBox="0 0 512 512" enable-background="new 0 0 512 512" xml:space="preserve">
<path d="M264.903,242.876c-24.578-10.47-35.033-17.808-35.033-32.185c0-11.633,8.188-24.639,29.933-24.639
	c18.076,0,29.694,6.503,35.615,9.933l7.024-18.672c-8.158-4.803-19.731-9.276-36.719-9.873v-27.383h-17.808v28.218
	c-25.682,4.235-42.325,22.014-42.325,45.518c0,24.549,17.777,37.822,46.576,49.157c20.925,8.441,31.946,18.076,31.946,33.616
	c0,16.077-13.558,27.681-33.9,27.681c-15.555,0-30.275-5.399-40.134-12.17l-6.785,18.94c9.902,7.04,26.576,12.17,42.982,12.438
	v28.516h17.777v-29.381c29.097-4.772,44.652-25.682,44.652-48.321C308.706,269.154,293.986,254.718,264.903,242.876 M255.985,0.015
	C114.838,0.015,0,114.854,0,255.97c0,141.236,114.838,256.016,255.985,256.016C397.161,511.985,512,397.206,512,255.97
	C512,114.854,397.161,0.015,255.985,0.015 M255.985,488.212c-128.008,0-232.197-104.16-232.197-232.242
	c0-127.962,104.189-232.122,232.197-232.122c128.007,0,232.227,104.16,232.227,232.122
	C488.212,384.052,383.992,488.212,255.985,488.212"/>
</svg>
