<?xml version="1.0" encoding="utf-8"?>
<!-- Generator: Adobe Illustrator 15.1.0, SVG Export Plug-In . SVG Version: 6.00 Build 0)  -->
<!DOCTYPE svg PUBLIC "-//W3C//DTD SVG 1.1//EN" "http://www.w3.org/Graphics/SVG/1.1/DTD/svg11.dtd">
<svg version="1.1" id="Calque_1" xmlns="http://www.w3.org/2000/svg" xmlns:xlink="http://www.w3.org/1999/xlink" x="0px" y="0px"
	 width="512px" height="512px" viewBox="0 0 512 512" enable-background="new 0 0 512 512" xml:space="preserve">
<g>
	<path d="M403.506,512l-82.583-250.675l-94.861,95.947v111.411L185,510.27l-60.078-121.591L4.768,327.91l41.07-41.567H155.97
		l94.834-95.976L3.009,106.809l43.224-43.721L349.089,90.95l51.545-52.134C404.573,34.83,439.919,0,471.601,0
		c10.346,0,19.587,3.783,26.675,10.972c27.65,27.954-4.271,75.247-27.54,98.773l-51.545,52.144l27.558,306.39L403.506,512z
		 M40.656,322.001l100.117,50.661l50.045,101.269l13.963-14.157v-111.43l125.42-126.865l82.601,250.666l11.837-11.966
		L397.118,153.78l58.577-59.268c12.334-12.472,43.813-51.895,27.54-68.353c-3.148-3.167-6.849-4.63-11.635-4.63
		c-19.532,0-46.998,23.444-55.908,32.492l-58.596,59.268L54.251,85.427L42.386,97.42l247.793,83.568L164.769,307.845H54.646
		L40.656,322.001z"/>
</g>
</svg>
