<?xml version="1.0" encoding="utf-8"?>
<!-- Generator: Adobe Illustrator 15.1.0, SVG Export Plug-In . SVG Version: 6.00 Build 0)  -->
<!DOCTYPE svg PUBLIC "-//W3C//DTD SVG 1.1//EN" "http://www.w3.org/Graphics/SVG/1.1/DTD/svg11.dtd">
<svg version="1.1" id="Calque_1" xmlns="http://www.w3.org/2000/svg" xmlns:xlink="http://www.w3.org/1999/xlink" x="0px" y="0px"
	 width="512px" height="512px" viewBox="0 0 512 512" enable-background="new 0 0 512 512" xml:space="preserve">
<g>
	<path d="M358.418,139.261c-14.552,0-28.213,3.535-40.454,9.555c-1.378-3.138-3.053-6.03-5.395-8.373
		c-13.726-13.73-41.631-10.863-78.545,8.098c-35.123,18.022-75.069,48.588-112.513,86.027
		c-29.008,29.013-53.835,59.515-72.149,88.502c-2.215-0.572-4.451-0.869-6.714-0.869c-25.913,0-41.62,39.405-42.271,41.068
		c-0.912,2.332-0.127,4.981,1.902,6.434c2.019,1.474,4.785,1.367,6.719-0.223c0.09-0.074,9.046-7.291,19.883-8.14
		c-12.845,30.068-13.508,52.271-1.495,64.279c5.708,5.724,13.879,8.554,24.122,8.554c14.382,0,32.855-5.586,54.418-16.661
		c35.107-18.028,75.068-48.572,112.507-86.017c10.853-10.853,21.038-21.918,30.598-33.015l0.858-0.105l-0.095-0.795
		c8.659-10.101,16.704-20.201,24.08-30.206c14.075,32.919,46.538,56.172,84.544,56.172c50.798,0,92.143-41.323,92.143-92.137
		C450.561,180.6,409.216,139.261,358.418,139.261z M239.037,158.296c31.849-16.369,55.832-20.047,65.764-10.105
		c9.94,9.941,6.264,33.915-10.09,65.778c-11.924,23.211-29.645,48.679-51.233,74.126l-56.029,6.655
		c-8.246,0.985-16.465-1.749-22.474-7.504c-6.025-5.744-9.12-13.81-8.51-22.118l3.794-51.651
		C187.248,190.069,214.406,170.939,239.037,158.296z M42.648,333.18c8.458,0,21.785,7.589,37.858,43.136l-9.57,8.203
		c-11.659-28.128-27.991-34.307-40.083-34.307c-4.494,0-8.744,0.848-12.522,2.066C24.397,342.771,33.057,333.18,42.648,333.18z
		 M100.913,407.771c-31.864,16.354-55.838,20.031-65.779,10.09c-8.638-8.638-6.735-28.499,4.902-54.74
		c9.565,4.122,17.397,14.933,23.333,32.42c0.578,1.717,1.987,3.042,3.747,3.529c0.477,0.127,0.954,0.191,1.441,0.191
		c1.293,0,2.56-0.456,3.572-1.314l18.611-15.962c1.833-1.568,2.421-4.144,1.468-6.337c-10.588-24.398-21.467-40.084-32.897-47.778
		c10.996-17.275,24.323-35.081,39.559-52.812l-2.771,38.758c-0.827,11.563,3.492,22.776,11.87,30.789
		c7.271,6.941,16.825,10.736,26.74,10.736c1.51,0,3.031-0.085,4.552-0.266l43.458-5.087
		C154.737,374.609,126.471,394.641,100.913,407.771z M210.676,323.737c-4.642,4.642-9.321,9.167-14.022,13.587l-58.678,6.867
		c-8.251,0.965-16.422-1.77-22.421-7.514c-6.015-5.744-9.12-13.8-8.521-22.077l3.794-52.971c5.936-6.485,12.056-12.94,18.431-19.315
		c6.354-6.354,12.782-12.41,19.236-18.324l-2.967,40.343c-0.848,11.573,3.481,22.818,11.87,30.841
		c7.271,6.953,16.809,10.747,26.729,10.747c1.532,0,3.074-0.096,4.616-0.275l43.978-5.226
		C225.683,308.242,218.37,316.042,210.676,323.737z M358.418,313.318c-36.014,0-66.484-23.465-77.433-55.832
		c9.189-13.216,17.148-26.173,23.486-38.515c12.612-24.557,17.933-44.996,16.152-60.051c11.329-5.93,24.133-9.428,37.794-9.428
		c45.149,0,81.904,36.751,81.904,81.916S403.567,313.318,358.418,313.318z"/>
	<path d="M352.345,129.022c2.841,0,5.427-2.289,5.427-5.124V82.951c0-2.835-2.586-5.124-5.427-5.124
		c-2.83,0-5.426,2.289-5.426,5.124v40.947C346.919,126.733,349.515,129.022,352.345,129.022z"/>
	<path d="M352.345,333.795c-2.83,0-5.426,2.289-5.426,5.119v40.952c0,2.83,2.596,5.119,5.426,5.119c2.841,0,5.427-2.289,5.427-5.119
		v-40.952C357.771,336.084,355.186,333.795,352.345,333.795z"/>
	<path d="M506.87,227.244h-40.952c-2.83,0-5.119,2.591-5.119,5.426c0,2.83,2.289,5.427,5.119,5.427h40.952
		c2.83,0,5.13-2.597,5.13-5.427C512,229.835,509.7,227.244,506.87,227.244z"/>
	<path d="M438.044,303.812c-1.992-2.014-5.226-2.014-7.239-0.011c-1.992,1.993-1.992,5.236,0,7.25l28.955,28.955
		c1.018,0.996,2.311,1.494,3.625,1.494s2.618-0.498,3.614-1.494c2.014-1.993,2.014-5.247,0-7.239L438.044,303.812z"/>
	<path d="M434.43,160.506c1.314,0,2.618-0.499,3.614-1.495l28.965-28.955c2.004-2.008,2.004-5.246,0-7.238
		c-2.003-2.009-5.235-2.009-7.238,0l-28.955,28.955c-2.003,1.992-2.003,5.241,0,7.238
		C431.812,160.007,433.115,160.506,434.43,160.506z"/>
</g>
</svg>
