<?xml version="1.0" encoding="utf-8"?>
<!-- Generator: Adobe Illustrator 15.1.0, SVG Export Plug-In . SVG Version: 6.00 Build 0)  -->
<!DOCTYPE svg PUBLIC "-//W3C//DTD SVG 1.1//EN" "http://www.w3.org/Graphics/SVG/1.1/DTD/svg11.dtd">
<svg version="1.1" id="Calque_1" xmlns="http://www.w3.org/2000/svg" xmlns:xlink="http://www.w3.org/1999/xlink" x="0px" y="0px"
	 width="512px" height="512px" viewBox="0 0 512 512" enable-background="new 0 0 512 512" xml:space="preserve">
<g>
	<path d="M293.086,320.298v-72.707c0-5.006-4.138-9.08-9.238-9.08s-9.223,4.074-9.223,9.08v72.707c0,5.022,4.122,9.081,9.223,9.081
		S293.086,325.32,293.086,320.298z"/>
	<path d="M384.807,320.298v-72.707c0-5.006-4.138-9.08-9.238-9.08c-5.085,0-9.223,4.074-9.223,9.08v72.707
		c0,5.022,4.138,9.081,9.223,9.081C380.669,329.379,384.807,325.32,384.807,320.298z"/>
	<path d="M338.946,320.298v-72.707c0-5.006-4.122-9.08-9.238-9.08c-5.101,0-9.223,4.074-9.223,9.08v72.707
		c0,5.022,4.122,9.081,9.223,9.081C334.824,329.379,338.946,325.32,338.946,320.298z"/>
	<path d="M430.398,320.298v-72.707c0-5.006-4.074-9.08-9.096-9.08c-5.038,0-9.097,4.074-9.097,9.08v72.707
		c0,5.022,4.059,9.081,9.097,9.081C426.324,329.379,430.398,325.32,430.398,320.298z"/>
	<path d="M419.107,409.871c-25.757,0-46.713,20.593-46.713,45.876c0,25.314,20.956,45.907,46.713,45.907
		s46.729-20.593,46.729-45.907C465.836,430.464,444.864,409.871,419.107,409.871z M419.107,483.51
		c-15.587,0-28.269-12.444-28.269-27.763c0-15.271,12.682-27.763,28.269-27.763c15.57,0,28.268,12.492,28.268,27.763
		C447.375,471.065,434.678,483.51,419.107,483.51z"/>
	<path d="M216.044,409.871c-25.757,0-46.713,20.593-46.713,45.876c0,25.314,20.956,45.907,46.713,45.907
		c25.765,0,46.737-20.593,46.737-45.907C262.781,430.464,241.809,409.871,216.044,409.871z M216.044,483.51
		c-15.587,0-28.268-12.444-28.268-27.763c0-15.271,12.681-27.763,28.268-27.763c15.595,0,28.275,12.492,28.275,27.763
		C244.319,471.065,231.639,483.51,216.044,483.51z"/>
	<path d="M247.226,320.298v-72.707c0-5.006-4.074-9.08-9.089-9.08c-5.029,0-9.088,4.074-9.088,9.08v72.707
		c0,5.022,4.059,9.081,9.088,9.081C243.151,329.379,247.226,325.32,247.226,320.298z"/>
	<path d="M503.99,157.252c-1.832-0.229-3.506,0.222-5.069,0.916c-1.312-0.742-2.78-1.295-4.422-1.295h-27.794l0.126-100.746H351.754
		l-28.679-28.623l-21.193,21.249l0.174-38.407h-64.068l-0.253,102.736l-19.487,19.534l19.416,20.009v4.248h-54.554
		c-5.069,0-9.159,4.082-9.159,9.072c0,5.015,4.09,9.073,9.159,9.073h309.146l-28.694,210.644H162.438
		c-0.047-0.269,0-0.537-0.079-0.806L83.138,137.086c-0.601-1.896-1.896-3.316-3.396-4.414c-1.666-1.801-3.995-2.961-6.664-2.961
		H9.12c-5.046,0-9.12,4.043-9.12,9.057s4.074,9.057,9.12,9.057h58.083l77.548,242.48c0.528,1.705,1.595,3.063,2.874,4.121
		c0.568,4.628,3.395,9.523,7.975,9.523h311.231c2.337,0,5.195-1.358,7.628-3.206c3.442-0.964,6.174-3.743,6.68-7.423l30.778-225.866
		C512.597,162.472,509.027,157.932,503.99,157.252z M256.29,28.673h27.463l-0.269,38.24L255.99,94.455L256.29,28.673z
		 M379.169,156.826H268.482l-23.294-25.386l77.918-78.124l78.408,78.281L379.169,156.826z M448.528,156.826h-36.622l11.465-19.891
		l4.548-4.737l-1.152-1.146l0.773-1.311L375.3,74.438h73.229V156.826z"/>
	<path d="M201.365,320.298v-72.707c0-5.006-4.09-9.08-9.104-9.08c-5.014,0-9.088,4.074-9.088,9.08v72.707
		c0,5.022,4.074,9.081,9.088,9.081C197.275,329.379,201.365,325.32,201.365,320.298z"/>
</g>
</svg>
