<?xml version="1.0" encoding="utf-8"?>
<!-- Generator: Adobe Illustrator 15.1.0, SVG Export Plug-In . SVG Version: 6.00 Build 0)  -->
<!DOCTYPE svg PUBLIC "-//W3C//DTD SVG 1.1//EN" "http://www.w3.org/Graphics/SVG/1.1/DTD/svg11.dtd">
<svg version="1.1" id="Calque_1" xmlns="http://www.w3.org/2000/svg" xmlns:xlink="http://www.w3.org/1999/xlink" x="0px" y="0px"
	 width="512px" height="512px" viewBox="0 0 512 512" enable-background="new 0 0 512 512" xml:space="preserve">
<g>
	<path d="M503.476,491.017h-37.623V205.639h16.787v-67.147h-16.787v-33.573h-16.787V4.196H62.967v100.722H29.394v33.573H12.606
		v67.147h16.787v285.378H8.524c-4.713,0-8.524,3.672-8.524,8.394c0,4.721,3.812,8.394,8.524,8.394h25.606h443.738h25.606
		c4.721,0,8.524-3.673,8.524-8.394C512,494.688,508.196,491.017,503.476,491.017 M79.754,20.983h352.524v83.935H79.754V20.983z
		 M46.18,121.705h13.549h392.549h-3.213v16.786H46.18V121.705z M449.065,491.017H46.18V205.639h402.885V491.017z M29.394,155.278
		h436.459v33.574H29.394V155.278z"/>
	<path d="M146.901,222.426H79.754v100.722h67.147V222.426z M130.115,306.36H96.541v-67.147h33.574V306.36z"/>
	<path d="M297.983,222.426h-83.934v100.722h83.934V222.426z M281.196,306.36h-50.36v-67.147h50.36V306.36z"/>
	<path d="M297.983,356.722h-83.934v100.721h83.934V356.722z M281.196,440.655h-50.36v-67.147h50.36V440.655z"/>
	<path d="M146.901,356.722H79.754v100.721h67.147V356.722z M130.115,440.655H96.541v-67.147h33.574V440.655z"/>
	<path d="M432.278,222.426h-83.935v100.722h83.935V222.426z M415.492,306.36h-50.361v-67.147h50.361V306.36z"/>
	<path d="M432.278,356.722h-83.935v100.721h83.935V356.722z M415.492,440.655h-50.361v-67.147h50.361V440.655z"/>
	<polygon points="264.41,54.558 247.615,54.558 247.615,37.771 230.828,37.771 230.828,88.131 247.615,88.131 247.615,71.344 
		264.41,71.344 264.41,88.131 281.196,88.131 281.196,37.771 264.41,37.771 	"/>
</g>
</svg>
