<?xml version="1.0" encoding="utf-8"?>
<!-- Generator: Adobe Illustrator 15.1.0, SVG Export Plug-In . SVG Version: 6.00 Build 0)  -->
<!DOCTYPE svg PUBLIC "-//W3C//DTD SVG 1.1//EN" "http://www.w3.org/Graphics/SVG/1.1/DTD/svg11.dtd">
<svg version="1.1" id="Calque_1" xmlns="http://www.w3.org/2000/svg" xmlns:xlink="http://www.w3.org/1999/xlink" x="0px" y="0px"
	 width="512px" height="512px" viewBox="0 0 512 512" enable-background="new 0 0 512 512" xml:space="preserve">
<g>
	<g>
		<path d="M506.517,311.68c-14.438-74.889-54.054-147.847-111.597-205.371C300.011,11.391,163.851,4.024,124.381,4.024
			c-37.983,0-84.487,5.917-101.139,22.587c-35.786,35.769-44.445,247.536,79.716,371.668
			c80.857,80.879,190.609,109.694,266.318,109.694c47.89,0,86.308-10.929,105.357-29.979
			C508.158,444.47,520.086,382.311,506.517,311.68z M459.494,462.856c-14.822,14.859-48.568,23.702-90.219,23.702
			c-71.426,0-174.956-27.154-251.209-103.398C2.086,267.188,12.729,67.383,38.362,41.731c6.333-6.313,35.242-16.329,86.021-16.329
			c37.393,0,166.344,6.941,255.418,96.034c54.534,54.534,92.084,123.552,105.688,194.304
			C497.692,379.357,488.019,434.371,459.494,462.856z"/>
		<path d="M388.126,180.374l-24.442,29.325c-7.2-9.683-14.954-18.47-22.966-26.565l24.055-28.882l-16.431-13.671l-23.226,27.849
			c-12.203-10.551-24.535-19.412-36.237-26.861l22.67-27.221l-16.448-13.707l-24.83,29.814
			c-23.704-13.043-41.501-19.153-43.393-19.781l-6.785,20.289c0.416,0.129,15.388,5.354,36.055,16.449l-27.57,33.082l16.447,13.68
			l29.844-35.824c11.686,7.32,24.092,16.19,36.35,26.769l-29.427,35.298l16.447,13.707l28.521-34.254
			c8.031,8.188,15.618,17.159,22.597,27.009l-27.766,33.313l16.448,13.719l23.299-27.969c4.394,7.92,8.491,16.145,11.813,25.016
			l20.03-7.516c-4.745-12.646-10.615-24.268-17.15-35.142l28.522-34.254L388.126,180.374z"/>
	</g>
</g>
</svg>
