<?xml version="1.0" encoding="utf-8"?>
<!-- Generator: Adobe Illustrator 15.1.0, SVG Export Plug-In . SVG Version: 6.00 Build 0)  -->
<!DOCTYPE svg PUBLIC "-//W3C//DTD SVG 1.1//EN" "http://www.w3.org/Graphics/SVG/1.1/DTD/svg11.dtd">
<svg version="1.1" id="Calque_1" xmlns="http://www.w3.org/2000/svg" xmlns:xlink="http://www.w3.org/1999/xlink" x="0px" y="0px"
	 width="512px" height="512px" viewBox="0 0 512 512" enable-background="new 0 0 512 512" xml:space="preserve">
<g>
	<path d="M469.929,449.683h-82.812c-23.188,0-42.071-18.871-42.071-42.058V198.293c0-16.374,9.09-31.078,23.722-38.394
		c10.081-5.034,16.354-15.174,16.354-26.429V95.756h86.816v37.715c0,11.255,6.26,21.395,16.34,26.429
		c14.62,7.315,23.723,22.02,23.723,38.394v209.332C512,430.812,493.129,449.683,469.929,449.683 M398.476,109.109v24.361
		c0,16.36-9.103,31.058-23.735,38.381c-10.08,5.034-16.327,15.167-16.327,26.441v209.332c0,15.832,12.872,28.703,28.704,28.703
		h82.812c15.845,0,28.717-12.871,28.717-28.703V198.293c0-11.274-6.272-21.407-16.354-26.441
		c-14.633-7.323-23.709-22.021-23.709-38.381v-24.361H398.476z"/>
	<path d="M471.924,109.109h-86.815V55.68h86.815V109.109z M398.476,95.756h60.107V69.047h-60.107V95.756z"/>
	<path d="M431.861,419.179c-28.078,0-50.092-41.066-50.092-93.492s22.014-93.493,50.092-93.493
		c28.091,0,50.092,41.067,50.092,93.493S459.952,419.179,431.861,419.179 M431.861,245.548c-17.736,0-36.725,32.199-36.725,80.139
		c0,47.927,18.988,80.139,36.725,80.139s36.725-32.212,36.725-80.139C468.586,277.747,449.598,245.548,431.861,245.548"/>
	<path d="M204.689,211.021c-10.896,0-19.575,1.585-27.96,3.124c-8.522,1.564-16.563,3.045-27.067,3.045
		c-10.524,0-18.551-1.48-27.074-3.045c-8.399-1.539-17.064-3.124-27.96-3.124C42.449,211.021,0,266.035,0,333.668
		C0,403.869,56.794,456.32,107.577,456.32c12.155,0,18.388-3.82,23.892-7.173c4.995-3.051,8.934-5.477,18.193-5.477
		c9.24,0,13.178,2.426,18.186,5.477c5.503,3.353,11.724,7.173,23.904,7.173c50.757,0,107.558-52.451,107.558-122.652
		C299.31,266.035,256.86,211.021,204.689,211.021 M191.752,442.967c-8.412,0-12.18-2.309-16.947-5.217
		c-5.706-3.469-12.155-7.434-25.144-7.434c-13.009,0-19.458,3.965-25.163,7.434c-4.754,2.908-8.522,5.217-16.921,5.217
		c-43.571,0-94.223-47.758-94.223-109.299c0-60.264,36.457-109.306,81.273-109.306c9.664,0,17.384,1.415,25.561,2.921
		c8.718,1.591,17.73,3.261,29.474,3.261c11.724,0,20.749-1.67,29.466-3.261c8.177-1.506,15.884-2.921,25.561-2.921
		c44.803,0,81.267,49.042,81.267,109.306C285.956,395.209,235.31,442.967,191.752,442.967 M145.495,203.15l13.152,2.328
		c3.508-19.687,0.228-60.361-37.383-73.448l-4.375,12.604C153.065,157.226,145.827,201.272,145.495,203.15 M202.166,179.892
		c25.802,0,56.69-11.737,61.529-29.22c1.564-5.607,1.683-16.522-15.004-26.538c-8.985-5.38-18.095-8.105-27.12-8.105
		c-35.766,0-56.592,42.123-57.466,43.923l-2.067,4.277l3.352,3.352C175.568,177.753,191.002,179.892,202.166,179.892
		 M221.571,129.383c6.573,0,13.368,2.086,20.247,6.214c3.913,2.348,10.27,6.957,9.012,11.509
		c-2.432,8.744-25.359,19.432-48.664,19.432c-9.709,0-17.827-1.897-23.474-5.386C184.566,151.351,200.111,129.383,221.571,129.383"
		/>
</g>
</svg>
