<?xml version="1.0" encoding="utf-8"?>
<!-- Generator: Adobe Illustrator 15.1.0, SVG Export Plug-In . SVG Version: 6.00 Build 0)  -->
<!DOCTYPE svg PUBLIC "-//W3C//DTD SVG 1.1//EN" "http://www.w3.org/Graphics/SVG/1.1/DTD/svg11.dtd">
<svg version="1.1" id="Calque_1" xmlns="http://www.w3.org/2000/svg" xmlns:xlink="http://www.w3.org/1999/xlink" x="0px" y="0px"
	 width="512px" height="512px" viewBox="0 0 512 512" enable-background="new 0 0 512 512" xml:space="preserve">
<g>
	<path d="M509.469,369.29L399.336,259.207c7.873-18.695,12.23-39.219,12.23-60.741c0-86.581-70.419-157-156.975-157
		c-86.581,0-157,70.419-157,157c0,22.278,4.675,43.483,13.081,62.7L2.548,369.29c-2.414,2.414-3.189,5.972-1.995,9.199
		c1.144,3.202,4.079,5.413,7.497,5.642l72.706,5.591l5.565,72.731c0.292,3.405,2.503,6.328,5.706,7.497
		c0.953,0.406,1.995,0.584,3.011,0.584c2.262,0,4.498-0.94,6.163-2.592l116.823-116.786c11.738,2.811,23.98,4.31,36.568,4.31
		c13.394,0,26.401-1.69,38.821-4.863l117.379,117.365c1.639,1.626,3.875,2.541,6.162,2.541c1.017,0,2.033-0.152,3.024-0.533
		c3.177-1.194,5.413-4.117,5.667-7.497l5.591-72.757l72.744-5.591c3.38-0.254,6.315-2.465,7.484-5.667
		S511.857,371.704,509.469,369.29z M102.293,442.225l-4.727-61.271c-0.343-4.295-3.723-7.7-8.043-8.005l-61.257-4.727l90.725-90.712
		c18.053,30.85,46.327,55.02,80.146,67.831L102.293,442.225z M219.111,333.453c-0.432-0.199-0.876-0.377-1.343-0.504
		c-38.78-10.622-71.105-37.509-88.69-73.798c-0.178-0.362-0.384-0.705-0.606-1.035c-8.592-18.101-13.409-38.325-13.409-59.65
		c0-76.95,62.579-139.542,139.528-139.542c76.924,0,139.542,62.592,139.542,139.542c0,76.924-62.617,139.566-139.542,139.566
		C242.334,338.032,230.444,336.437,219.111,333.453z M422.442,372.924c-4.295,0.33-7.7,3.735-8.043,8.03l-4.676,61.271
		l-96.988-96.976c33.673-12.681,62.008-36.619,80.178-67.801l90.787,90.774L422.442,372.924z"/>
</g>
</svg>
