<?xml version="1.0" encoding="utf-8"?>
<!-- Generator: Adobe Illustrator 15.1.0, SVG Export Plug-In . SVG Version: 6.00 Build 0)  -->
<!DOCTYPE svg PUBLIC "-//W3C//DTD SVG 1.1//EN" "http://www.w3.org/Graphics/SVG/1.1/DTD/svg11.dtd">
<svg version="1.1" id="Calque_1" xmlns="http://www.w3.org/2000/svg" xmlns:xlink="http://www.w3.org/1999/xlink" x="0px" y="0px"
	 width="512px" height="512px" viewBox="0 0 512 512" enable-background="new 0 0 512 512" xml:space="preserve">
<g>
	<path fill="#010101" d="M408.652,334.067c0-24.896-28.201-45.144-62.857-45.144h-19.607c-5.393-28.052-9.436-70.617,0.07-84.525
		c4.473-6.546,8.576-12.294,12.364-17.591c15.241-21.309,26.255-36.707,33.849-67.236c6.419-25.843-0.859-55.592-19.484-79.571
		C333.238,14.562,304.44,0,273.959,0h-35.918c-30.486,0-59.283,14.562-79.027,40c-18.625,23.979-25.908,53.729-19.489,79.571
		c7.599,30.529,18.617,45.928,33.854,67.236c3.792,5.297,7.896,11.045,12.364,17.591c9.501,13.908,5.463,56.474,0.074,84.525
		h-19.612c-34.65,0-62.856,20.248-62.856,45.144c0,18.984,16.425,35.243,39.593,41.898c-4.897,10.365-9.208,27.254-3.416,50.571
		c2.284,9.155,4.547,17.152,6.546,24.133c4.188,14.749,7.805,27.499,4.806,30.507l-17.959,18.056L145.614,512l17.959-18.055
		c10.471-10.523,6.204-25.527-0.24-48.23c-1.934-6.831-4.161-14.636-6.367-23.545c-5.884-23.659,1.123-37.76,4.749-43.126
		c1.49,0.079,2.973,0.166,4.489,0.166h15.715c-2.749,13.146-6.735,35.463-6.735,54.167h17.959c0-18.818,4.652-42.67,7.156-54.167
		h93.443c2.508,11.497,7.155,35.349,7.155,54.167h17.959c0-18.704-3.989-41.021-6.734-54.167h24.036
		c3.665,5.508,10.453,19.573,4.639,42.96c-2.21,8.909-4.438,16.714-6.366,23.545c-6.454,22.703-10.716,37.707-0.245,48.23
		L352.145,512l12.697-12.768l-17.959-18.056c-2.999-3.008,0.622-15.758,4.806-30.507c1.999-6.98,4.262-14.978,6.541-24.133
		c5.332-21.467,2.097-37.471-2.271-47.976C385.791,375.063,408.652,356.472,408.652,334.067 M200.544,194.191
		c-4.547-6.682-8.729-12.526-12.592-17.924c-15.123-21.129-24.233-33.91-30.986-61.09c-5.112-20.48,0.961-44.438,16.206-64.059
		c16.314-21.015,39.969-33.063,64.869-33.063h35.918c24.904,0,48.555,12.049,64.865,33.063
		c15.249,19.621,21.317,43.578,16.214,64.059c-6.752,27.18-15.872,39.961-30.99,61.09c-3.858,5.397-8.05,11.242-12.592,17.924
		c-14.601,21.379-7.69,71.793-3.543,94.732H204.091C208.239,265.984,215.145,215.57,200.544,194.191 M345.795,361.138H166.204
		c-23.922,0-44.897-12.646-44.897-27.07c0-14.426,20.976-27.088,44.897-27.088h179.591c23.923,0,44.898,12.662,44.898,27.088
		C390.693,348.492,369.718,361.138,345.795,361.138"/>
</g>
</svg>
