<?xml version="1.0" encoding="utf-8"?>
<!-- Generator: Adobe Illustrator 15.1.0, SVG Export Plug-In . SVG Version: 6.00 Build 0)  -->
<!DOCTYPE svg PUBLIC "-//W3C//DTD SVG 1.1//EN" "http://www.w3.org/Graphics/SVG/1.1/DTD/svg11.dtd">
<svg version="1.1" id="Calque_1" xmlns="http://www.w3.org/2000/svg" xmlns:xlink="http://www.w3.org/1999/xlink" x="0px" y="0px"
	 width="512px" height="512px" viewBox="0 0 512 512" enable-background="new 0 0 512 512" xml:space="preserve">
<g>
	<path d="M437.948,76.012l-0.361-0.565l-0.588-0.407C390.667,28.98,326.888,0.48,256.554,0.48S122.395,28.98,76.108,75.041
		l-0.588,0.407l-0.384,0.565C29.031,122.344,0.531,186.124,0.531,256.48c0,70.311,28.5,134.136,74.605,180.423l0.384,0.587
		l0.588,0.407c46.287,46.016,110.111,74.583,180.445,74.583s134.113-28.567,180.445-74.583l0.588-0.407l0.361-0.587
		c46.105-46.287,74.628-110.112,74.628-180.423C512.576,186.124,484.054,122.344,437.948,76.012 M430.625,417.149l-39.958-40.003
		c-3.706-3.707-9.718-3.707-13.425,0c-3.706,3.706-3.706,9.718,0,13.425l40.004,40.003c-40.14,37.021-92.98,60.39-151.2,62.695
		v-56.638c0-5.243-4.249-9.492-9.492-9.492c-5.244,0-9.493,4.249-9.493,9.492v56.638c-58.242-2.306-111.105-25.675-151.177-62.695
		l39.981-40.003c3.706-3.707,3.706-9.719,0-13.425c-3.707-3.707-9.719-3.707-13.425,0l-39.936,40.003
		c-37.088-40.094-60.458-92.979-62.763-151.222h56.638c5.244,0,9.493-4.204,9.493-9.448c0-5.221-4.249-9.492-9.493-9.492H19.742
		c2.305-58.22,25.675-111.083,62.763-151.222l39.936,40.003c1.854,1.853,4.317,2.78,6.712,2.78c2.418,0,4.859-0.927,6.713-2.78
		c3.706-3.707,3.706-9.718,0-13.425L95.884,82.408c40.071-37.088,92.935-60.457,151.177-62.717v56.593
		c0,5.289,4.249,9.492,9.493,9.492c5.243,0,9.492-4.204,9.492-9.492V19.691c58.22,2.26,111.061,25.629,151.2,62.717l-40.004,39.936
		c-3.706,3.707-3.706,9.718,0,13.425c1.854,1.853,4.249,2.78,6.689,2.78c2.441,0,4.882-0.927,6.735-2.78l39.958-40.003
		c37.065,40.139,60.436,93.002,62.695,151.222h-56.593c-5.243,0-9.492,4.271-9.492,9.492c0,5.244,4.249,9.448,9.492,9.448h56.593
		C491.061,324.17,467.69,377.056,430.625,417.149"/>
	<path d="M266.046,219.889v-86.697c0-5.221-4.249-9.492-9.492-9.492c-5.244,0-9.493,4.271-9.493,9.492v86.697
		c-13.244,3.481-23.64,13.832-27.076,27.076h-39.303c-5.221,0-9.493,4.249-9.493,9.492c0,5.266,4.272,9.493,9.493,9.493h39.303
		c4.204,16.272,18.939,28.477,36.568,28.477c20.883,0,37.924-17.041,37.924-37.969C294.478,238.829,282.318,224.138,266.046,219.889
		 M256.554,275.442c-10.487,0-18.985-8.521-18.985-18.985s8.498-18.939,18.985-18.939c10.441,0,18.939,8.475,18.939,18.939
		S266.995,275.442,256.554,275.442"/>
</g>
</svg>
