<?xml version="1.0" encoding="utf-8"?>
<!-- Generator: Adobe Illustrator 15.1.0, SVG Export Plug-In . SVG Version: 6.00 Build 0)  -->
<!DOCTYPE svg PUBLIC "-//W3C//DTD SVG 1.1//EN" "http://www.w3.org/Graphics/SVG/1.1/DTD/svg11.dtd">
<svg version="1.1" id="Calque_1" xmlns="http://www.w3.org/2000/svg" xmlns:xlink="http://www.w3.org/1999/xlink" x="0px" y="0px"
	 width="512px" height="512px" viewBox="0 0 512 512" enable-background="new 0 0 512 512" xml:space="preserve">
<g>
	<path d="M374.528,171.445h-48.734V5.521c0-3.048-2.473-5.521-5.52-5.521H187.787c-3.048,0-5.521,2.473-5.521,5.521v165.925h-44.795
		c-3.048,0-5.521,2.473-5.521,5.521v329.5c0,3.048,2.473,5.521,5.521,5.521h50.045c0.09,0.004,0.179,0.014,0.271,0.014h132.487
		c0.092,0,0.181-0.01,0.271-0.014h53.983c3.048,0,5.521-2.473,5.521-5.521v-329.5C380.049,173.918,377.576,171.445,374.528,171.445z
		 M193.307,11.041h121.447v160.974c-1.829,0.9-3.091,2.776-3.091,4.951s1.262,4.051,3.091,4.951V500.96H195.1
		c-0.097-0.005-0.192-0.015-0.29-0.015h-1.503V182.486h1.503c3.048,0,5.521-2.473,5.521-5.521s-2.473-5.521-5.521-5.521h-1.503
		V11.041z M142.992,182.486h39.274v318.459h-39.274V182.486z M369.008,500.945h-43.214V182.486h43.214V500.945z"/>
</g>
</svg>
