<?xml version="1.0" encoding="utf-8"?>
<!-- Generator: Adobe Illustrator 15.1.0, SVG Export Plug-In . SVG Version: 6.00 Build 0)  -->
<!DOCTYPE svg PUBLIC "-//W3C//DTD SVG 1.1//EN" "http://www.w3.org/Graphics/SVG/1.1/DTD/svg11.dtd">
<svg version="1.1" id="Calque_1" xmlns="http://www.w3.org/2000/svg" xmlns:xlink="http://www.w3.org/1999/xlink" x="0px" y="0px"
	 width="512px" height="512px" viewBox="0 0 512 512" enable-background="new 0 0 512 512" xml:space="preserve">
<g>
	<path d="M279.609,23.528L417.871,169.9H279.609V23.528z M61.736,0v388.509h107.918v-21.581H83.317V21.582H256.01v172.663h172.673
		v172.683h-87.678l0.342,19.665l0.988,1.916h107.928V169.9L279.609,0H61.736z"/>
	<path d="M321.078,430.019c-2.037-2.018-4.699-3.006-7.363-3.006c-2.742,0-5.484,1.049-7.521,3.127l-45.727,46.672V278.523
		c0-5.829-4.739-10.549-10.548-10.549c-5.829,0-10.539,4.72-10.539,10.549v197.865l-45.14-44.232
		c-2.037-1.997-4.73-3.005-7.372-3.005c-2.743,0-5.476,1.068-7.534,3.146c-4.074,4.154-4.014,10.851,0.162,14.925l63.141,61.881
		c3.398,3.349,8.492,3.731,12.455,1.473c1.563-0.504,3.056-1.271,4.287-2.521l61.859-63.131
		C325.313,440.769,325.252,434.093,321.078,430.019z"/>
</g>
</svg>
