<?xml version="1.0" encoding="utf-8"?>
<!-- Generator: Adobe Illustrator 15.1.0, SVG Export Plug-In . SVG Version: 6.00 Build 0)  -->
<!DOCTYPE svg PUBLIC "-//W3C//DTD SVG 1.1//EN" "http://www.w3.org/Graphics/SVG/1.1/DTD/svg11.dtd">
<svg version="1.1" id="Calque_1" xmlns="http://www.w3.org/2000/svg" xmlns:xlink="http://www.w3.org/1999/xlink" x="0px" y="0px"
	 width="512px" height="512px" viewBox="0 0 512 512" enable-background="new 0 0 512 512" xml:space="preserve">
<g>
	<path d="M512,256.033C512,114.843,397.156,0,256,0C114.855,0,0,114.843,0,256.033C0,397.156,114.855,512,256,512
		c22.638,0,45.095-2.959,66.769-8.809l-5.536-20.598c-19.881,5.335-40.455,8.069-61.232,8.069
		c-129.4,0-234.674-105.273-234.674-234.63C21.326,126.588,126.6,21.337,256,21.337c129.39,0,234.663,105.251,234.663,234.696
		c0,38.651-9.683,76.888-27.859,110.754l-1.009-1.009c-0.313,0.313-31.714,30.728-56.592,20.463
		c-15.891-6.59-42.563-36.398-42.563-162.247h-2.129c-9.906-48.636-53.007-85.326-104.512-85.326
		c-58.822,0-106.651,47.852-106.651,106.651c0,58.823,47.829,106.674,106.651,106.674c37.452,0,70.78-19.051,89.898-49.039
		c7.441,57.646,24.251,91.87,51.146,102.987c6.388,2.645,12.864,3.765,19.163,3.765c31.4,0,59.259-27.433,60.671-28.822
		l-10.13-10.108l14.12,7.688C501.22,341.124,512,298.764,512,256.033 M339.22,264.293c-8.854,39.088-43.078,66.387-83.22,66.387
		c-47.056,0-85.337-38.281-85.337-85.36c0-47.056,38.281-85.337,85.337-85.337c47.045,0,85.326,38.281,85.326,85.337
		C341.326,251.741,340.608,258.096,339.22,264.293"/>
</g>
</svg>
