<?xml version="1.0" encoding="utf-8"?>
<!-- Generator: Adobe Illustrator 15.1.0, SVG Export Plug-In . SVG Version: 6.00 Build 0)  -->
<!DOCTYPE svg PUBLIC "-//W3C//DTD SVG 1.1//EN" "http://www.w3.org/Graphics/SVG/1.1/DTD/svg11.dtd">
<svg version="1.1" id="Calque_1" xmlns="http://www.w3.org/2000/svg" xmlns:xlink="http://www.w3.org/1999/xlink" x="0px" y="0px"
	 width="512px" height="512px" viewBox="0 0 512 512" enable-background="new 0 0 512 512" xml:space="preserve">
<g>
	<path fill="#010101" d="M446.366,275.672L512,210.048L341.335,39.382l-65.634,65.625l13.127,13.136l-26.254,26.253l-26.267-26.271
		l13.127-13.117l-65.643-65.625L0,223.175l65.638,65.633l13.127-13.127l196.928,196.938L433.222,315.07l-26.254-26.263
		l26.271-26.263L446.366,275.672z M26.263,223.175L183.792,65.636l39.38,39.371L65.638,262.555L26.263,223.175z M387.278,334.77
		l-59.07-59.098c-3.626-3.635-9.51-3.635-13.127,0c-3.626,3.636-3.626,9.51,0,13.136l59.07,59.089l-26.254,26.253l-59.079-59.079
		c-3.626-3.636-9.509-3.636-13.126,0c-3.627,3.635-3.627,9.51,0,13.127l59.079,59.079h0.009l-26.263,26.253l-59.083-59.07
		c-3.631-3.626-9.505-3.626-13.127,0c-3.631,3.636-3.631,9.501,0,13.127l59.083,59.07l-19.698,19.708L91.892,262.555l131.28-131.285
		l26.263,26.271l-72.206,72.196l52.516,52.507l72.21-72.196L406.968,315.07L387.278,334.77z M393.841,275.672l-85.323-85.296
		c-3.626-3.645-9.5-3.645-13.127,0l-65.646,65.615l-26.263-26.254l65.656-65.633l32.816-32.835l118.141,118.158L393.841,275.672z
		 M341.335,65.636l144.411,144.412l-39.38,39.38L301.954,105.007L341.335,65.636z"/>
</g>
</svg>
