<?xml version="1.0" encoding="utf-8"?>
<!-- Generator: Adobe Illustrator 15.1.0, SVG Export Plug-In . SVG Version: 6.00 Build 0)  -->
<!DOCTYPE svg PUBLIC "-//W3C//DTD SVG 1.1//EN" "http://www.w3.org/Graphics/SVG/1.1/DTD/svg11.dtd">
<svg version="1.1" id="Calque_1" xmlns="http://www.w3.org/2000/svg" xmlns:xlink="http://www.w3.org/1999/xlink" x="0px" y="0px"
	 width="512px" height="512px" viewBox="0 0 512 512" enable-background="new 0 0 512 512" xml:space="preserve">
<path d="M52.3,470.754c-7.426,0-11.855-0.254-11.855-0.254l-24.455-1.518l19.463-14.992c13.289-10.182,24.428-34.791,32.345-71.242
	C24.062,345.031,0,296.262,0,244.792C0,132.542,114.865,41.247,256.014,41.247C397.135,41.247,512,132.542,512,244.792
	c0,112.194-114.865,203.462-255.986,203.462c-28.195,0-55.815-3.602-82.253-10.717C138.195,467.436,77.444,470.754,52.3,470.754
	 M256.014,59.641c-131.122,0-237.774,83.083-237.774,185.151c0,47.476,23.204,92.675,65.378,127.298l4.262,3.516l-1.125,5.428
	c-6.301,31.219-14.893,55.041-25.553,71.215c27.423-0.844,77.163-6.049,103.98-31.613l3.77-3.545l4.95,1.406
	c26.297,7.566,53.917,11.363,82.112,11.363c131.136,0,237.774-83,237.774-185.067C493.788,142.724,387.149,59.641,256.014,59.641"/>
</svg>
