<?xml version="1.0" encoding="utf-8"?>
<!-- Generator: Adobe Illustrator 15.1.0, SVG Export Plug-In . SVG Version: 6.00 Build 0)  -->
<!DOCTYPE svg PUBLIC "-//W3C//DTD SVG 1.1//EN" "http://www.w3.org/Graphics/SVG/1.1/DTD/svg11.dtd">
<svg version="1.1" id="Calque_1" xmlns="http://www.w3.org/2000/svg" xmlns:xlink="http://www.w3.org/1999/xlink" x="0px" y="0px"
	 width="512px" height="512px" viewBox="0 0 512 512" enable-background="new 0 0 512 512" xml:space="preserve">
<g>
	<path d="M465.508,511.75H46.912c-25.734,0-46.668-20.556-46.668-45.816V45.54c0-25.234,20.934-45.776,46.668-45.776h418.596
		c25.774,0,46.735,20.542,46.735,45.776v420.394C512.243,491.194,491.282,511.75,465.508,511.75z M46.912,20.535
		c-14.28,0-25.896,11.21-25.896,25.004v420.394c0,13.82,11.616,25.045,25.896,25.045h418.596c14.307,0,25.964-11.225,25.964-25.045
		V45.54c0-13.794-11.657-25.004-25.964-25.004H46.912z M439.597,439.131h-93.58V314.745c0-35.796-3.976-51.767-27.479-51.767
		c-24.315,0-33.349,13.496-33.349,49.792v126.36h-93.54V183.908h90.646v15.065c14.01-11.738,34.024-20.88,59.502-20.88
		c86.169,0,97.799,61.679,97.799,122.019V439.131z M366.788,418.359h52.037V300.112c0-62.504-12.874-101.248-77.027-101.248
		c-31.482,0-51.848,17.418-59.719,32.334l-2.921,5.531h-16.66l-0.974-10.386V204.68h-49.103v213.68h51.996V312.771
		c0-17.445,0-70.564,54.12-70.564c48.25,0,48.25,47.182,48.25,72.539V418.359z M166.727,439.131H73.079V183.908h93.648V439.131z
		 M93.851,418.359h52.105V204.68H93.851V418.359z M119.91,172.644c-29.021,0-52.619-23.611-52.619-52.632
		c0-29.021,23.598-52.619,52.619-52.619c29.007,0,52.605,23.598,52.605,52.619C172.515,149.032,148.917,172.644,119.91,172.644z
		 M119.91,88.164c-17.566,0-31.847,14.281-31.847,31.847s14.281,31.861,31.847,31.861c17.553,0,31.833-14.294,31.833-31.861
		S137.463,88.164,119.91,88.164z"/>
</g>
</svg>
