<?xml version="1.0" encoding="utf-8"?>
<!-- Generator: Adobe Illustrator 15.1.0, SVG Export Plug-In . SVG Version: 6.00 Build 0)  -->
<!DOCTYPE svg PUBLIC "-//W3C//DTD SVG 1.1//EN" "http://www.w3.org/Graphics/SVG/1.1/DTD/svg11.dtd">
<svg version="1.1" id="Calque_1" xmlns="http://www.w3.org/2000/svg" xmlns:xlink="http://www.w3.org/1999/xlink" x="0px" y="0px"
	 width="512px" height="512px" viewBox="0 0 512 512" enable-background="new 0 0 512 512" xml:space="preserve">
<path d="M255.98,146.792c-100.68,0-182.598,81.931-182.598,182.637C73.383,430.108,155.3,512,255.98,512
	c100.706,0,182.637-81.892,182.637-182.571C438.617,228.723,356.687,146.792,255.98,146.792 M255.98,491.113
	c-89.123,0-161.685-72.562-161.685-161.685c0-89.175,72.562-161.737,161.685-161.737c89.188,0,161.737,72.563,161.737,161.737
	C417.718,418.552,345.168,491.113,255.98,491.113 M183.34,135.964c5.772,0,10.437-4.704,10.437-10.463V68.979
	c0-27.832,20.04-48.053,47.688-48.053h29.082c27.779,0,48.731,20.678,48.731,48.053v56.522c0,5.759,4.665,10.463,10.463,10.463
	c5.759,0,10.45-4.704,10.45-10.463V68.979C340.191,29.643,310.262,0,270.547,0h-29.082c-39.089,0-68.601,29.643-68.601,68.979
	v56.522C172.864,131.261,177.555,135.964,183.34,135.964 M256.541,282.353c-5.785,0-10.463,4.704-10.463,10.463v73.2
	c0,5.785,4.678,10.45,10.463,10.45c5.759,0,10.463-4.665,10.463-10.45v-73.2C267.004,287.057,262.3,282.353,256.541,282.353"/>
</svg>
