<?xml version="1.0" encoding="utf-8"?>
<!-- Generator: Adobe Illustrator 15.1.0, SVG Export Plug-In . SVG Version: 6.00 Build 0)  -->
<!DOCTYPE svg PUBLIC "-//W3C//DTD SVG 1.1//EN" "http://www.w3.org/Graphics/SVG/1.1/DTD/svg11.dtd">
<svg version="1.1" id="Calque_1" xmlns="http://www.w3.org/2000/svg" xmlns:xlink="http://www.w3.org/1999/xlink" x="0px" y="0px"
	 width="512px" height="512px" viewBox="0 0 512 512" enable-background="new 0 0 512 512" xml:space="preserve">
<path d="M480.296,152.767c-1.398-1.129-3.12-1.166-4.77-1.47l0.071-0.627l-129.226-21.248L301.24,6.435l-0.627,0.251
	c-0.592-1.578-0.951-3.299-2.313-4.447c-4.214-3.442-10.436-2.851-13.843,1.327L58.621,276.524c-0.036,0.036,0,0.107-0.036,0.107
	c-1.112,1.435-1.918,3.084-2.134,4.949L28.247,500.927c-0.448,3.354,0.914,6.652,3.532,8.822c2.564,2.169,6.096,2.779,9.324,1.793
	l210.166-68.818c1.757-0.592,3.263-1.649,4.393-3.012c0-0.036,0.071-0.036,0.107-0.072l225.8-273.03
	C485.029,162.468,484.474,156.264,480.296,152.767 M246.893,419.521l-7.746-6.437L171.064,356.8L343.072,148.84l112.426,18.469
	L246.893,419.521z M128.568,462.161L60.342,405.68l13.358-103.891l77.191,63.851c0.036,0,0.036,0.036,0.036,0.036h0.036
	l77.191,63.869L128.568,462.161z M288.671,29.315l39.232,106.974L155.931,344.23l-75.865-62.757L288.671,29.315z M57.366,428.773
	l49.13,40.613l-56.732,18.576L57.366,428.773z"/>
</svg>
