<?xml version="1.0" encoding="utf-8"?>
<!-- Generator: Adobe Illustrator 15.1.0, SVG Export Plug-In . SVG Version: 6.00 Build 0)  -->
<!DOCTYPE svg PUBLIC "-//W3C//DTD SVG 1.1//EN" "http://www.w3.org/Graphics/SVG/1.1/DTD/svg11.dtd">
<svg version="1.1" id="Calque_1" xmlns="http://www.w3.org/2000/svg" xmlns:xlink="http://www.w3.org/1999/xlink" x="0px" y="0px"
	 width="512px" height="512px" viewBox="0 0 512 512" enable-background="new 0 0 512 512" xml:space="preserve">
<g>
	<path d="M256.019,99.907c-41.099,0-74.513,33.631-74.513,74.966c0,41.295,33.414,74.906,74.513,74.906
		c41.041,0,74.494-33.611,74.494-74.906C330.513,133.538,297.06,99.907,256.019,99.907 M256.019,229.181
		c-29.836,0-54.072-24.354-54.072-54.308c0-29.994,24.235-54.426,54.072-54.426c29.798,0,54.052,24.432,54.052,54.426
		C310.071,204.827,285.817,229.181,256.019,229.181 M256.019,0C160.16,0,82.148,80.999,82.148,180.593
		c0,124.083,159.011,314.149,165.772,322.169l7.823,9.238l7.744-9.238c6.841-7.98,166.913-198.086,166.362-322.209
		C429.418,80.999,351.426,0,256.019,0 M255.783,479.922C223.568,439.786,102.61,282.15,102.61,180.593
		c0-88.253,68.833-160.014,153.409-160.014c84.204,0,152.998,71.801,153.39,160.053C409.842,282.19,288.097,439.825,255.783,479.922
		"/>
</g>
</svg>
