<?xml version="1.0" encoding="utf-8"?>
<!-- Generator: Adobe Illustrator 15.1.0, SVG Export Plug-In . SVG Version: 6.00 Build 0)  -->
<!DOCTYPE svg PUBLIC "-//W3C//DTD SVG 1.1//EN" "http://www.w3.org/Graphics/SVG/1.1/DTD/svg11.dtd">
<svg version="1.1" id="Calque_1" xmlns="http://www.w3.org/2000/svg" xmlns:xlink="http://www.w3.org/1999/xlink" x="0px" y="0px"
	 width="512px" height="512px" viewBox="0 0 512 512" enable-background="new 0 0 512 512" xml:space="preserve">
<g>
	<path fill="#010101" d="M500.599,16.101c-7.52-7.505-18.067-11.283-31.359-11.283c-46.444,0-126.531,48.747-199.288,121.338
		c-91.587,91.417-112.135,216.741-112.956,222.024l-2.009,12.773l12.812-2.01c5.302-0.802,130.9-21.312,222.497-112.71
		c44.435-44.331,80.624-91.775,101.889-133.583C515.354,67.107,518.269,33.719,500.599,16.101 M475.324,104.098
		c-20.388,40.081-55.351,85.832-98.408,128.814c-70.077,69.926-163.839,96.738-198.472,104.644
		c7.93-34.558,34.784-128.121,104.885-198.062C351.68,71.291,428.134,23.662,469.239,23.662c8.094,0,14.151,1.962,17.981,5.769
		C498.061,40.252,493.617,68.173,475.324,104.098 M321.443,336.273l-5.142-12.028l-9.821,8.67
		c-16.189,14.265-38.491,25.095-62.809,30.51c-3.439,0.755-6.849,1.378-10.25,1.906l-7.604,1.15l-4.241,82.559l8.123,1.5
		c4.986,0.925,10.085,1.396,15.161,1.396c6.057,0,12.147-0.68,18.119-1.99c44.803-9.973,73.152-54.455,63.181-99.163
		C325.085,345.943,323.537,341.198,321.443,336.273 M258.885,431.53c-4.632,1.019-9.35,1.538-14.024,1.538
		c-1.169,0-2.358-0.038-3.528-0.113l2.581-50.322c1.292-0.245,2.589-0.51,3.873-0.812c22.251-4.934,43.129-14.019,60.11-26.02
		C315.019,390.048,293.197,423.889,258.885,431.53 M192.586,200.822l-12.038-5.142c-4.916-2.076-9.67-3.642-14.538-4.712
		c-5.981-1.326-12.076-2-18.151-2c-38.643,0-72.813,27.359-81.238,65.063c-2.443,11.014-2.646,22.185-0.599,33.194l1.519,8.114
		l82.733-4.227l1.156-7.613c0.523-3.396,1.151-6.793,1.915-10.218c5.401-24.255,16.27-46.524,30.567-62.686L192.586,200.822z
		 M134.881,269.196c-0.278,1.283-0.561,2.566-0.802,3.83l-50.458,2.585c-0.316-5.83,0.165-11.688,1.462-17.5
		c6.509-29.128,32.901-50.28,62.775-50.28c4.373,0,8.778,0.458,13.109,1.363C148.938,226.158,139.839,246.969,134.881,269.196
		 M345.84,123.344c-12.623,0-24.491,4.906-33.416,13.821c-18.435,18.396-18.435,48.313,0,66.69
		c8.925,8.925,20.793,13.831,33.416,13.831c12.642,0,24.501-4.896,33.425-13.802c8.935-8.915,13.85-20.76,13.85-33.369
		c0-12.59-4.915-24.43-13.85-33.35C370.35,128.25,358.481,123.344,345.84,123.344 M365.896,190.52
		c-10.707,10.698-29.396,10.698-40.113-0.009c-11.058-11.02-11.058-28.982,0-40.011c5.358-5.335,12.49-8.283,20.057-8.283
		c7.585,0,14.698,2.948,20.057,8.283c5.359,5.349,8.303,12.458,8.303,20.015C374.199,178.081,371.256,185.199,365.896,190.52
		 M139.25,377.973c-1.094-1.113-27.284-27.039-55.114-27.039c-8.396,0-16.114,2.303-22.954,6.831
		c-30.5,20.208-50.109,68.247-50.93,70.284c-1.42,3.491-0.608,7.51,2.066,10.17c2.665,2.68,6.684,3.51,10.194,2.113l11.533-4.575
		L2.289,472.55c-2.194,2.557-2.868,6.048-1.774,9.236c1.09,3.16,3.783,5.51,7.071,6.16c0.354,0.076,8.741,1.765,20.557,1.765
		c18.26,0,43.878-3.896,62.959-22.321c-0.708,7.217-2.811,17.83-5.66,27.746c-1.085,3.745,0.259,7.783,3.377,10.16
		c1.684,1.236,3.693,1.887,5.703,1.887c1.727,0,3.467-0.472,4.991-1.434c28.869-17.906,74.629-67.284,41.261-125.795
		C140.349,379.236,139.849,378.558,139.25,377.973 M109.513,473.201c1.245-10.227,0.839-19.396-2.986-24.453
		c-2.491-3.303-6.297-5.208-10.42-5.208c-5.382,0-10.84,3.019-17.632,9.765c-14.377,14.292-34.864,17.453-49.732,17.519
		l44.747-51.878c2.839-3.312,3.062-8.104,0.533-11.633c-2.533-3.547-7.132-4.905-11.189-3.283l-24.529,9.718
		c7.807-13.888,19.477-31.076,33.34-40.266c3.727-2.472,7.816-3.679,12.491-3.679c15.797,0,34.005,14.132,40.845,20.604
		C144.736,426.342,126.353,455.918,109.513,473.201"/>
</g>
</svg>
