<?xml version="1.0" encoding="utf-8"?>
<!-- Generator: Adobe Illustrator 15.1.0, SVG Export Plug-In . SVG Version: 6.00 Build 0)  -->
<!DOCTYPE svg PUBLIC "-//W3C//DTD SVG 1.1//EN" "http://www.w3.org/Graphics/SVG/1.1/DTD/svg11.dtd">
<svg version="1.1" id="Calque_1" xmlns="http://www.w3.org/2000/svg" xmlns:xlink="http://www.w3.org/1999/xlink" x="0px" y="0px"
	 width="512px" height="512px" viewBox="0 0 512 512" enable-background="new 0 0 512 512" xml:space="preserve">
<g>
	<path fill="#010101" d="M381.791,195.535L318.665,6.156C317.432,2.479,313.988,0,310.113,0H201.892
		c-3.884,0-7.332,2.479-8.556,6.156L130.21,195.535c-1.326,3.989,0.26,8.344,3.831,10.533l112.937,69.504v28.209l-28.992,58.726
		l-66.922,9.722c-3.391,0.494-6.213,2.88-7.274,6.139c-1.065,3.268-0.181,6.852,2.29,9.238l48.415,47.204l-11.431,66.64
		c-0.577,3.382,0.81,6.808,3.598,8.824c2.778,2.025,6.455,2.29,9.485,0.688l59.85-31.458l59.859,31.458
		c1.313,0.695,2.757,1.03,4.192,1.03c1.867,0,3.733-0.572,5.293-1.718c2.782-2.017,4.174-5.442,3.602-8.824l-11.439-66.64
		l48.419-47.204c2.475-2.387,3.355-5.971,2.289-9.238c-1.065-3.259-3.884-5.645-7.273-6.139l-66.923-9.722l-29-58.743v-28.191
		l112.937-69.504C381.536,203.879,383.112,199.524,381.791,195.535z M274.032,18.036v230.822l-18.027,11.093l-18.045-11.104V18.036
		H274.032z M208.387,18.036h11.537v219.713l-70.343-43.285L208.387,18.036z M286.723,379.67l53.536,7.785l-38.731,37.736
		c-2.132,2.087-3.101,5.072-2.599,7.996l9.133,53.308l-47.864-25.17c-1.313-0.687-2.757-1.039-4.201-1.039
		c-1.44,0-2.884,0.353-4.192,1.039l-47.864,25.17l9.132-53.308c0.498-2.924-0.467-5.909-2.594-7.996l-38.736-37.736l53.531-7.785
		c2.933-0.423,5.465-2.272,6.79-4.932l23.932-48.499l23.938,48.499C281.263,377.397,283.79,379.247,286.723,379.67z
		 M292.068,237.759V18.036h11.537l58.82,176.429L292.068,237.759z"/>
</g>
</svg>
