<?xml version="1.0" encoding="utf-8"?>
<!-- Generator: Adobe Illustrator 15.1.0, SVG Export Plug-In . SVG Version: 6.00 Build 0)  -->
<!DOCTYPE svg PUBLIC "-//W3C//DTD SVG 1.1//EN" "http://www.w3.org/Graphics/SVG/1.1/DTD/svg11.dtd">
<svg version="1.1" id="Calque_1" xmlns="http://www.w3.org/2000/svg" xmlns:xlink="http://www.w3.org/1999/xlink" x="0px" y="0px"
	 width="512px" height="512px" viewBox="0 0 512 512" enable-background="new 0 0 512 512" xml:space="preserve">
<g>
	<path d="M407.611,500.746c-1.726,0-3.413-0.395-5.007-1.238l-146.609-77.383l-146.629,77.383
		c-3.572,1.895-7.969,1.613-11.269-0.806c-3.3-2.4-4.931-6.507-4.266-10.538l28.013-163.916L3.23,208.173
		c-2.925-2.878-3.957-7.144-2.709-11.025c1.266-3.918,4.622-6.741,8.663-7.331L173.09,165.91l73.295-149.132
		c3.628-7.369,15.609-7.369,19.229,0l73.295,149.132l163.917,23.907c4.031,0.59,7.388,3.413,8.662,7.331
		c1.238,3.882,0.188,8.147-2.719,11.025L390.154,324.248l28.014,163.916c0.675,4.031-0.976,8.138-4.257,10.538
		C412.018,500.052,409.824,500.746,407.611,500.746 M255.996,399.212c1.706,0,3.45,0.413,5.005,1.237l132.36,69.864l-25.295-147.997
		c-0.581-3.487,0.563-7.05,3.075-9.544l107.103-104.796l-147.997-21.601c-3.469-0.497-6.507-2.728-8.063-5.888L255.996,45.87
		l-66.18,134.619c-1.557,3.16-4.584,5.391-8.063,5.888L33.737,207.977l107.103,104.796c2.513,2.494,3.685,6.057,3.066,9.544
		l-25.266,147.997l132.369-69.864C252.564,399.625,254.289,399.212,255.996,399.212"/>
</g>
</svg>
