<?xml version="1.0" encoding="utf-8"?>
<!-- Generator: Adobe Illustrator 15.1.0, SVG Export Plug-In . SVG Version: 6.00 Build 0)  -->
<!DOCTYPE svg PUBLIC "-//W3C//DTD SVG 1.1//EN" "http://www.w3.org/Graphics/SVG/1.1/DTD/svg11.dtd">
<svg version="1.1" id="Calque_1" xmlns="http://www.w3.org/2000/svg" xmlns:xlink="http://www.w3.org/1999/xlink" x="0px" y="0px"
	 width="512px" height="512px" viewBox="0 0 512 512" enable-background="new 0 0 512 512" xml:space="preserve">
<g>
	<path d="M210.295,445.457c-7.59,0-18.82-2.59-29.361-14.91L16.25,275.223c-10.32-9.02-25.985-32.66-8.12-54.576L63.786,164.6
		c1.32-1.165,8.345-6.87,19.12-6.87c7.391,0,18.676,2.775,30.411,16.065l74.707,75.092c0.665,0.76,11.25,13.255,24.05,13.255
		c7.271,0,14.44-4.23,21.291-12.6L394.52,76.718c1.24-1.225,10.551-10.175,24.91-10.175c9.471,0,18.631,3.87,27.191,11.49
		l54.541,54.812c2.33,2.02,10.4,9.855,10.82,22.326c0.361,10.71-4.99,21.156-15.869,31.061L243.701,429.816
		C242.406,431.227,228.656,445.457,210.295,445.457 M76.197,178.19l-54.591,54.887c-10.476,12.945,6.34,27.956,7.06,28.585
		L194.27,417.947c5.385,6.23,10.465,9.01,16.025,9.01c8.97,0,17.9-7.43,20.306-10.029l252.952-244.142
		c4.949-4.505,10.379-10.786,10.16-17c-0.16-5.18-4.291-8.755-4.33-8.795l-0.811-0.73l-54.432-54.731
		c-4.721-4.17-9.801-6.495-14.711-6.495c-6.93,0-11.859,4.63-11.9,4.68L247.046,261.813c-10.115,12.352-22.016,18.83-34.971,18.83
		c-21.46,0-36.886-18.49-37.531-19.279l-74.477-74.848c-6.1-6.86-11.91-10.28-17.161-10.28
		C79.422,176.235,76.967,177.681,76.197,178.19"/>
</g>
</svg>
