<?xml version="1.0" encoding="utf-8"?>
<!-- Generator: Adobe Illustrator 15.1.0, SVG Export Plug-In . SVG Version: 6.00 Build 0)  -->
<!DOCTYPE svg PUBLIC "-//W3C//DTD SVG 1.1//EN" "http://www.w3.org/Graphics/SVG/1.1/DTD/svg11.dtd">
<svg version="1.1" id="Calque_1" xmlns="http://www.w3.org/2000/svg" xmlns:xlink="http://www.w3.org/1999/xlink" x="0px" y="0px"
	 width="512px" height="512px" viewBox="0 0 512 512" enable-background="new 0 0 512 512" xml:space="preserve">
<g>
	<path d="M512,97.19c-18.851,8.354-39.094,14.006-60.339,16.54c21.691-13.003,38.342-33.552,46.194-58.111
		c-20.271,12.042-42.741,20.786-66.688,25.491c-19.156-20.41-46.472-33.148-76.683-33.148c-58,0-105.057,47.043-105.057,105.028
		c0,8.242,0.947,16.261,2.701,23.932c-87.306-4.371-164.685-46.193-216.489-109.748c-9.036,15.537-14.229,33.553-14.229,52.807
		c0,36.435,18.558,68.622,46.709,87.445c-17.194-0.543-33.399-5.304-47.558-13.17v1.336c0,50.899,36.211,93.362,84.243,103.024
		c-8.799,2.395-18.099,3.703-27.649,3.703c-6.794,0-13.379-0.696-19.783-1.922c13.365,41.711,52.138,72.089,98.109,72.98
		c-35.933,28.122-81.208,44.968-130.45,44.968c-8.465,0-16.818-0.528-25.032-1.503c46.472,29.766,101.673,47.195,161.037,47.195
		c193.197,0,298.839-160.048,298.839-298.866c0-4.539-0.084-9.063-0.251-13.602C480.091,136.771,497.883,118.269,512,97.19"/>
</g>
</svg>
