<?xml version="1.0" encoding="utf-8"?>
<!-- Generator: Adobe Illustrator 15.1.0, SVG Export Plug-In . SVG Version: 6.00 Build 0)  -->
<!DOCTYPE svg PUBLIC "-//W3C//DTD SVG 1.1//EN" "http://www.w3.org/Graphics/SVG/1.1/DTD/svg11.dtd">
<svg version="1.1" id="Calque_1" xmlns="http://www.w3.org/2000/svg" xmlns:xlink="http://www.w3.org/1999/xlink" x="0px" y="0px"
	 width="512px" height="512px" viewBox="0 0 512 512" enable-background="new 0 0 512 512" xml:space="preserve">
<path d="M462.806,0H236.318c-27.164,0-49.224,22.074-49.224,49.224v226.458c0,27.165,22.06,49.239,49.224,49.239h226.488
	c27.135,0,49.194-22.074,49.194-49.239V49.224C512,22.074,489.94,0,462.806,0 M492.325,275.682c0,16.302-13.233,29.55-29.52,29.55
	H236.318c-16.287,0-29.549-13.248-29.549-29.55V49.224c0-16.287,13.262-29.534,29.549-29.534h226.488
	c16.286,0,29.52,13.248,29.52,29.534V275.682z M305.23,462.806c0,16.257-13.218,29.476-29.52,29.476H49.224
	c-16.287,0-29.534-13.219-29.534-29.476V236.318c0-16.287,13.248-29.578,29.534-29.578h118.152V187.05H49.224
	C22.074,187.05,0,209.154,0,236.318v226.488C0,489.94,22.074,512,49.224,512h226.487c27.135,0,49.238-22.06,49.238-49.194v-118.21
	H305.23V462.806z"/>
</svg>
