<?xml version="1.0" encoding="utf-8"?>
<!-- Generator: Adobe Illustrator 15.1.0, SVG Export Plug-In . SVG Version: 6.00 Build 0)  -->
<!DOCTYPE svg PUBLIC "-//W3C//DTD SVG 1.1//EN" "http://www.w3.org/Graphics/SVG/1.1/DTD/svg11.dtd">
<svg version="1.1" id="Calque_1" xmlns="http://www.w3.org/2000/svg" xmlns:xlink="http://www.w3.org/1999/xlink" x="0px" y="0px"
	 width="512px" height="512px" viewBox="0 0 512 512" enable-background="new 0 0 512 512" xml:space="preserve">
<path d="M256,0C114.813,0,0,114.873,0,256c0,141.188,114.813,256,256,256c141.157,0,256-114.813,256-256
	C512,114.873,397.157,0,256,0 M472.099,158.264h-1.173c-4.288-3.4-12.383-8.696-21.546-8.727c-0.331-0.09-1.264-1.053-1.865-1.564
	c-2.106-2.137-5.432-5.372-10.894-6.56c-2.151-8.516-10.441-9.283-13.239-9.283c-5.823,0-7.313,0.376-12.97,3.205
	c-3.882,1.911-11.615,5.792-29.896,13.18c4.935-6.094,7.733-10.532,8.079-15.437l8.771-0.03l-0.029-9.268
	c-0.03-10.938,2.347-25.081,5.958-28.692c4.92-4.89,16.144-6.124,19.68-6.154l-0.03-1.444
	C443.407,107.726,460.018,131.724,472.099,158.264 M422.945,88.934V87.46V88.934z M328.008,29.865l-9.945,9.915l-0.616,2.498
	c-1.354,5.492-7.583,30.783-8.847,42.805c-3.205,1.083-11.992,3.009-34.35,3.069c-2.227-0.797-7.764-7.673-11.811-12.623
	c-4.619-5.732-10.411-12.879-17.468-19.936c-8.757-8.756-8.997-25.111-7.703-36.019c6.198-0.526,12.412-0.993,18.731-0.993
	C281.111,18.581,305.274,22.583,328.008,29.865 M109.336,69.736c9.448-7.493,19.499-14.293,30.076-20.311l11.209,16.851
	c3.912,11.871,7.944,26.781,7.944,31.129c0,8.771-0.481,14.579-1.505,17.227c-3.205,0.241-6.124,1.144-8.938,2.001
	c-5.973,1.791-11.118,3.385-20.115-1.113c-1.52-0.737-2.588-1.64-2.679-2.151c-0.346-2.046,2.498-6.726,5.086-9.374l6.59-6.59
	L109.336,69.736z M156.007,40.984c0.783-0.346,1.49-0.707,2.228-1.083v4.499L156.007,40.984z M95.163,81.908l16.294,16.265
	c-2.964,4.754-5.642,11.224-4.528,18.115c0.798,4.754,3.641,11.344,12.759,15.873c7.387,3.701,13.767,4.905,19.198,4.905
	c5.973,0,10.817-1.49,14.639-2.633c2.182-0.662,4.273-1.324,5.567-1.324c18.114,0,18.114-25.006,18.114-35.703
	c0-9.794-7.733-33.521-9.298-38.17l-8.29-12.699h20.673l5.883,9.449v29.429l5.025,2.648c0,0,17.106,8.847,34.785,17.693
	c3.054,1.505,4.017,1.971-1.234,12.789c-2.302,4.77-4.483,9.238-4.483,14.113c0,3.641-4.664,8.32-8.335,8.32
	c-10.622,0-15.091,7.177-18.296,12.413c-1.624,2.618-3.295,5.326-5.912,7.914c-4.469,4.514-7.026,8.847-9.734,13.451
	c-3.341,5.777-7.192,12.307-16.671,21.801c-8.2,8.169-11.345,13.195-13.436,16.49c-2.167,3.355-2.724,4.288-10.577,8.23
	c-4.965,2.467-8.154,3.265-10.502,3.852c-12.262,3.039-12.262,10.231-12.262,22.057c0,17.633,9.058,20.552,18.355,22.057
	c3.731,0.632,7.989,1.294,13.194,3.896c6.591,3.325,9.886,8.26,14.053,14.475c4.77,7.176,10.171,15.285,21.169,20.808
	c7.117,3.535,18.942,10.23,32.634,17.934c19.349,10.894,43.437,24.524,64.305,34.966c11.345,5.643,13.03,9.027,13.15,9.027
	c-0.241,0.934-2.062,3.115-3.175,4.438c-2.828,3.416-6.334,7.674-6.334,13.496c0,8.26,0,15.407-7.899,31.145
	c-4.799,9.599-9.237,12.578-22.553,21.515c-7.057,4.68-15.843,10.532-27.669,19.409c-10.547,7.959-20.372,17.106-21.5,26.69
	c-4.378-1.053-8.787-2.136-13.104-3.4c2.617-10.682,5.672-26.495,5.672-42.669c0-27.383-9.614-33.28-25.201-40.518
	c-1.971-0.888-4.107-1.911-6.38-3.114c-11.344-5.643-12.668-9.854-18.13-27.353c-1.038-3.431-2.271-7.313-3.626-11.525
	c-3.551-10.547,0.241-16.58,7.268-25.788c5.055-6.665,10.787-14.865,10.787-25.156c0-17.874-11.991-28.256-35.582-28.256
	c-3.822,0-17.754-6.709-30.076-13.525c-10.667-5.883-22.779-11.209-36.365-18.055c-23.546-11.766-16.851-74.536-12.668-95.584
	l-1.821-0.361C56.06,125.284,73.738,101.693,95.163,81.908 M18.581,256c0-14.7,1.55-29.053,4.138-43.045
	c2.121,21.756,9.058,42.684,26.465,51.366c13.285,6.65,25.201,13.255,35.748,19.032c21.53,11.931,31.4,17.197,38.908,17.197
	c15.934,0,17.106,3.265,17.106,8.32c0,3.972-3.234,8.26-6.996,13.195c-7.146,9.373-16.911,22.222-10.141,42.608
	c1.354,4.107,2.498,7.733,3.581,11.028c5.883,18.867,9.117,29.219,27.519,38.396c2.467,1.233,4.739,2.287,6.86,3.31
	c12.232,5.627,14.429,6.681,14.429,23.622c0,13.436-2.468,26.932-4.709,36.546C82.269,443.407,18.581,357.106,18.581,256
	 M256,493.389c-12.111,0-23.907-1.174-35.522-2.964l0.03-1.564c0.827-1.521,3.972-5.703,14.443-13.587
	c11.435-8.575,19.98-14.278,26.842-18.896c14.082-9.419,21.846-14.64,28.872-28.617c9.464-18.927,9.824-29.398,9.824-38.456
	c0.467-0.723,1.43-1.82,2.077-2.618c3.354-4.047,8.997-10.817,7.086-19.86c-1.73-8.215-8.847-15.091-23.05-22.177
	c-20.492-10.231-44.339-23.697-63.507-34.515c-13.902-7.823-25.938-14.595-33.432-18.355c-6.59-3.31-9.87-8.261-14.053-14.489
	c-4.754-7.146-10.171-15.286-21.199-20.792c-7.764-3.882-14.203-4.935-18.521-5.612c-0.798-0.12-1.82-0.301-2.588-0.466
	c-0.061-0.677-0.15-1.73-0.15-3.235c0-1.535,0-3.145,0.03-4.499c2.828-0.737,6.996-2.031,12.442-4.77
	c11.314-5.672,14.143-8.877,17.935-14.925c1.88-2.889,4.197-6.56,10.907-13.271c11.194-11.164,15.844-19.138,19.635-25.517
	c2.302-4.032,4.002-6.936,6.771-9.705c4.168-4.167,6.726-8.29,8.606-11.299c0.857-1.43,2.061-3.371,2.452-3.611
	c13.872,0,26.962-13.06,26.932-26.69c0.195-1.114,1.64-4.183,2.663-6.259c3.972-8.154,13.21-27.292-7.222-37.554
	c-11.706-5.883-23.2-11.705-29.52-14.985V50.688l-14.067-22.734c8.997-2.588,18.234-4.559,27.623-6.079
	c-0.978,13.646,0.286,33.748,13.436,46.867c6.38,6.379,11.601,12.789,16.22,18.491c8.802,10.908,15.707,19.484,25.638,19.484
	c32.935,0,53.336-3.024,53.336-18.13c0-4.95,4.469-25.111,7.914-39.284l12.382-12.382c21.696,9.057,41.812,21.229,59.687,35.989
	c-5.823,1.655-12.037,4.213-16.821,9.027c-8.29,8.32-10.563,25.021-11.179,34.936c-4.814,2.693-8.546,7.613-8.938,14.549
	c-1.173,2.151-5.176,6.966-7.673,9.915c-8.471,10.201-15.813,19.018-9.825,27.217c5.883,8.064,17.183,4.394,30.257-0.873
	c22.373-8.937,31.521-13.496,35.959-15.678c0.211-0.12,0.451-0.24,0.677-0.361c2.648,7.267,10.231,7.944,13.271,8.004
	c0.286,0.09,1.233,1.023,1.82,1.595c2.648,2.588,7.116,6.966,15.316,6.966c3.355,0,8.666,3.611,11.119,5.973l2.723,2.663h15.858
	c2.287,6.5,4.317,13.09,6.078,19.815c-1.609-0.466-3.205-0.902-5.206-1.896c-23.109-11.555-37.93-18.566-48.16-18.566
	c-9.81,0-33.567,7.764-38.216,9.298l-2.062,0.677l-1.55,1.58c-13.3,13.27-29.173,31.325-29.173,41.676
	c-0.091,0.933-0.918,3.731-1.565,5.808c-3.791,12.126-11.69,37.464,14.504,54.931c17.348,11.556,32.077,7.839,41.842,5.371
	c2.498-0.662,6.108-1.52,6.996-1.488c0,0,0.377,0.315,0.903,1.354c7.793,15.662,7.793,31.716,7.793,48.688
	c0,12.788-1.971,54.946-2.964,74.204C385.422,464.381,324.066,493.389,256,493.389 M443.873,400.543
	c2.648-17.288,6.47-44.249,6.47-56.451c0-18.4,0-37.434-9.794-57.008c-7.554-15.091-21.02-11.676-29.129-9.6
	c-8.44,2.152-16.444,4.184-26.932-2.783c-13.556-9.087-11.494-19.814-7.086-33.958c1.324-4.123,2.468-7.733,2.377-10.441
	c0.963-3.792,11.148-16.55,22.253-27.864c11.675-3.777,25.938-7.598,30.196-7.598c6.59,0,25.788,9.614,39.9,16.625
	c7.944,3.957,13.436,5.657,17.874,6.199c2.031,12.548,3.355,25.276,3.355,38.336C493.358,310.42,474.777,360.461,443.873,400.543"/>
</svg>
